<svg xmlns="http://www.w3.org/2000/svg" viewBox="4.18 9.22 39.87 29.56"><path d="M24,9.22A12.06,12.06,0,0,0,12.1,19,10,10,0,0,0,14,38.78H35.3a8.67,8.67,0,0,0,.79-17.31A12,12,0,0,0,24,9.22Zm0,2.61a9.56,9.56,0,0,1,9.5,10.71A1.3,1.3,0,0,0,34.62,24h.68a6.06,6.06,0,0,1,6.09,6v.08a6.05,6.05,0,0,1-6,6.09H14a7.37,7.37,0,0,1-7.39-7.35v0a7.38,7.38,0,0,1,6.71-7.37,1.3,1.3,0,0,0,1.17-1.14A9.53,9.53,0,0,1,24,11.83Zm0,7.83a1.12,1.12,0,0,0-.88.34l-4.78,4.34a1.32,1.32,0,0,0-.09,1.85,1.36,1.36,0,0,0,1.85.08l2.6-2.36v8.36a1.3,1.3,0,1,0,2.6,0V23.91l2.6,2.36a1.39,1.39,0,0,0,1.85-.08,1.32,1.32,0,0,0-.09-1.85L24.88,20A1.08,1.08,0,0,0,24,19.66Z" style="fill:#00a7ec"/></svg>