<?xml version="1.0" encoding="UTF-8" standalone="no"?>
<!-- Created with Inkscape (http://www.inkscape.org/) -->

<svg
   width="50"
   height="50"
   viewBox="0 0 13.229166 13.229167"
   version="1.1"
   id="svg8528"
   inkscape:version="1.2.2 (b0a8486541, 2022-12-01)"
   sodipodi:docname="check.svg"
   xml:space="preserve"
   xmlns:inkscape="http://www.inkscape.org/namespaces/inkscape"
   xmlns:sodipodi="http://sodipodi.sourceforge.net/DTD/sodipodi-0.dtd"
   xmlns="http://www.w3.org/2000/svg"
   xmlns:svg="http://www.w3.org/2000/svg"><sodipodi:namedview
     id="namedview8530"
     pagecolor="#505050"
     bordercolor="#eeeeee"
     borderopacity="1"
     inkscape:showpageshadow="false"
     inkscape:pageopacity="0"
     inkscape:pagecheckerboard="0"
     inkscape:deskcolor="#505050"
     inkscape:document-units="mm"
     showgrid="false"
     inkscape:zoom="20.70196"
     inkscape:cx="22.437489"
     inkscape:cy="23.886627"
     inkscape:window-width="2262"
     inkscape:window-height="1282"
     inkscape:window-x="26"
     inkscape:window-y="23"
     inkscape:window-maximized="0"
     inkscape:current-layer="layer1" /><defs
     id="defs8525" /><g
     inkscape:label="Ebene 1"
     inkscape:groupmode="layer"
     id="layer1"><g
       id="g27342"
       transform="translate(-23.01875,-112.97708)"><path
         id="path9247-7"
         style="fill:#00ab42;fill-opacity:1;stroke-width:0.107866"
         d="m 29.633334,113.77083 a 5.8208559,5.8208559 0 0 0 -5.820834,5.82084 5.8208559,5.8208559 0 0 0 5.820834,5.82083 5.8208559,5.8208559 0 0 0 5.820832,-5.82083 5.8208559,5.8208559 0 0 0 -5.820832,-5.82084 z m 0,0.64672 a 5.1740942,5.1740942 0 0 1 5.174109,5.17412 5.1740942,5.1740942 0 0 1 -5.174109,5.17411 5.1740942,5.1740942 0 0 1 -5.174112,-5.17411 5.1740942,5.1740942 0 0 1 5.174112,-5.17412 z" /><path
         id="path9573-53"
         style="fill:#00ab42;fill-opacity:1;stroke-width:0.110177"
         d="m 29.633333,115.06429 c -2.50029,1.5e-4 -4.527405,2.02709 -4.527372,4.52737 1.5e-4,2.50016 2.027212,4.52722 4.527372,4.52738 2.500291,3e-5 4.527223,-2.02709 4.527372,-4.52738 3.2e-5,-2.50041 -2.026951,-4.52741 -4.527372,-4.52737 z m 2.6479,2.27377 h 0.833024 c -1.486353,1.65123 -2.699535,3.41913 -3.669543,5.29166 -0.518754,-1.11224 -1.244137,-2.04819 -2.254643,-2.74195 l 0.77463,-0.1881 c 0.422331,0.24346 1.118931,0.73249 1.444356,1.1312 0.841767,-1.39571 1.809117,-2.53968 2.872176,-3.49281 z" /></g></g></svg>
