<?xml version="1.0" encoding="UTF-8" standalone="no"?>
<!-- Created with Inkscape (http://www.inkscape.org/) -->

<svg
   width="50"
   height="50"
   viewBox="0 0 13.229166 13.229167"
   version="1.1"
   id="svg8528"
   inkscape:version="1.2.2 (b0a8486541, 2022-12-01)"
   sodipodi:docname="checklist.svg"
   xml:space="preserve"
   xmlns:inkscape="http://www.inkscape.org/namespaces/inkscape"
   xmlns:sodipodi="http://sodipodi.sourceforge.net/DTD/sodipodi-0.dtd"
   xmlns="http://www.w3.org/2000/svg"
   xmlns:svg="http://www.w3.org/2000/svg"><sodipodi:namedview
     id="namedview8530"
     pagecolor="#505050"
     bordercolor="#eeeeee"
     borderopacity="1"
     inkscape:showpageshadow="false"
     inkscape:pageopacity="0"
     inkscape:pagecheckerboard="0"
     inkscape:deskcolor="#505050"
     inkscape:document-units="mm"
     showgrid="false"
     inkscape:zoom="7.3192482"
     inkscape:cx="30.057732"
     inkscape:cy="23.841247"
     inkscape:window-width="1575"
     inkscape:window-height="1282"
     inkscape:window-x="26"
     inkscape:window-y="23"
     inkscape:window-maximized="0"
     inkscape:current-layer="g5976"
     showguides="true" /><defs
     id="defs8525" /><g
     inkscape:label="Ebene 1"
     inkscape:groupmode="layer"
     id="layer1"><g
       id="g5976"
       transform="matrix(0.63004102,0,0,0.63004102,-28.534777,-77.109542)"><path
         id="use5584"
         style="fill:#919191;fill-opacity:1;stroke-width:0.164177"
         d="m 53.942708,122.38862 a 5.7525634,5.9065347 0 0 1 8.21e-4,8.3e-4 l -5.323968,8.1e-4 a 1.2281244,1.2378264 0 0 0 -0.83087,0.32972 l -0.0369,0.0345 a 1.2264891,1.2361782 0 0 0 -0.361712,0.87515 v 7.71651 9.1199 0.009 a 1.2264891,1.2361782 0 0 0 0.01555,0.15585 1.2248539,1.23453 0 0 0 0.0075,0.0656 1.2264891,1.2361782 0 0 0 0.04676,0.16486 1.2248539,1.23453 0 0 0 0.01886,0.0607 1.2264891,1.2361782 0 0 0 0.09514,0.18783 1.2248539,1.23453 0 0 0 0.0057,0.0106 1.2264891,1.2361782 0 0 0 0.134515,0.17716 1.2248539,1.23453 0 0 0 0.0033,0.004 l 0.0033,0.004 a 1.2264891,1.2361782 0 0 0 0.03281,0.0394 1.2313951,1.2411229 0 0 0 0.627459,0.3371 1.2264891,1.2361782 0 0 0 8.21e-4,0 1.2313951,1.2411229 0 0 0 0.237859,0.0238 1.2264891,1.2361782 0 0 0 0.0025,0 h 8.593312 a 5.7525634,5.9065347 0 0 1 -8.19e-4,-8.1e-4 l 5.323765,-8.9e-4 a 1.2281244,1.2378264 0 0 0 0.83087,-0.32973 l 0.03773,-0.0344 a 1.2264891,1.2361782 0 0 0 0.360894,-0.87516 v -7.71652 -9.11988 -0.009 a 1.2264891,1.2361782 0 0 0 -0.01555,-0.15583 1.2264891,1.2361782 0 0 0 -0.0065,-0.064 1.2248539,1.23453 0 0 0 -8.2e-4,-0.002 1.2264891,1.2361782 0 0 0 -0.05414,-0.19112 1.2248539,1.23453 0 0 0 -0.0098,-0.0303 1.2264891,1.2361782 0 0 0 -0.100073,-0.19767 1.2264891,1.2361782 0 0 0 -0.0016,-0.004 1.2248539,1.23453 0 0 0 -8.21e-4,-8.3e-4 1.2264891,1.2361782 0 0 0 -0.1378,-0.18127 1.2264891,1.2361782 0 0 0 -0.03527,-0.0435 1.2313951,1.2411229 0 0 0 -0.627459,-0.3371 1.2313951,1.2411229 0 0 0 -0.0016,0 1.2264891,1.2361782 0 0 0 -0.237861,-0.0238 h -0.0024 z m -5.323147,1.06709 h 13.916461 a 0.1733438,0.17471319 0 0 1 0.121389,0.0509 l 0.01476,0.0148 a 0.16353188,0.16482375 0 0 1 0.02789,0.05 0.16353188,0.16482375 0 0 1 0,8.2e-4 0.1733438,0.17471319 0 0 1 0.0098,0.0476 0.16353188,0.16482375 0 0 1 0,8.3e-4 0.16353188,0.16482375 0 0 1 0,8.2e-4 0.16353188,0.16482375 0 0 1 0,8.1e-4 0.16353188,0.16482375 0 0 1 0,8.3e-4 0.16353188,0.16482375 0 0 1 0,8.2e-4 0.16353188,0.16482375 0 0 1 0,8.1e-4 0.16353188,0.16482375 0 0 1 0,8.3e-4 0.16353188,0.16482375 0 0 1 0,8.2e-4 0.16353188,0.16482375 0 0 1 0,8.1e-4 0.16353188,0.16482375 0 0 1 0,8.3e-4 0.16353188,0.16482375 0 0 1 0,8.2e-4 v 8.86807 7.96833 a 0.1733438,0.17471319 0 0 1 -0.05003,0.12221 l -0.01397,0.014 a 0.16353188,0.16482375 0 0 1 -0.107454,0.0377 H 48.62117 a 0.1733438,0.17471319 0 0 1 -0.120563,-0.0509 l -0.01476,-0.0148 a 0.16353188,0.16482375 0 0 1 -0.02789,-0.05 0.16353188,0.16482375 0 0 1 -0.0098,-0.0574 v -8.86808 -7.96833 a 0.1733438,0.17471319 0 0 1 0.05085,-0.1222 l 0.01317,-0.014 a 0.16353188,0.16482375 0 0 1 0.107453,-0.0377 z m 2.204718,2.61318 a 0.19623826,0.19778851 0 0 0 -0.195209,0.19685 v 1.49771 a 0.19460294,0.19614027 0 0 0 0.195209,0.19602 h 1.486216 a 0.19460294,0.19614027 0 0 0 0.194389,-0.19602 v -1.49771 a 0.19460294,0.19614027 0 0 0 -0.194389,-0.19685 z m 3.618755,0.34941 a 0.55110244,0.55545606 0 0 0 -0.490484,0.59712 0.55110244,0.55545606 0 0 0 0.490484,0.59629 h 5.846439 a 0.55110244,0.55545606 0 0 0 0.490484,-0.59629 0.55110244,0.55545606 0 0 0 -0.490484,-0.59712 z m -2.072663,3.8681 v 8.2e-4 a 0.32706378,0.32964753 0 0 0 -0.190289,0.0738 l -0.865319,0.89485 -0.348588,-0.35925 a 0.36794674,0.37085345 0 0 0 -0.490484,0.0148 0.32706378,0.32964753 0 0 0 -0.06152,0.46588 l 8.19e-4,-0.003 0.570865,0.59464 a 0.30253398,0.30492395 0 0 0 0.05249,0.041 l 0.02625,0.0328 a 0.32706378,0.32964753 0 0 0 0.464237,0.0492 l 1.14501,-1.18602 a 0.36958206,0.3725017 0 0 0 -0.02952,-0.49458 0.32706378,0.32964753 0 0 0 -0.273949,-0.1255 z m 2.066102,0.34613 a 0.60016201,0.60490319 0 0 0 0,1.19177 h 5.853 a 0.60016201,0.60490319 0 0 0 0,-1.19177 z m -3.612194,4.06823 a 0.19460294,0.19614027 0 0 0 -0.20095,0.19603 v 1.50343 a 0.19623826,0.19778851 0 0 0 0.20095,0.19603 h 1.486216 a 0.19460294,0.19614027 0 0 0 0.194389,-0.19603 v -1.50343 a 0.19460294,0.19614027 0 0 0 -0.194389,-0.19603 z m 3.612194,0.3412 a 0.60016201,0.60490319 0 0 0 0,1.19176 h 5.853 a 0.60016201,0.60490319 0 0 0 0,-1.19176 z" /></g></g><style
     type="text/css"
     id="style12387">.st0{fill-rule:evenodd;clip-rule:evenodd;}</style></svg>
