<?xml version="1.0" encoding="UTF-8" standalone="no"?>
<!-- Created with Inkscape (http://www.inkscape.org/) -->

<svg
   width="50"
   height="50"
   viewBox="0 0 13.229166 13.229167"
   version="1.1"
   id="svg8528"
   inkscape:version="1.2.2 (b0a8486541, 2022-12-01)"
   sodipodi:docname="cloud-sync.svg"
   xml:space="preserve"
   xmlns:inkscape="http://www.inkscape.org/namespaces/inkscape"
   xmlns:sodipodi="http://sodipodi.sourceforge.net/DTD/sodipodi-0.dtd"
   xmlns="http://www.w3.org/2000/svg"
   xmlns:svg="http://www.w3.org/2000/svg"><sodipodi:namedview
     id="namedview8530"
     pagecolor="#505050"
     bordercolor="#eeeeee"
     borderopacity="1"
     inkscape:showpageshadow="false"
     inkscape:pageopacity="0"
     inkscape:pagecheckerboard="0"
     inkscape:deskcolor="#505050"
     inkscape:document-units="mm"
     showgrid="false"
     inkscape:zoom="7.3192482"
     inkscape:cx="24.59269"
     inkscape:cy="24.661003"
     inkscape:window-width="1575"
     inkscape:window-height="1282"
     inkscape:window-x="26"
     inkscape:window-y="23"
     inkscape:window-maximized="0"
     inkscape:current-layer="g5976"
     showguides="true" /><defs
     id="defs8525" /><g
     inkscape:label="Ebene 1"
     inkscape:groupmode="layer"
     id="layer1"><g
       id="g5976"
       transform="matrix(0.63004102,0,0,0.63004102,-28.534777,-77.109542)"><path
         id="path6900"
         style="fill:#919191;fill-opacity:1;stroke-width:0.167506"
         d="m 54.871233,125.32784 c -3.336004,-0.0178 -6.731214,2.67276 -6.011227,5.54417 -5.920097,1.82622 -3.863966,9.36383 1.696068,9.36383 h 11.839017 c 3.38961,-0.7757 5.14755,-5.37452 1.262234,-7.45372 0.770362,-0.54285 1.268065,-1.05208 1.268065,-2.35055 0,-2.01052 -3.170103,-3.93099 -5.345559,-2.28404 -1.108638,-2.00444 -2.899923,-2.81007 -4.708598,-2.81969 z m -2.045931,3.7931 3.4852,0.72393 -0.686406,3.49522 -0.697044,-1.05212 c -1.500533,0.60315 -2.344153,1.59807 -2.468083,3.12608 -1.232584,-2.1563 -0.485928,-4.09145 1.078255,-5.22238 z m 6.27707,2.77129 c 1.23258,2.15627 0.485413,4.09142 -1.078785,5.22234 l 0.711938,1.07074 -3.485202,-0.72393 0.686938,-3.49469 0.696513,1.05213 c 1.500533,-0.60315 2.344668,-1.59861 2.468598,-3.12659 z" /></g></g><style
     type="text/css"
     id="style12387">.st0{fill-rule:evenodd;clip-rule:evenodd;}</style></svg>
