<?xml version="1.0" encoding="UTF-8" standalone="no"?>
<!-- Created with Inkscape (http://www.inkscape.org/) -->

<svg
   width="50"
   height="50"
   viewBox="0 0 13.229166 13.229167"
   version="1.1"
   id="svg8528"
   inkscape:version="1.2.2 (b0a8486541, 2022-12-01)"
   sodipodi:docname="cloud-down.svg"
   xml:space="preserve"
   xmlns:inkscape="http://www.inkscape.org/namespaces/inkscape"
   xmlns:sodipodi="http://sodipodi.sourceforge.net/DTD/sodipodi-0.dtd"
   xmlns="http://www.w3.org/2000/svg"
   xmlns:svg="http://www.w3.org/2000/svg"><sodipodi:namedview
     id="namedview8530"
     pagecolor="#505050"
     bordercolor="#eeeeee"
     borderopacity="1"
     inkscape:showpageshadow="false"
     inkscape:pageopacity="0"
     inkscape:pagecheckerboard="0"
     inkscape:deskcolor="#505050"
     inkscape:document-units="mm"
     showgrid="false"
     inkscape:zoom="7.3192482"
     inkscape:cx="24.59269"
     inkscape:cy="24.661003"
     inkscape:window-width="1575"
     inkscape:window-height="1282"
     inkscape:window-x="26"
     inkscape:window-y="23"
     inkscape:window-maximized="0"
     inkscape:current-layer="g5976"
     showguides="true" /><defs
     id="defs8525" /><g
     inkscape:label="Ebene 1"
     inkscape:groupmode="layer"
     id="layer1"><g
       id="g5976"
       transform="matrix(0.63004102,0,0,0.63004102,-28.534777,-77.109542)"><g
         style="clip-rule:evenodd;fill:#919191;fill-opacity:1;fill-rule:evenodd;image-rendering:optimizeQuality;shape-rendering:geometricPrecision;text-rendering:geometricPrecision"
         id="g6170"
         transform="matrix(0.04019046,0,0,0.04051401,45.290237,126.16766)"><path
           d="m 271.14,2.64 c 50.45,8.83 86.48,38.5 110.54,83.1 l 4.51,-0.45 c 18.95,-1.39 38.61,1.62 56.18,8.84 34.63,14.2 55.57,42.42 64.44,77.79 6.76,26.89 7.34,56.62 -0.79,83.27 -12.47,41.01 -42.09,62.32 -81.01,75.68 l -0.42,0.13 c -8.15,2.76 -16.46,5.06 -24.56,6.93 -39.29,6.93 -249.08,3.73 -296.18,0.56 l -2.4,-0.26 C 93.43,337.16 85.5,335.46 77.91,333.08 42.57,322.07 17.4,298.05 5.78,262.57 -2.18,238.21 -1.78,211.97 6.15,187.64 12.83,167.18 22.45,153.31 35.78,142.79 51.54,130.34 73.4,122.1 92.97,116.58 115.68,34.94 187.54,-11.94 271.14,2.64 Z m 55.11,186.93 c 5.19,0.22 8.87,1.94 11,5.17 5.77,8.66 -2.11,17.21 -7.58,23.23 l -67.7,59.77 c -5.8,6.41 -14.06,6.41 -19.86,0 l -61.25,-61.4 c -5.11,-5.77 -11.43,-13.62 -6.12,-21.6 2.19,-3.23 5.83,-4.95 11.01,-5.17 h 34.9 v -55.43 c 0,-7.86 6.47,-14.37 14.36,-14.37 h 41.98 c 7.89,0 14.35,6.7 14.35,14.37 v 55.43 z"
           id="path6161"
           style="fill:#919191;fill-opacity:1" /></g></g></g><style
     type="text/css"
     id="style12387">.st0{fill-rule:evenodd;clip-rule:evenodd;}</style></svg>
