<?xml version="1.0" encoding="UTF-8" standalone="no"?>
<!-- Created with Inkscape (http://www.inkscape.org/) -->

<svg
   width="50"
   height="50"
   viewBox="0 0 13.229166 13.229167"
   version="1.1"
   id="svg8528"
   inkscape:version="1.2.2 (b0a8486541, 2022-12-01)"
   sodipodi:docname="database-error.svg"
   xml:space="preserve"
   xmlns:inkscape="http://www.inkscape.org/namespaces/inkscape"
   xmlns:sodipodi="http://sodipodi.sourceforge.net/DTD/sodipodi-0.dtd"
   xmlns="http://www.w3.org/2000/svg"
   xmlns:svg="http://www.w3.org/2000/svg"><sodipodi:namedview
     id="namedview8530"
     pagecolor="#505050"
     bordercolor="#eeeeee"
     borderopacity="1"
     inkscape:showpageshadow="false"
     inkscape:pageopacity="0"
     inkscape:pagecheckerboard="0"
     inkscape:deskcolor="#505050"
     inkscape:document-units="mm"
     showgrid="false"
     inkscape:zoom="10.35098"
     inkscape:cx="27.340406"
     inkscape:cy="21.39894"
     inkscape:window-width="1575"
     inkscape:window-height="1282"
     inkscape:window-x="26"
     inkscape:window-y="23"
     inkscape:window-maximized="0"
     inkscape:current-layer="g5976"
     showguides="true" /><defs
     id="defs8525" /><g
     inkscape:label="Ebene 1"
     inkscape:groupmode="layer"
     id="layer1"><g
       id="g5976"
       transform="matrix(0.63004102,0,0,0.63004102,-28.534777,-77.109542)"><path
         id="path9573"
         style="fill:#ee0000;fill-opacity:1;stroke-width:0.11497"
         d="m 60.303424,133.93665 c -2.609096,1.6e-4 -4.724428,2.11529 -4.724394,4.7244 1.57e-4,2.60895 2.115433,4.72423 4.724394,4.72439 2.609098,3e-5 4.72424,-2.1153 4.724396,-4.72439 3.3e-5,-2.60923 -2.115163,-4.72443 -4.724396,-4.7244 z m 0.01025,1.17449 c 0.602504,0 0.993842,0.43213 0.993842,1.10493 0,0.29121 -0.04021,0.50172 -0.241046,1.33519 -0.22092,0.97405 -0.281302,1.39576 -0.351594,2.35978 h -0.8229 c -0.09038,-0.9339 -0.180884,-1.53622 -0.351594,-2.29939 -0.200834,-0.90375 -0.241046,-1.16504 -0.241046,-1.49641 0,-0.56236 0.441955,-1.0041 1.014336,-1.0041 z m -0.03397,5.24209 c 0.0079,-2.1e-4 0.01573,0 0.02372,0 0.51213,0 0.92374,0.4116 0.92374,0.92373 0,0.51213 -0.421857,0.93399 -0.933986,0.93399 -0.51213,0 -0.923741,-0.42173 -0.923741,-0.95395 0,-0.48436 0.408991,-0.89119 0.910259,-0.90377 z" /><path
         id="path5391-2"
         style="fill:#919191;fill-opacity:1;stroke-width:0.535567"
         d="m 55.578211,122.38813 c -4.037188,0 -7.31215,1.57354 -7.31215,3.51131 0,1.93777 3.274962,3.51048 7.31215,3.51048 4.037178,0 7.312149,-1.57127 7.312149,-3.51048 0,-1.93777 -3.273569,-3.51131 -7.312149,-3.51131 z m -7.34824,4.72849 v 2.63205 c 0.830865,2.95732 6.402341,3.77015 10.443702,2.93716 a 6.1942066,6.1942066 0 0 1 0.454396,-0.10253 c 2.066227,-0.50539 3.640674,-1.46331 3.800021,-2.80183 v -2.6304 c -0.643487,4.36214 -13.669935,4.40663 -14.698119,-0.0345 z m 0,3.40141 v 2.69602 c 0.563042,2.05187 3.303181,3.09553 6.268846,3.28985 a 6.1942066,6.1942066 0 0 1 1.840546,-2.60088 c -3.653788,0.14282 -7.564795,-0.97645 -8.109392,-3.38499 z m 14.698119,0.0361 c -0.118897,0.82506 -0.660886,1.4996 -1.471452,2.02181 a 6.1942066,6.1942066 0 0 1 1.471452,0.4749 z m -14.662029,3.5802 v 2.69521 c 0.547374,1.99477 3.140034,2.98752 5.994896,3.166 a 6.1942066,6.1942066 0 0 1 -0.151736,-1.33449 6.1942066,6.1942066 0 0 1 0.145181,-1.30658 c -2.914739,-0.21692 -5.54759,-1.27087 -5.988335,-3.22014 z" /></g></g><style
     type="text/css"
     id="style12387">.st0{fill-rule:evenodd;clip-rule:evenodd;}</style></svg>
