<?xml version="1.0" encoding="UTF-8" standalone="no"?>
<!-- Created with Inkscape (http://www.inkscape.org/) -->

<svg
   width="50"
   height="50"
   viewBox="0 0 13.229166 13.229167"
   version="1.1"
   id="svg8528"
   inkscape:version="1.2.2 (b0a8486541, 2022-12-01)"
   sodipodi:docname="database-inprogress.svg"
   xml:space="preserve"
   xmlns:inkscape="http://www.inkscape.org/namespaces/inkscape"
   xmlns:sodipodi="http://sodipodi.sourceforge.net/DTD/sodipodi-0.dtd"
   xmlns="http://www.w3.org/2000/svg"
   xmlns:svg="http://www.w3.org/2000/svg"><sodipodi:namedview
     id="namedview8530"
     pagecolor="#505050"
     bordercolor="#eeeeee"
     borderopacity="1"
     inkscape:showpageshadow="false"
     inkscape:pageopacity="0"
     inkscape:pagecheckerboard="0"
     inkscape:deskcolor="#505050"
     inkscape:document-units="mm"
     showgrid="false"
     inkscape:zoom="10.35098"
     inkscape:cx="26.664142"
     inkscape:cy="28.934458"
     inkscape:window-width="1575"
     inkscape:window-height="1282"
     inkscape:window-x="26"
     inkscape:window-y="23"
     inkscape:window-maximized="0"
     inkscape:current-layer="g5976"
     showguides="true" /><defs
     id="defs8525" /><g
     inkscape:label="Ebene 1"
     inkscape:groupmode="layer"
     id="layer1"><g
       id="g5976"
       transform="matrix(0.63004102,0,0,0.63004102,-28.534777,-77.109542)"><g
         id="g5496"
         transform="matrix(1.5871983,0,0,1.5871783,-18.961423,-24.591195)"><path
           id="path5391"
           style="fill:#919191;fill-opacity:1;stroke-width:0.337429"
           d="m 46.963025,92.604167 c -2.543594,0 -4.606954,0.991392 -4.606954,2.212268 0,1.220879 2.06336,2.211751 4.606954,2.211751 2.543588,0 4.606954,-0.98997 4.606954,-2.211751 0,-1.220876 -2.062483,-2.212268 -4.606954,-2.212268 z m -4.629692,2.979146 v 1.658297 c 0.523479,1.863231 4.033737,2.375348 6.57996,1.850533 a 3.9026041,3.9026041 0 0 1 0.286288,-0.0646 c 1.301808,-0.318416 2.293774,-0.921945 2.394169,-1.765267 v -1.657263 c -0.405423,2.74833 -8.612619,2.776361 -9.260417,-0.0217 z m 0,2.143022 v 1.698604 c 0.354739,1.292761 2.081139,1.950311 3.94963,2.072741 a 3.9026041,3.9026041 0 0 1 1.159619,-1.638659 c -2.302036,0.08998 -4.766131,-0.615202 -5.109249,-2.132686 z m 9.260417,0.02274 c -0.07491,0.519825 -0.416385,0.944812 -0.927075,1.273824 a 3.9026041,3.9026041 0 0 1 0.927075,0.299207 z m -9.237679,2.255675 v 1.69809 c 0.344868,1.25679 1.97835,1.88226 3.77703,1.99471 a 3.9026041,3.9026041 0 0 1 -0.0956,-0.84078 3.9026041,3.9026041 0 0 1 0.09147,-0.8232 c -1.836405,-0.13667 -3.495209,-0.8007 -3.772896,-2.02882 z" /><g
           id="g15174-0-2-76"
           transform="matrix(0.6268227,0,0,0.62674163,37.534231,-0.085369)"
           style="fill:#2c80ca;fill-opacity:1"><path
             class="cls-1"
             d="m 20.37957,162.02353 a 2.2885742,2.2896928 0 0 1 0.556152,0.25208 l 0.299316,-0.30092 a 0.37109372,0.3712751 0 0 1 0.523436,0 l 0.30664,0.30824 a 0.37109372,0.3712751 0 0 1 0,0.52369 l -0.322264,0.32243 a 2.2753906,2.2765026 0 0 1 0.211914,0.53395 h 0.464844 a 0.37109372,0.3712751 0 0 1 0.37207,0.37128 v 0.43479 a 0.37109372,0.3712751 0 0 1 -0.370116,0.37029 h -0.46924 a 2.286621,2.2877386 0 0 1 -0.213378,0.52809 l 0.32617,0.3278 a 0.37109372,0.3712751 0 0 1 0,0.52369 l -0.30615,0.30678 a 0.37158204,0.37176366 0 0 1 -0.523926,0 l -0.30957,-0.3102 a 2.305664,2.3067908 0 0 1 -0.546388,0.24426 v 0.41964 a 0.37109372,0.3712751 0 0 1 -0.370116,0.3703 H 19.57488 a 0.37109372,0.3712751 0 0 1 -0.370116,-0.3703 v -0.37909 a 2.3139648,2.3150957 0 0 1 -0.603028,-0.22862 l -0.253904,0.25401 a 0.37207032,0.37225218 0 0 1 -0.52344,0 l -0.308104,-0.30824 a 0.37158204,0.37176366 0 0 1 0,-0.52369 l 0.230466,-0.23058 a 2.3134765,2.3146072 0 0 1 -0.271482,-0.62385 h -0.313476 a 0.37109372,0.3712751 0 0 1 -0.370118,-0.37029 v -0.43479 a 0.37109372,0.3712751 0 0 1 0.370118,-0.37128 h 0.31006 a 2.3046875,2.3058138 0 0 1 0.26904,-0.63213 l -0.224608,-0.22425 a 0.37207032,0.37225218 0 0 1 0,-0.52369 l 0.308104,-0.30824 a 0.37109372,0.3712751 0 0 1 0.52344,0 l 0.24414,0.24426 a 2.2753906,2.2765026 0 0 1 0.611816,-0.23645 v -0.36248 a 0.37109372,0.3712751 0 0 1 0.371092,-0.3703 h 0.434574 a 0.37109372,0.3712751 0 0 1 0.370116,0.3703 z m -0.66504,1.01808 a 1.2011719,1.2017588 0 1 1 -1.201174,1.20127 1.2006836,1.2012704 0 0 1 1.201174,-1.20127 z"
             id="path13936-7-3-28-5"
             style="fill:#2c80ca;fill-opacity:1;fill-rule:evenodd;stroke-width:0.0488401" /><g
             id="g14938-0-9-6"
             style="fill:#2c80ca;fill-opacity:1"
             transform="matrix(0.23097735,0.23097735,-0.23097735,0.23097735,84.126409,130.79058)"><path
               d="m -64.131071,197.40736 c 3.328459,0.62707 6.257396,2.38919 8.368771,4.87098 2.161646,2.54 3.466042,5.82877 3.466042,9.41652 0,3.15648 -1.005417,6.07748 -2.714625,8.46138 -1.754188,2.4474 -4.249209,4.32594 -7.159625,5.31283 l -0.301625,-0.889 -0.301625,-0.889 c 0.07408,-0.0238 0.148166,-0.0503 0.219604,-0.0767 2.436812,-0.87577 4.527021,-2.48179 6.011333,-4.55083 1.486959,-2.07433 2.362729,-4.61698 2.362729,-7.366 0,-3.13267 -1.132416,-5.99811 -3.010958,-8.20473 -1.764771,-2.07433 -4.185708,-3.56923 -6.942667,-4.16983 v 1.92881 l -3.540125,-2.91042 3.542771,-2.90777 z"
               id="path14932-9-7-9"
               style="fill:#2c80ca;fill-opacity:1" /><path
               d="m -69.5418,225.98501 c -3.360209,-0.63235 -6.312959,-2.42358 -8.426979,-4.93977 -2.129896,-2.53206 -3.41048,-5.79438 -3.41048,-9.35038 0,-3.34168 1.129771,-6.42408 3.032125,-8.88206 1.939396,-2.51089 4.683125,-4.37092 7.847542,-5.19112 l 0.470959,1.81504 c -2.754313,0.71437 -5.143501,2.33362 -6.834188,4.52173 -1.651,2.13783 -2.632604,4.82071 -2.632604,7.73641 0,3.10357 1.113896,5.94519 2.960687,8.14388 1.767417,2.10344 4.209521,3.62479 6.995584,4.22804 v -1.93939 l 3.542771,2.90777 -3.542771,2.90777 z"
               id="path14930-2-3-3"
               style="fill:#2c80ca;fill-opacity:1" /></g></g></g></g></g><style
     type="text/css"
     id="style12387">.st0{fill-rule:evenodd;clip-rule:evenodd;}</style></svg>
