<?xml version="1.0" encoding="UTF-8" standalone="no"?>
<!-- Created with Inkscape (http://www.inkscape.org/) -->

<svg
   width="50"
   height="50"
   viewBox="0 0 13.229166 13.229167"
   version="1.1"
   id="svg8528"
   inkscape:version="1.2.2 (b0a8486541, 2022-12-01)"
   sodipodi:docname="database-scheduled.svg"
   xml:space="preserve"
   xmlns:inkscape="http://www.inkscape.org/namespaces/inkscape"
   xmlns:sodipodi="http://sodipodi.sourceforge.net/DTD/sodipodi-0.dtd"
   xmlns="http://www.w3.org/2000/svg"
   xmlns:svg="http://www.w3.org/2000/svg"><sodipodi:namedview
     id="namedview8530"
     pagecolor="#505050"
     bordercolor="#eeeeee"
     borderopacity="1"
     inkscape:showpageshadow="false"
     inkscape:pageopacity="0"
     inkscape:pagecheckerboard="0"
     inkscape:deskcolor="#505050"
     inkscape:document-units="mm"
     showgrid="false"
     inkscape:zoom="10.35098"
     inkscape:cx="32.653913"
     inkscape:cy="39.658081"
     inkscape:window-width="1575"
     inkscape:window-height="1282"
     inkscape:window-x="26"
     inkscape:window-y="23"
     inkscape:window-maximized="0"
     inkscape:current-layer="g5976"
     showguides="true" /><defs
     id="defs8525" /><g
     inkscape:label="Ebene 1"
     inkscape:groupmode="layer"
     id="layer1"><g
       id="g5976"
       transform="matrix(0.63004102,0,0,0.63004102,-28.534777,-77.109542)"><g
         id="g7208"
         transform="matrix(1.5871983,0,0,1.5871983,-48.357659,-24.593047)"><path
           id="path17617-2-4-6-2-6"
           style="fill:#2c80ca;fill-opacity:1;stroke-width:0.107613"
           d="m 68.462038,99.88021 a 2.9722579,2.9722579 0 0 0 -2.105815,0.87178 2.9765625,2.9765625 0 1 0 2.105815,-0.87178 z m -0.0026,0.66145 a 2.3151042,2.3151042 0 0 1 1.637108,0.67697 2.3058684,2.3058684 0 0 1 0.67903,1.64176 2.3151042,2.3151042 0 1 1 -2.316138,-2.31873 z m -0.0052,0.45734 c -0.183224,0 -0.33073,0.14751 -0.33073,0.33073 v 1.55288 c 0,0.11998 0.06302,0.22419 0.15813,0.28215 0.0047,0.003 0.0096,0.006 0.01447,0.009 h 5.16e-4 c 0.0014,7.6e-4 0.0027,0.002 0.0041,0.003 l 0.817521,0.45785 c 0.15986,0.0895 0.361091,0.0327 0.450621,-0.12712 0.0895,-0.15986 0.0327,-0.36057 -0.12713,-0.4501 l -0.656804,-0.36794 v -1.35909 c 0,-0.18322 -0.147507,-0.33073 -0.33073,-0.33073 z" /><path
           id="path5391-2"
           style="fill:#919191;fill-opacity:1;stroke-width:0.337429"
           d="m 65.483859,92.604167 c -2.543594,0 -4.606954,0.991392 -4.606954,2.212268 0,1.220879 2.06336,2.211751 4.606954,2.211751 2.543588,0 4.606954,-0.98997 4.606954,-2.211751 0,-1.220876 -2.062483,-2.212268 -4.606954,-2.212268 z m -4.629692,2.979146 v 1.658297 c 0.523479,1.863231 4.033737,2.375348 6.57996,1.850533 a 3.9026041,3.9026041 0 0 1 0.286288,-0.0646 c 1.301808,-0.318416 2.293774,-0.921945 2.394169,-1.765267 v -1.657263 c -0.405423,2.74833 -8.612619,2.776361 -9.260417,-0.0217 z m 0,2.143022 v 1.698604 c 0.354739,1.292761 2.081139,1.950311 3.94963,2.072741 a 3.9026041,3.9026041 0 0 1 1.159619,-1.638659 c -2.302036,0.08998 -4.766131,-0.615202 -5.109249,-2.132686 z m 9.260417,0.02274 c -0.07491,0.519825 -0.416385,0.944812 -0.927075,1.273824 a 3.9026041,3.9026041 0 0 1 0.927075,0.299207 z m -9.237679,2.255675 v 1.69809 c 0.344868,1.25679 1.97835,1.88226 3.77703,1.99471 a 3.9026041,3.9026041 0 0 1 -0.0956,-0.84078 3.9026041,3.9026041 0 0 1 0.09147,-0.8232 c -1.836405,-0.13667 -3.495209,-0.8007 -3.772896,-2.02882 z" /></g></g></g><style
     type="text/css"
     id="style12387">.st0{fill-rule:evenodd;clip-rule:evenodd;}</style></svg>
