<?xml version="1.0" encoding="UTF-8" standalone="no"?>
<!-- Created with Inkscape (http://www.inkscape.org/) -->

<svg
   width="50"
   height="50"
   viewBox="0 0 13.229166 13.229167"
   version="1.1"
   id="svg8528"
   inkscape:version="1.2.2 (b0a8486541, 2022-12-01)"
   sodipodi:docname="database-download.svg"
   xml:space="preserve"
   xmlns:inkscape="http://www.inkscape.org/namespaces/inkscape"
   xmlns:sodipodi="http://sodipodi.sourceforge.net/DTD/sodipodi-0.dtd"
   xmlns="http://www.w3.org/2000/svg"
   xmlns:svg="http://www.w3.org/2000/svg"><sodipodi:namedview
     id="namedview8530"
     pagecolor="#505050"
     bordercolor="#eeeeee"
     borderopacity="1"
     inkscape:showpageshadow="false"
     inkscape:pageopacity="0"
     inkscape:pagecheckerboard="0"
     inkscape:deskcolor="#505050"
     inkscape:document-units="mm"
     showgrid="false"
     inkscape:zoom="10.35098"
     inkscape:cx="20.674371"
     inkscape:cy="32.702218"
     inkscape:window-width="1575"
     inkscape:window-height="1282"
     inkscape:window-x="26"
     inkscape:window-y="23"
     inkscape:window-maximized="0"
     inkscape:current-layer="g5976"
     showguides="true" /><defs
     id="defs8525" /><g
     inkscape:label="Ebene 1"
     inkscape:groupmode="layer"
     id="layer1"><g
       id="g5976"
       transform="matrix(0.63004102,0,0,0.63004102,-28.534777,-77.109542)"><g
         id="g16437"
         transform="matrix(1.5871983,0,0,1.5871983,-136.54621,-24.593044)"><path
           id="path5427-5-4"
           style="fill:#919191;fill-opacity:1;stroke-width:0.337429"
           d="m 121.04636,92.604165 c -2.5436,0 -4.60696,0.991393 -4.60696,2.212268 0,1.220879 2.06336,2.211752 4.60696,2.211752 2.54358,0 4.60695,-0.989971 4.60695,-2.211752 0,-1.220875 -2.06249,-2.212268 -4.60695,-2.212268 z m -4.62969,2.979147 v 1.658296 c 0.46528,1.656103 3.29011,2.244499 5.70042,1.986442 5e-4,-0.08812 10e-4,-0.175771 0.003,-0.262516 v -0.504362 c 0.87531,-6e-6 1.75089,-2e-6 2.6262,0 0.52755,-0.316409 0.87354,-0.718803 0.93069,-1.198893 v -1.657263 c -0.40542,2.74833 -8.61263,2.776357 -9.26041,-0.0217 z m 0,2.143021 v 1.698605 c 0.42781,1.559092 2.85073,2.194222 5.11183,2.081012 0.17959,-0.0631 0.37075,-0.0957 0.56379,-0.0889 0.0411,-0.50161 0.0329,-1.05184 0.0274,-1.599382 -2.45259,0.247712 -5.33013,-0.442185 -5.70301,-2.091345 z m 9.26041,0.02274 c -0.0377,0.261454 -0.14272,0.498831 -0.30282,0.712101 h 0.30282 z m -9.23768,2.255677 v 1.69808 c 0.3803,1.38591 2.3273,2.00426 4.33514,2.01332 -0.0701,-0.11345 -0.1328,-0.23275 -0.18552,-0.35915 -0.21216,-0.46499 -0.10537,-0.93612 0.17208,-1.29811 -2.04373,-0.0359 -4.01655,-0.70457 -4.3217,-2.05414 z" /><path
           id="path5774-6-1-4"
           style="fill:#2c80ca;stroke-width:0.282935"
           d="m 123.0913,99.263199 v 0.34587 h 2.58214 v -0.34587 z m 0,0.6976 v 0.706921 h 2.58214 v -0.706921 z m -0.004,1.039411 v 1.38759 h -1.18401 c -0.19862,0.008 -0.33964,0.074 -0.42112,0.19774 -0.20375,0.30549 0.023,0.61985 0.23331,0.8259 l 2.28409,2.23803 c 0.22185,0.24507 0.53758,0.24507 0.75942,0 l 2.22752,-2.17503 c 0.22262,-0.21736 0.5107,-0.55788 0.28988,-0.8889 -0.0816,-0.12384 -0.22204,-0.1887 -0.42053,-0.19774 h -1.18462 v -1.38759 z" /></g></g></g><style
     type="text/css"
     id="style12387">.st0{fill-rule:evenodd;clip-rule:evenodd;}</style></svg>
