<?xml version="1.0" encoding="UTF-8" standalone="no"?>
<!-- Created with Inkscape (http://www.inkscape.org/) -->

<svg
   width="50"
   height="50"
   viewBox="0 0 13.229166 13.229167"
   version="1.1"
   id="svg8528"
   inkscape:version="1.2.2 (b0a8486541, 2022-12-01)"
   sodipodi:docname="database-search.svg"
   xml:space="preserve"
   xmlns:inkscape="http://www.inkscape.org/namespaces/inkscape"
   xmlns:sodipodi="http://sodipodi.sourceforge.net/DTD/sodipodi-0.dtd"
   xmlns="http://www.w3.org/2000/svg"
   xmlns:svg="http://www.w3.org/2000/svg"><sodipodi:namedview
     id="namedview8530"
     pagecolor="#505050"
     bordercolor="#eeeeee"
     borderopacity="1"
     inkscape:showpageshadow="false"
     inkscape:pageopacity="0"
     inkscape:pagecheckerboard="0"
     inkscape:deskcolor="#505050"
     inkscape:document-units="mm"
     showgrid="false"
     inkscape:zoom="10.35098"
     inkscape:cx="26.567533"
     inkscape:cy="32.702218"
     inkscape:window-width="1575"
     inkscape:window-height="1282"
     inkscape:window-x="26"
     inkscape:window-y="23"
     inkscape:window-maximized="0"
     inkscape:current-layer="g5976"
     showguides="true" /><defs
     id="defs8525" /><g
     inkscape:label="Ebene 1"
     inkscape:groupmode="layer"
     id="layer1"><g
       id="g5976"
       transform="matrix(0.63004102,0,0,0.63004102,-28.534777,-77.109542)"><g
         id="g8126"
         transform="matrix(1.5871983,0,0,1.5871983,-77.753892,-24.593044)"><path
           id="path5427"
           style="fill:#919191;fill-opacity:1;stroke-width:0.337429"
           d="m 84.00469,92.604165 c -2.543593,0 -4.606953,0.991393 -4.606953,2.212268 0,1.220879 2.06336,2.211752 4.606953,2.211752 2.543589,0 4.606954,-0.989971 4.606954,-2.211752 0,-1.220875 -2.062482,-2.212268 -4.606954,-2.212268 z m -4.629691,2.979147 v 1.658296 c 0.40928,1.456762 2.644623,2.087605 4.817277,2.04277 a 3.9026041,3.9026041 0 0 1 2.783809,-1.169438 3.9026041,3.9026041 0 0 1 1.030945,0.139526 c 0.355638,-0.279045 0.583021,-0.611126 0.628385,-0.992187 v -1.657263 c -0.405422,2.74833 -8.61262,2.776361 -9.260416,-0.0217 z m 0,2.143021 v 1.698605 c 0.341339,1.243932 1.952889,1.899352 3.73879,2.056202 a 3.9026041,3.9026041 0 0 1 0.613399,-1.621087 c -2.057891,-0.07481 -4.046541,-0.781948 -4.352189,-2.13372 z m 9.260416,0.02274 c -0.03309,0.229632 -0.118328,0.440565 -0.247013,0.633036 a 3.9026041,3.9026041 0 0 1 0.247013,0.103353 z m -9.237678,2.255677 v 1.69808 c 0.363155,1.32344 2.155158,1.94672 4.064351,2.00815 a 3.9026041,3.9026041 0 0 1 -0.38809,-1.68517 c -1.797699,-0.15246 -3.403445,-0.81449 -3.676261,-2.02106 z" /><path
           id="path6698-1-5-9"
           style="fill:#2c80ca;stroke-width:0.522488"
           d="m 86.987711,99.047083 c -0.819054,0 -1.557132,0.33033 -2.093412,0.86662 -0.534619,0.536807 -0.867131,1.277597 -0.867131,2.094437 0,0.21839 0.02362,0.431 0.06821,0.63562 a 2.9765625,2.9765625 0 0 0 0.0052,0.0238 c 0.106829,0.47139 0.325973,0.8993 0.628385,1.25574 a 2.9765625,2.9765625 0 0 0 0.07338,0.0837 c 0.02969,0.0324 0.06037,0.0645 0.09147,0.0956 0.278935,0.2775 0.612809,0.50027 0.983919,0.6506 a 2.9765625,2.9765625 0 0 0 0.195337,0.0713 c 0.288304,0.0937 0.595507,0.14469 0.914673,0.14469 0.09865,0 0.196286,-0.006 0.292489,-0.015 a 2.9765625,2.9765625 0 0 0 0.286287,-0.0419 c 0.386205,-0.0765 0.745732,-0.22779 1.061951,-0.43874 l 1.2361,1.35961 0.884184,-0.8077 -1.282093,-1.39682 c 0.05045,-0.077 0.09729,-0.15683 0.14056,-0.23874 a 2.9765625,2.9765625 0 0 0 0.132292,-0.28784 c 0.134553,-0.33847 0.20929,-0.70802 0.20929,-1.09399 0,-0.0201 -6.4e-4,-0.04 -0.001,-0.0599 a 2.9765625,2.9765625 0 0 0 -0.0155,-0.25787 c -0.04602,-0.4332 -0.185369,-0.83826 -0.397392,-1.19476 a 2.9765625,2.9765625 0 0 0 -0.08527,-0.13436 c -0.107764,-0.16081 -0.230889,-0.31085 -0.367419,-0.447507 -0.18491,-0.18397 -0.394112,-0.34359 -0.622184,-0.47439 a 2.9765625,2.9765625 0 0 0 -0.0646,-0.0367 c -0.414027,-0.22392 -0.88728,-0.35252 -1.389579,-0.35554 -0.0019,-1e-5 -0.0038,1e-5 -0.0057,0 -0.0041,-2e-5 -0.0083,0 -0.0124,0 z m 0.01447,0.66146 a 2.3151042,2.3151042 0 0 1 1.63711,0.676957 2.3058684,2.3058684 0 0 1 0.679028,1.64176 2.3151042,2.3151042 0 1 1 -2.316138,-2.318717 z" /></g></g></g><style
     type="text/css"
     id="style12387">.st0{fill-rule:evenodd;clip-rule:evenodd;}</style></svg>
