<?xml version="1.0" encoding="UTF-8" standalone="no"?>
<!-- Created with Inkscape (http://www.inkscape.org/) -->

<svg
   width="50"
   height="50"
   viewBox="0 0 13.229166 13.229167"
   version="1.1"
   id="svg8528"
   inkscape:version="1.2.2 (b0a8486541, 2022-12-01)"
   sodipodi:docname="database-maintenance.svg"
   xml:space="preserve"
   xmlns:inkscape="http://www.inkscape.org/namespaces/inkscape"
   xmlns:sodipodi="http://sodipodi.sourceforge.net/DTD/sodipodi-0.dtd"
   xmlns="http://www.w3.org/2000/svg"
   xmlns:svg="http://www.w3.org/2000/svg"><sodipodi:namedview
     id="namedview8530"
     pagecolor="#505050"
     bordercolor="#eeeeee"
     borderopacity="1"
     inkscape:showpageshadow="false"
     inkscape:pageopacity="0"
     inkscape:pagecheckerboard="0"
     inkscape:deskcolor="#505050"
     inkscape:document-units="mm"
     showgrid="false"
     inkscape:zoom="10.35098"
     inkscape:cx="32.653913"
     inkscape:cy="39.658081"
     inkscape:window-width="1575"
     inkscape:window-height="1282"
     inkscape:window-x="26"
     inkscape:window-y="23"
     inkscape:window-maximized="0"
     inkscape:current-layer="g5976"
     showguides="true" /><defs
     id="defs8525" /><g
     inkscape:label="Ebene 1"
     inkscape:groupmode="layer"
     id="layer1"><g
       id="g5976"
       transform="matrix(0.63004102,0,0,0.63004102,-28.534777,-77.109542)"><g
         id="g2473"
         transform="matrix(1.5871983,0,0,1.5871983,10.434801,10.682436)"><path
           id="path3593-9"
           style="fill:#919191;fill-opacity:1;stroke-width:0.334624"
           d="m 28.442297,71.4375 c -2.543562,0 -4.606839,0.974721 -4.606839,2.175384 0,0.776666 0.863983,1.458309 2.162206,1.843218 a 3.1279891,3.1564986 0 0 1 1.291969,-0.285606 3.1279891,3.1564986 0 0 1 1.821279,0.594639 c 2.226844,-0.152965 3.938218,-1.057989 3.938218,-2.152251 0,-1.200663 -2.06238,-2.175384 -4.606833,-2.175384 z m -4.629758,2.929576 v 1.631164 c 0.107067,0.374797 0.339259,0.694033 0.662443,0.960315 a 3.1279891,3.1564986 0 0 1 0.87023,-1.101485 c -0.799379,-0.341355 -1.37901,-0.83723 -1.532673,-1.489994 z m 9.260399,0.02135 c -0.165267,1.101772 -1.626971,1.758881 -3.344549,1.964513 a 3.1279891,3.1564986 0 0 1 0.645401,1.468942 c 1.44943,-0.29045 2.591044,-0.910128 2.699148,-1.803182 z m -9.260399,2.086703 v 1.670017 c 0.07525,0.269714 0.212421,0.511284 0.399408,0.72572 a 3.1279891,3.1564986 0 0 1 -0.05027,-0.543915 3.1279891,3.1564986 0 0 1 0.158999,-0.984632 c -0.255437,-0.250766 -0.432859,-0.539695 -0.508153,-0.86719 z m 9.260399,0.02227 c -0.142694,0.973843 -1.252398,1.608001 -2.658297,1.898673 a 3.1279891,3.1564986 0 0 1 -0.0012,0.0175 1.8199209,1.8365082 0 0 1 0.354145,-0.03615 1.8199209,1.8365082 0 0 1 1.551187,0.880829 c 0.427346,-0.299281 0.703361,-0.665401 0.753845,-1.092585 z m -0.02292,2.069504 c -0.05636,0.385597 -0.263473,0.721334 -0.579855,1.005981 a 1.8199209,1.8365082 0 0 1 0.117554,0.640901 1.8199209,1.8365082 0 0 1 -0.461416,1.220704 h 0.03674 c 0.502758,-0.324625 0.831425,-0.727584 0.886978,-1.19905 z m -9.214554,0.148584 V 80.3855 c 0.117116,0.41974 0.382956,0.767833 0.753263,1.048984 h 2.163375 a 3.1279891,3.1564986 0 0 1 -2.274757,-1.736745 c -0.327042,-0.272526 -0.55388,-0.599523 -0.641879,-0.982257 z" /><path
           style="clip-rule:evenodd;fill:#2c80ca;fill-opacity:1;stroke-width:0.0183618;image-rendering:optimizeQuality;shape-rendering:geometricPrecision;text-rendering:geometricPrecision"
           d="m 27.740599,77.392768 c 0.1289,0.05545 0.240723,0.130552 0.334185,0.224014 0.09346,0.09346 0.168744,0.205284 0.224197,0.334184 l 0.0039,0.0101 a 1.057638,1.057638 0 0 1 0.07859,0.400286 c 0,0.139183 -0.02754,0.279283 -0.08244,0.409468 l -3.67e-4,9.18e-4 c -0.0549,0.128532 -0.130185,0.239988 -0.22383,0.333817 l -3.68e-4,3.67e-4 c -0.09383,0.09383 -0.205468,0.168929 -0.333817,0.224197 l -0.0099,0.0039 a 1.0578583,1.0578583 0 0 1 -0.40047,0.07859 c -0.139182,0 -0.279283,-0.02754 -0.409468,-0.08245 l -7.34e-4,-1.83e-4 c -0.129083,-0.05545 -0.240907,-0.130552 -0.334368,-0.224014 -0.09346,-0.09346 -0.168561,-0.205101 -0.224197,-0.334 l -0.0039,-0.0101 a 1.0578583,1.0578583 0 0 1 -0.07859,-0.400471 c 0,-0.139182 0.02754,-0.279282 0.08244,-0.409467 l 3.67e-4,-7.34e-4 c 0.05508,-0.128533 0.130185,-0.240172 0.22383,-0.333817 l 3.67e-4,-5.51e-4 c 0.09383,-0.09364 0.205468,-0.168745 0.333817,-0.224198 l 0.0101,-0.0039 c 0.127431,-0.05233 0.26441,-0.07859 0.400287,-0.07859 0.139182,0 0.279282,0.02754 0.409467,0.08244 z m 0.166358,0.39184 c -0.07234,-0.07235 -0.159197,-0.130736 -0.260003,-0.174069 -0.09897,-0.04205 -0.207488,-0.06298 -0.31674,-0.06298 -0.106682,0 -0.212446,0.02001 -0.309763,0.05968 l -0.007,0.0033 c -0.101173,0.04352 -0.188208,0.101908 -0.260186,0.173886 -0.07198,0.07198 -0.130369,0.159013 -0.173886,0.260186 -0.04205,0.09915 -0.06298,0.207488 -0.06298,0.31674 0,0.106682 0.02001,0.21263 0.05968,0.309947 l 0.0033,0.007 c 0.04333,0.100622 0.101724,0.187473 0.17407,0.259819 0.07235,0.07234 0.15938,0.130735 0.260002,0.174253 0.09897,0.04187 0.207488,0.0628 0.316741,0.0628 0.106682,0 0.212446,-0.01983 0.309763,-0.05968 l 0.007,-0.0031 c 0.101174,-0.0437 0.188208,-0.101908 0.26037,-0.173886 0.07198,-0.07216 0.130185,-0.159197 0.173703,-0.260186 0.04205,-0.09915 0.06298,-0.207672 0.06298,-0.316925 0,-0.106681 -0.02001,-0.212445 -0.05967,-0.309763 l -0.0033,-0.007 c -0.04333,-0.100623 -0.101725,-0.187657 -0.17407,-0.260003 z"
           id="path2454" /><path
           style="clip-rule:evenodd;fill:#2c80ca;fill-opacity:1;stroke-width:0.0183618;image-rendering:optimizeQuality;shape-rendering:geometricPrecision;text-rendering:geometricPrecision"
           d="m 31.496132,79.139707 c -0.0292,-0.02057 -0.06059,-0.02773 -0.09456,-0.02185 -0.03379,0.0059 -0.06133,0.02332 -0.08153,0.0527 L 31.20932,79.32755 c -0.04003,-0.01689 -0.08171,-0.03066 -0.124676,-0.04186 -0.04278,-0.0112 -0.0863,-0.01983 -0.129818,-0.02626 l -0.0358,-0.205652 c -0.0061,-0.0347 -0.02295,-0.06188 -0.05123,-0.08171 -0.02828,-0.02001 -0.05967,-0.02663 -0.09438,-0.02075 l -0.258167,0.04517 c -0.03305,0.0057 -0.05967,0.02258 -0.08042,0.05105 -0.02038,0.02846 -0.02754,0.05968 -0.02148,0.09438 l 0.03287,0.188392 a 0.92194447,0.92194447 0 0 0 -0.118617,0.06041 0.95161709,0.95161709 0 0 0 -0.106131,0.07345 l -0.174069,-0.120453 c -0.02773,-0.02056 -0.05821,-0.02828 -0.09236,-0.0224 -0.03397,0.0059 -0.06096,0.02369 -0.08171,0.0527 l -0.148914,0.212629 c -0.02075,0.02938 -0.02791,0.06059 -0.02203,0.09456 0.0059,0.03378 0.02332,0.06133 0.0527,0.08153 l 0.156993,0.110721 c -0.01689,0.04003 -0.03066,0.08171 -0.04187,0.124677 -0.0112,0.04297 -0.01983,0.0863 -0.02626,0.129817 l -0.205652,0.03581 c -0.0347,0.0061 -0.06188,0.02295 -0.08171,0.05123 -0.02001,0.02846 -0.02662,0.05968 -0.02075,0.09438 l 0.04517,0.258166 c 0.0057,0.03305 0.02258,0.05968 0.05104,0.08042 0.02846,0.02038 0.05968,0.02754 0.09438,0.02148 l 0.188392,-0.03287 a 0.92194447,0.92194447 0 0 0 0.06041,0.118617 c 0.02277,0.03783 0.04737,0.07418 0.07381,0.108702 l -0.121004,0.171683 c -0.02038,0.02754 -0.02809,0.05802 -0.02222,0.09236 0.0061,0.03379 0.02369,0.06078 0.0527,0.08153 l 0.212996,0.151668 c 0.0292,0.01891 0.06023,0.02515 0.0942,0.01928 0.03379,-0.0059 0.06151,-0.0224 0.08189,-0.05013 l 0.110355,-0.159564 c 0.04003,0.01708 0.08171,0.03066 0.124676,0.04187 0.04297,0.01138 0.0863,0.01983 0.129818,0.02626 l 0.0358,0.205652 c 0.0061,0.0347 0.02295,0.06188 0.05141,0.08171 0.02828,0.02001 0.05949,0.02681 0.0942,0.02075 l 0.258167,-0.04499 c 0.03305,-0.0059 0.05967,-0.02277 0.08042,-0.05123 0.02038,-0.02846 0.02754,-0.05968 0.02148,-0.09438 l -0.03287,-0.188392 a 0.92194447,0.92194447 0 0 0 0.118617,-0.06041 c 0.03783,-0.02277 0.07418,-0.04737 0.108702,-0.07382 l 0.171682,0.121005 c 0.02754,0.02038 0.05857,0.02809 0.09328,0.02203 0.03507,-0.0061 0.06151,-0.02387 0.08061,-0.05233 l 0.151668,-0.213181 c 0.01891,-0.02901 0.02516,-0.06023 0.01928,-0.09419 -0.0059,-0.03379 -0.02258,-0.06133 -0.04994,-0.08189 l -0.159747,-0.110354 c 0.01708,-0.04003 0.03066,-0.08171 0.04187,-0.124677 0.01138,-0.04297 0.01983,-0.0863 0.02626,-0.129634 l 0.205652,-0.03599 c 0.0347,-0.0061 0.06188,-0.02295 0.08171,-0.05123 0.02001,-0.02846 0.02681,-0.05968 0.02075,-0.09438 l -0.04517,-0.258166 c -0.0057,-0.03287 -0.02258,-0.05968 -0.05105,-0.08043 -0.02846,-0.02038 -0.05968,-0.02754 -0.09438,-0.02148 l -0.188391,0.03287 c -0.01726,-0.03984 -0.03728,-0.07896 -0.06004,-0.117332 a 0.93650536,0.93650536 0 0 0 -0.07381,-0.107416 l 0.120637,-0.17407 c 0.02038,-0.02754 0.02828,-0.05821 0.02222,-0.09254 -0.0059,-0.03379 -0.02369,-0.06078 -0.0527,-0.08153 z m -0.737776,0.677366 c 0.05931,-0.01028 0.117148,-0.0088 0.174253,0.0042 0.05674,0.01359 0.108151,0.03636 0.153872,0.06812 0.04554,0.03232 0.08428,0.0729 0.11623,0.121739 0.03177,0.04921 0.0527,0.103376 0.06298,0.162685 0.01028,0.05931 0.009,0.117148 -0.0042,0.174253 -0.01359,0.05674 -0.03617,0.107967 -0.06812,0.153872 -0.03232,0.04554 -0.0729,0.08428 -0.121739,0.11623 a 0.43502705,0.43502705 0 0 1 -0.162502,0.06298 c -0.05931,0.01028 -0.117331,0.009 -0.174436,-0.0042 -0.05674,-0.01359 -0.107968,-0.03636 -0.153872,-0.06812 -0.04554,-0.03232 -0.08428,-0.0729 -0.11623,-0.121738 -0.03158,-0.04921 -0.05251,-0.103377 -0.06298,-0.162686 -0.01028,-0.05913 -0.009,-0.117148 0.0042,-0.174253 0.01359,-0.05674 0.03636,-0.107967 0.06831,-0.153872 0.03213,-0.04554 0.07271,-0.08428 0.121555,-0.11623 0.04921,-0.03158 0.103377,-0.0527 0.162685,-0.06298 z"
           id="path2452" /><path
           style="clip-rule:evenodd;fill:#2c80ca;fill-opacity:1;stroke-width:0.0182121;image-rendering:optimizeQuality;shape-rendering:geometricPrecision;text-rendering:geometricPrecision"
           d="m 24.533818,82.685231 h 3.643934 c 0.341297,0 0.338222,0.523556 0,0.523556 h -3.643934 c -0.340934,0 -0.338583,-0.523556 0,-0.523556 z m -0.0765,-0.399772 h 7.970822 c 0.309825,0 0.508055,0.172378 0.595053,0.392987 0.03329,0.08436 0.04975,0.175863 0.04975,0.267187 0,0.09132 -0.01683,0.183016 -0.0501,0.267187 l -0.0022,0.0051 c -0.08862,0.219507 -0.286674,0.39042 -0.592521,0.39042 H 24.4573 c -0.309645,0 -0.507876,-0.17238 -0.595053,-0.393172 -0.03329,-0.08417 -0.04974,-0.175863 -0.04974,-0.267187 0,-0.09114 0.01683,-0.182464 0.04992,-0.26682 0.08754,-0.222259 0.286133,-0.395738 0.594873,-0.395738 z m 7.970822,0.17788 h -7.970822 c -0.225542,0 -0.369873,0.124333 -0.432455,0.283325 -0.02496,0.06345 -0.03762,0.132402 -0.03762,0.201353 0,0.06895 0.01248,0.137904 0.03744,0.20117 0.06221,0.158076 0.20619,0.281491 0.432635,0.281491 h 7.970822 c 0.223733,0 0.367522,-0.122498 0.430826,-0.279657 l 0.0017,-0.004 c 0.02496,-0.06345 0.03762,-0.132586 0.03762,-0.201354 0,-0.06895 -0.0123,-0.137903 -0.03744,-0.201169 -0.06221,-0.157892 -0.206008,-0.281125 -0.432634,-0.281125 z"
           id="path2450" /><path
           style="clip-rule:evenodd;fill:#2c80ca;fill-opacity:1;stroke-width:0.0183618;image-rendering:optimizeQuality;shape-rendering:geometricPrecision;text-rendering:geometricPrecision"
           d="m 28.778223,76.667111 c -0.02295,-0.02259 -0.04903,-0.03379 -0.07859,-0.03379 -0.01616,0 -0.0303,0.0024 -0.04205,0.0073 -0.0123,0.0053 -0.02442,0.01377 -0.03599,0.02552 l -0.248251,0.247517 a 0.1182498,0.1182498 0 0 1 -0.150934,0.01322 c -0.02846,-0.01818 -0.05876,-0.03617 -0.09089,-0.05343 -0.03434,-0.01836 -0.06775,-0.03507 -0.100622,-0.05013 -0.03434,-0.01561 -0.06941,-0.03048 -0.104662,-0.04407 -0.03158,-0.0123 -0.06757,-0.02515 -0.107233,-0.03819 -0.04994,-0.01634 -0.08153,-0.0628 -0.08153,-0.112741 v -0.379171 c 0,-0.01671 -0.0026,-0.0314 -0.0077,-0.04388 -0.0048,-0.01175 -0.01285,-0.02332 -0.02387,-0.03452 -0.01102,-0.01102 -0.02258,-0.0191 -0.03452,-0.02387 -0.0123,-0.005 -0.02718,-0.0075 -0.04388,-0.0075 h -0.475947 c -0.01542,0 -0.02901,0.0024 -0.04058,0.0072 -0.01249,0.0051 -0.02497,0.01377 -0.03727,0.02571 -0.01083,0.01083 -0.01891,0.02222 -0.02387,0.03379 -0.005,0.0123 -0.0073,0.02681 -0.0073,0.04315 v 0.347221 c 0,0.05839 -0.04205,0.106682 -0.0975,0.116781 -0.03691,0.0088 -0.07161,0.01818 -0.103928,0.02809 l -0.0055,0.0015 c -0.03324,0.01047 -0.06665,0.02204 -0.100072,0.03507 l -0.0061,0.0022 a 1.7766849,1.7766849 0 0 0 -0.0964,0.04113 c -0.0347,0.01616 -0.06702,0.03232 -0.09677,0.04847 -0.04682,0.02552 -0.103193,0.01597 -0.139366,-0.01946 l -0.280935,-0.277447 c -0.009,-0.0084 -0.01854,-0.01524 -0.02883,-0.01965 -0.01083,-0.0048 -0.02405,-0.0073 -0.03966,-0.0073 -0.01524,0 -0.02901,0.0028 -0.04095,0.0077 -0.01304,0.0057 -0.02589,0.01469 -0.03819,0.02662 l -0.332348,0.333083 c -0.02258,0.02314 -0.03379,0.04921 -0.03379,0.07896 0,0.01616 0.0024,0.0303 0.0073,0.04205 0.0053,0.01212 0.01377,0.02424 0.02552,0.0358 l 0.247517,0.248251 a 0.1182498,0.1182498 0 0 1 0.01322,0.150934 c -0.01818,0.02846 -0.03617,0.05894 -0.05343,0.09089 -0.01836,0.03434 -0.03507,0.06794 -0.05013,0.100622 -0.01561,0.03434 -0.03048,0.06941 -0.04407,0.104662 -0.0123,0.03158 -0.02516,0.06757 -0.03819,0.107233 -0.01634,0.04994 -0.0628,0.08153 -0.112741,0.08153 l -0.379171,1.84e-4 c -0.01671,0 -0.0314,0.0024 -0.04388,0.0075 -0.0123,0.005 -0.02387,0.01285 -0.03434,0.0235 l -5.51e-4,3.68e-4 c -0.01065,0.01065 -0.01836,0.02222 -0.0235,0.03452 -0.005,0.01249 -0.0075,0.02717 -0.0075,0.04388 v 0.475937 c 0,0.01542 0.0024,0.02901 0.0072,0.04058 0.0051,0.01249 0.01359,0.02479 0.02534,0.03691 0.01083,0.01102 0.0224,0.01891 0.03434,0.02405 l 0.005,0.002 c 0.01065,0.0039 0.02332,0.0057 0.03801,0.0057 h 0.347221 c 0.05821,0 0.106682,0.04187 0.116781,0.09732 0.0088,0.03691 0.01818,0.07161 0.02809,0.104112 l 0.0015,0.0053 c 0.01028,0.03323 0.02203,0.06665 0.03507,0.100071 0.01267,0.03305 0.02736,0.06812 0.04388,0.104662 0.01689,0.03728 0.03324,0.07124 0.04884,0.101174 0.0246,0.04682 0.01432,0.103009 -0.02148,0.138447 l -0.276344,0.275243 c -0.0086,0.009 -0.01524,0.01873 -0.01965,0.02901 -0.0048,0.01083 -0.0073,0.02405 -0.0073,0.03948 0,0.01542 0.0028,0.0292 0.0077,0.04095 0.0057,0.01322 0.01469,0.02607 0.02681,0.03838 l 0.331246,0.335102 c 0.01157,0.01065 0.02387,0.01854 0.03636,0.0235 0.01285,0.005 0.02754,0.0075 0.04425,0.0075 0.01634,0 0.03121,-0.0026 0.04425,-0.0077 l 0.0042,-0.0017 c 0.0112,-0.0048 0.02167,-0.01193 0.03158,-0.02112 l 0.24513,-0.248986 c 0.04205,-0.04278 0.108518,-0.04682 0.15534,-0.01194 0.02589,0.01653 0.05527,0.0336 0.0874,0.05105 0.03434,0.01855 0.06794,0.03507 0.100623,0.05013 0.03434,0.01579 0.06941,0.03048 0.104662,0.04425 0.03158,0.01212 0.06757,0.02497 0.107233,0.03801 0.04994,0.01653 0.08153,0.06298 0.08153,0.112741 v 0.379171 c 0,0.01671 0.0026,0.0314 0.0077,0.04389 0.0048,0.01193 0.01285,0.0235 0.02387,0.03452 0.01102,0.01102 0.02277,0.0191 0.03452,0.02387 0.01249,0.0051 0.02718,0.0077 0.04389,0.0077 h 0.475937 c 0.01542,0 0.02901,-0.0026 0.04058,-0.0073 0.01249,-0.0051 0.02497,-0.01377 0.03727,-0.02571 0.01065,-0.01065 0.01855,-0.02203 0.0235,-0.03397 l 0.0022,-0.0048 c 0.0037,-0.01065 0.0057,-0.0235 0.0057,-0.03819 v -0.347221 c 0,-0.05821 0.04186,-0.106682 0.09713,-0.116781 0.03691,-0.0088 0.07198,-0.01818 0.104295,-0.02809 l 0.0053,-0.0015 c 0.03323,-0.01028 0.06684,-0.02203 0.100072,-0.03489 0.03305,-0.01267 0.06794,-0.02736 0.104478,-0.04388 0.03746,-0.01689 0.07124,-0.03323 0.101173,-0.04903 a 0.11852523,0.11852523 0 0 1 0.138632,0.02148 l 0.271019,0.271754 c 0.01028,0.01065 0.0213,0.01873 0.03324,0.02387 l 0.0057,0.0028 c 0.0099,0.0033 0.02167,0.005 0.03544,0.005 0.01597,0 0.02993,-0.0026 0.04168,-0.0077 0.01194,-0.0051 0.02295,-0.01322 0.03324,-0.02387 l 0.337856,-0.334001 c 0.01065,-0.01175 0.01855,-0.02387 0.0235,-0.03654 0.005,-0.01285 0.0075,-0.02754 0.0075,-0.04407 0,-0.01689 -0.0026,-0.03177 -0.0077,-0.0448 a 0.11641362,0.11641362 0 0 0 -0.02277,-0.03544 l -0.249239,-0.244968 a 0.11867212,0.11867212 0 0 1 -0.01414,-0.152035 c 0.01836,-0.02846 0.03617,-0.05876 0.05343,-0.09089 a 1.6521921,1.6521921 0 0 0 0.05013,-0.100622 c 0.01561,-0.03434 0.03048,-0.06941 0.04407,-0.104662 0.0123,-0.03158 0.02516,-0.06757 0.03819,-0.107233 0.01653,-0.04994 0.06298,-0.08153 0.112742,-0.08153 h 0.37917 c 0.01671,0 0.0314,-0.0026 0.04388,-0.0077 0.01175,-0.0048 0.02332,-0.01285 0.03452,-0.02387 0.01102,-0.01102 0.0191,-0.02258 0.02387,-0.03452 0.0051,-0.0123 0.0077,-0.02699 0.0077,-0.04388 v -0.475938 c 0,-0.01542 -0.0026,-0.02901 -0.0073,-0.04058 -0.0051,-0.01249 -0.01377,-0.02497 -0.02571,-0.03727 -0.01083,-0.01083 -0.02203,-0.01873 -0.03397,-0.0235 -0.01212,-0.0051 -0.02662,-0.0077 -0.04297,-0.0077 h -0.347221 c -0.05912,0 -0.107967,-0.04333 -0.117148,-0.09971 a 1.7822118,1.7822118 0 0 0 -0.06463,-0.205468 l -0.002,-0.0061 c -0.01322,-0.03452 -0.02699,-0.06739 -0.04095,-0.09805 -0.01524,-0.03342 -0.0314,-0.06574 -0.04847,-0.09695 -0.02552,-0.04682 -0.01598,-0.103194 0.01946,-0.139366 l 0.272856,-0.276712 c 0.0112,-0.01065 0.01946,-0.02167 0.02442,-0.03305 0.0048,-0.01083 0.0072,-0.02405 0.0072,-0.03966 0,-0.01542 -0.0026,-0.02901 -0.0077,-0.04095 -0.0055,-0.01304 -0.01451,-0.02589 -0.02662,-0.03819 z m -0.07859,-0.271203 c 0.09511,0 0.176823,0.03415 0.246047,0.103376 l 0.334552,0.334185 c 0.03305,0.0336 0.05839,0.07088 0.07583,0.111639 0.01799,0.04205 0.02699,0.08667 0.02699,0.13349 0,0.04774 -0.0092,0.09236 -0.02736,0.134225 -0.018,0.04076 -0.04407,0.0773 -0.07767,0.109436 l -0.207855,0.210793 0.01542,0.03305 c 0.01689,0.03728 0.03268,0.07473 0.04701,0.112191 l 0.0024,0.0057 c 0.01432,0.03764 0.02791,0.07767 0.04095,0.119719 l 0.0099,0.0325 h 0.256514 c 0.04756,0 0.09218,0.0088 0.133858,0.02626 0.04113,0.01708 0.07822,0.04242 0.111272,0.07583 l 0.0024,0.0024 c 0.0325,0.0336 0.0571,0.07088 0.074,0.11164 0.01726,0.0415 0.02571,0.08501 0.02571,0.130368 v 0.475938 c 0,0.04719 -0.0084,0.09144 -0.02516,0.132939 -0.01726,0.04223 -0.0426,0.07987 -0.07583,0.113292 -0.03342,0.03342 -0.07124,0.05857 -0.113293,0.07565 -0.04131,0.01708 -0.08575,0.02534 -0.132939,0.02534 h -0.295255 l -0.01414,0.03691 c -0.01524,0.03929 -0.03195,0.07859 -0.04958,0.117515 -0.01855,0.04058 -0.03764,0.07896 -0.05674,0.114578 l -0.01524,0.02754 0.187474,0.184536 c 0.03195,0.0336 0.05619,0.07143 0.07253,0.112741 0.01616,0.04131 0.02442,0.0852 0.02442,0.131103 0,0.04572 -0.0081,0.08906 -0.02442,0.130369 -0.01598,0.04095 -0.04003,0.07841 -0.07161,0.112557 l -0.339325,0.33547 c -0.0325,0.03415 -0.06941,0.06041 -0.110538,0.07804 -0.04168,0.01799 -0.08685,0.02717 -0.135326,0.02717 -0.04333,0 -0.08446,-0.0077 -0.123391,-0.02295 l -0.01139,-0.0042 c -0.04131,-0.01781 -0.07841,-0.04425 -0.111088,-0.07859 l -0.206938,-0.207671 -0.03489,0.01616 c -0.03599,0.01616 -0.07492,0.0325 -0.116597,0.04847 -0.03728,0.01451 -0.07602,0.02791 -0.116047,0.0404 l -0.03893,0.01175 v 0.25578 c 0,0.0437 -0.0077,0.08557 -0.02295,0.125227 l -0.0033,0.0086 c -0.01708,0.04113 -0.04242,0.07822 -0.07565,0.111273 l -0.0026,0.0026 c -0.0336,0.03232 -0.07069,0.05692 -0.111456,0.07381 -0.04168,0.01726 -0.08502,0.02571 -0.130552,0.02571 h -0.475937 c -0.04719,0 -0.09163,-0.0084 -0.132939,-0.02534 -0.04223,-0.01708 -0.07987,-0.04242 -0.113293,-0.07565 -0.03323,-0.03342 -0.05857,-0.07106 -0.07565,-0.113292 -0.01708,-0.04131 -0.02534,-0.08575 -0.02534,-0.132939 v -0.295441 l -0.03691,-0.01396 c -0.0393,-0.01524 -0.07877,-0.03195 -0.117516,-0.04958 -0.0404,-0.01854 -0.07896,-0.03746 -0.114577,-0.05674 l -0.02736,-0.01524 -0.184536,0.187474 c -0.03195,0.03011 -0.0672,0.05343 -0.10558,0.06941 l -0.0068,0.0031 c -0.04131,0.01616 -0.08538,0.02442 -0.13147,0.02442 -0.04591,0 -0.08942,-0.0081 -0.130553,-0.02442 -0.04095,-0.01616 -0.07859,-0.04003 -0.112374,-0.07161 L 25.380342,79.88943 c -0.03323,-0.03379 -0.05876,-0.07106 -0.07602,-0.11164 -0.01799,-0.04205 -0.02699,-0.08667 -0.02699,-0.133673 0,-0.04774 0.0092,-0.09236 0.02754,-0.134041 0.01652,-0.03782 0.04039,-0.07216 0.07161,-0.103193 l 0.214099,-0.213915 -0.01616,-0.03489 c -0.01616,-0.03581 -0.03232,-0.07473 -0.04847,-0.116598 -0.01432,-0.03709 -0.02791,-0.07583 -0.04021,-0.115862 l -0.01175,-0.03911 h -0.255963 c -0.0437,0 -0.08557,-0.0077 -0.125227,-0.02295 l -0.0086,-0.0033 c -0.04168,-0.01726 -0.07932,-0.04315 -0.112558,-0.07712 l -5.5e-4,-5.51e-4 c -0.03287,-0.03397 -0.05766,-0.07143 -0.07455,-0.112006 -0.01726,-0.0415 -0.02571,-0.08501 -0.02571,-0.130553 v -0.475937 c 0,-0.04719 0.0084,-0.09163 0.02534,-0.132939 0.01671,-0.0415 0.04205,-0.07914 0.07565,-0.112741 l 5.51e-4,-5.51e-4 c 0.0336,-0.0336 0.07124,-0.05876 0.112741,-0.07565 0.04131,-0.01689 0.08575,-0.02534 0.132939,-0.02534 h 0.295441 l 0.01395,-0.03691 c 0.01524,-0.03929 0.03195,-0.07859 0.04976,-0.117515 0.01836,-0.04058 0.03746,-0.07896 0.05674,-0.114578 l 0.01561,-0.02828 -0.18068,-0.181047 c -0.03379,-0.03342 -0.05968,-0.07106 -0.0773,-0.112741 a 0.33950913,0.33950913 0 0 1 -0.02681,-0.133674 c 0,-0.0953 0.03415,-0.177007 0.103377,-0.246231 l 0.334184,-0.334368 c 0.0336,-0.03323 0.07088,-0.05857 0.11164,-0.07602 0.04205,-0.01799 0.08648,-0.02699 0.13349,-0.02699 0.04774,0 0.09236,0.0094 0.134224,0.02754 0.03764,0.01653 0.07198,0.0404 0.10301,0.07161 l 0.217036,0.213731 0.03195,-0.01524 c 0.03305,-0.01524 0.06977,-0.03066 0.110722,-0.04664 l 0.0057,-0.0024 c 0.03727,-0.01451 0.07602,-0.02791 0.115863,-0.04021 l 0.03911,-0.01175 v -0.255963 c 0,-0.04737 0.0088,-0.09218 0.02626,-0.133857 l 3.67e-4,-3.67e-4 c 0.01726,-0.04113 0.04241,-0.07804 0.07528,-0.110722 l 0.0026,-0.0026 c 0.0336,-0.0325 0.07088,-0.0571 0.111456,-0.074 0.04168,-0.01708 0.0852,-0.02571 0.130552,-0.02571 h 0.475937 c 0.04719,0 0.09144,0.0084 0.132939,0.02534 0.04223,0.01708 0.07987,0.04242 0.113292,0.07565 0.03342,0.03342 0.05857,0.07124 0.07583,0.113292 0.01689,0.04131 0.02534,0.08575 0.02534,0.132939 V 76.5446 l 0.03672,0.01395 c 0.03929,0.01524 0.07859,0.03195 0.117515,0.04976 0.04058,0.01855 0.07896,0.03746 0.114578,0.05674 l 0.02828,0.01561 0.181047,-0.18068 c 0.03342,-0.03379 0.07106,-0.05968 0.112741,-0.07712 0.04242,-0.01799 0.08722,-0.02699 0.133858,-0.02699 z"
           id="path15408-2" /></g></g></g><style
     type="text/css"
     id="style12387">.st0{fill-rule:evenodd;clip-rule:evenodd;}</style></svg>
