<?xml version="1.0" encoding="UTF-8" standalone="no"?>
<!-- Created with Inkscape (http://www.inkscape.org/) -->

<svg
   width="50"
   height="50"
   viewBox="0 0 13.229166 13.229167"
   version="1.1"
   id="svg8528"
   inkscape:version="1.2.2 (b0a8486541, 2022-12-01)"
   sodipodi:docname="document-inprogress.svg"
   xml:space="preserve"
   xmlns:inkscape="http://www.inkscape.org/namespaces/inkscape"
   xmlns:sodipodi="http://sodipodi.sourceforge.net/DTD/sodipodi-0.dtd"
   xmlns="http://www.w3.org/2000/svg"
   xmlns:svg="http://www.w3.org/2000/svg"><sodipodi:namedview
     id="namedview8530"
     pagecolor="#505050"
     bordercolor="#eeeeee"
     borderopacity="1"
     inkscape:showpageshadow="false"
     inkscape:pageopacity="0"
     inkscape:pagecheckerboard="0"
     inkscape:deskcolor="#505050"
     inkscape:document-units="mm"
     showgrid="false"
     inkscape:zoom="7.3192482"
     inkscape:cx="30.057732"
     inkscape:cy="23.841247"
     inkscape:window-width="1575"
     inkscape:window-height="1282"
     inkscape:window-x="26"
     inkscape:window-y="23"
     inkscape:window-maximized="0"
     inkscape:current-layer="g5976"
     showguides="true" /><defs
     id="defs8525" /><g
     inkscape:label="Ebene 1"
     inkscape:groupmode="layer"
     id="layer1"><g
       id="g5976"
       transform="matrix(0.63004102,0,0,0.63004102,-28.534777,-77.109542)"><g
         id="g5383"
         transform="matrix(1.5871983,0,0,1.5871983,-49.197551,76.194046)"><g
           id="g15174-0-2-7"
           transform="matrix(0.6268227,0,0,0.62674163,56.848814,-63.585365)"
           style="fill:#2c80ca;fill-opacity:1"><path
             class="cls-1"
             d="m 20.37957,162.02353 a 2.2885742,2.2896928 0 0 1 0.556152,0.25208 l 0.299316,-0.30092 a 0.37109372,0.3712751 0 0 1 0.523436,0 l 0.30664,0.30824 a 0.37109372,0.3712751 0 0 1 0,0.52369 l -0.322264,0.32243 a 2.2753906,2.2765026 0 0 1 0.211914,0.53395 h 0.464844 a 0.37109372,0.3712751 0 0 1 0.37207,0.37128 v 0.43479 a 0.37109372,0.3712751 0 0 1 -0.370116,0.37029 h -0.46924 a 2.286621,2.2877386 0 0 1 -0.213378,0.52809 l 0.32617,0.3278 a 0.37109372,0.3712751 0 0 1 0,0.52369 l -0.30615,0.30678 a 0.37158204,0.37176366 0 0 1 -0.523926,0 l -0.30957,-0.3102 a 2.305664,2.3067908 0 0 1 -0.546388,0.24426 v 0.41964 a 0.37109372,0.3712751 0 0 1 -0.370116,0.3703 H 19.57488 a 0.37109372,0.3712751 0 0 1 -0.370116,-0.3703 v -0.37909 a 2.3139648,2.3150957 0 0 1 -0.603028,-0.22862 l -0.253904,0.25401 a 0.37207032,0.37225218 0 0 1 -0.52344,0 l -0.308104,-0.30824 a 0.37158204,0.37176366 0 0 1 0,-0.52369 l 0.230466,-0.23058 a 2.3134765,2.3146072 0 0 1 -0.271482,-0.62385 h -0.313476 a 0.37109372,0.3712751 0 0 1 -0.370118,-0.37029 v -0.43479 a 0.37109372,0.3712751 0 0 1 0.370118,-0.37128 h 0.31006 a 2.3046875,2.3058138 0 0 1 0.26904,-0.63213 l -0.224608,-0.22425 a 0.37207032,0.37225218 0 0 1 0,-0.52369 l 0.308104,-0.30824 a 0.37109372,0.3712751 0 0 1 0.52344,0 l 0.24414,0.24426 a 2.2753906,2.2765026 0 0 1 0.611816,-0.23645 v -0.36248 a 0.37109372,0.3712751 0 0 1 0.371092,-0.3703 h 0.434574 a 0.37109372,0.3712751 0 0 1 0.370116,0.3703 z m -0.66504,1.01808 a 1.2011719,1.2017588 0 1 1 -1.201174,1.20127 1.2006836,1.2012704 0 0 1 1.201174,-1.20127 z"
             id="path13936-7-3-28-8"
             style="fill:#2c80ca;fill-opacity:1;fill-rule:evenodd;stroke-width:0.0488401" /><g
             id="g14938-0-9-4"
             style="fill:#2c80ca;fill-opacity:1"
             transform="matrix(0.23097735,0.23097735,-0.23097735,0.23097735,84.126409,130.79058)"><path
               d="m -64.131071,197.40736 c 3.328459,0.62707 6.257396,2.38919 8.368771,4.87098 2.161646,2.54 3.466042,5.82877 3.466042,9.41652 0,3.15648 -1.005417,6.07748 -2.714625,8.46138 -1.754188,2.4474 -4.249209,4.32594 -7.159625,5.31283 l -0.301625,-0.889 -0.301625,-0.889 c 0.07408,-0.0238 0.148166,-0.0503 0.219604,-0.0767 2.436812,-0.87577 4.527021,-2.48179 6.011333,-4.55083 1.486959,-2.07433 2.362729,-4.61698 2.362729,-7.366 0,-3.13267 -1.132416,-5.99811 -3.010958,-8.20473 -1.764771,-2.07433 -4.185708,-3.56923 -6.942667,-4.16983 v 1.92881 l -3.540125,-2.91042 3.542771,-2.90777 z"
               id="path14932-9-7-5"
               style="fill:#2c80ca;fill-opacity:1" /><path
               d="m -69.5418,225.98501 c -3.360209,-0.63235 -6.312959,-2.42358 -8.426979,-4.93977 -2.129896,-2.53206 -3.41048,-5.79438 -3.41048,-9.35038 0,-3.34168 1.129771,-6.42408 3.032125,-8.88206 1.939396,-2.51089 4.683125,-4.37092 7.847542,-5.19112 l 0.470959,1.81504 c -2.754313,0.71437 -5.143501,2.33362 -6.834188,4.52173 -1.651,2.13783 -2.632604,4.82071 -2.632604,7.73641 0,3.10357 1.113896,5.94519 2.960687,8.14388 1.767417,2.10344 4.209521,3.62479 6.995584,4.22804 v -1.93939 l 3.542771,2.90777 -3.542771,2.90777 z"
               id="path14930-2-3-0"
               style="fill:#2c80ca;fill-opacity:1" /></g></g><path
           id="path19560-28-8"
           style="fill:#919191;fill-opacity:1;stroke-width:0.109512"
           d="m 61.491854,29.104167 a 0.638936,0.64016459 0 0 0 -0.637687,0.63872 v 10.943518 a 0.63018344,0.6313952 0 0 0 0.187068,0.40101 0.64112414,0.64235694 0 0 0 0.450619,0.187585 h 4.273641 c -0.02079,-0.0427 -0.0418,-0.08584 -0.0615,-0.129708 l -0.02377,-0.05323 -0.0186,-0.04393 -0.0186,-0.04392 c -0.01419,-0.03399 -0.02772,-0.06782 -0.04082,-0.101802 v -0.0078 l -0.0067,-0.0186 v -0.01085 -0.0067 l -0.0078,-0.02015 v -0.0078 -0.0067 -0.0078 -0.0083 l -0.0083,-0.02842 v -0.0078 -0.0098 l -0.0067,-0.01912 v -0.0098 -0.0067 -0.0083 -0.01033 -0.0078 -0.0067 -0.0098 -0.0067 -0.0083 -0.0098 -0.0088 -0.0041 A 3.9026041,3.9026041 0 0 1 65.562365,40.6134 H 61.567301 V 29.814718 h 5.045687 v 2.895947 a 0.35776039,0.35844832 0 0 0 0.357601,0.358118 h 2.96416 v 2.337325 0.108003 a 3.9026041,3.9026041 0 0 1 0.707967,0.195337 v -0.30334 h 0.001 v -2.759005 a 0.35447818,0.3551598 0 0 0 -0.257865,-0.343132 l -3.140377,-3.069063 a 0.35229005,0.35296746 0 0 0 -0.274402,-0.130741 z m 5.834786,1.249536 2.131136,2.001428 H 67.32664 Z m -4.220931,2.812748 a 0.25272982,0.25321578 0 0 0 -0.188619,0.08682 l -0.001,-0.0021 a 0.30852731,0.30912056 0 0 0 0,0.406694 0.25272982,0.25321578 0 0 0 0.189653,0.0863 h 2.474784 a 0.25382388,0.25431195 0 0 0 0.188102,-0.08785 0.30852731,0.30912056 0 0 0 0,-0.406694 0.25491796,0.25540813 0 0 0 -0.187068,-0.0832 z m -0.0047,1.897559 a 0.25382388,0.25431195 0 0 0 -0.183968,0.08785 l -10e-4,-0.0026 a 0.30743324,0.30802439 0 0 0 0,0.40566 0.25272982,0.25321578 0 0 0 0.189653,0.08682 H 67.2915 a 0.25382388,0.25431195 0 0 0 0.188102,-0.08785 0.30743324,0.30802439 0 0 0 0,-0.403593 0.25163575,0.25211961 0 0 0 -0.189136,-0.0863 z m 0.0078,1.900659 a 0.25601202,0.2565043 0 0 0 -0.189135,0.08785 0.29868069,0.29925502 0 0 0 -0.07545,0.201538 0.30524511,0.30583205 0 0 0 0.07441,0.204122 0.25382388,0.25431195 0 0 0 0.190169,0.0863 h 2.693893 A 3.9026041,3.9026041 0 0 1 66.1758,36.96467 Z m 0,1.894458 a 0.25601202,0.2565043 0 0 0 -0.189135,0.08733 0.29977476,0.30035119 0 0 0 -0.07545,0.203088 0.30415104,0.30473588 0 0 0 0.07441,0.202572 0.25382388,0.25431195 0 0 0 0.190169,0.08682 h 2.246892 a 3.9026041,3.9026041 0 0 1 -0.0036,-0.08216 3.9026041,3.9026041 0 0 1 0.03566,-0.497644 z" /></g></g></g><style
     type="text/css"
     id="style12387">.st0{fill-rule:evenodd;clip-rule:evenodd;}</style></svg>
