<?xml version="1.0" encoding="UTF-8" standalone="no"?>
<!-- Created with Inkscape (http://www.inkscape.org/) -->

<svg
   width="50"
   height="50"
   viewBox="0 0 13.229166 13.229167"
   version="1.1"
   id="svg8528"
   inkscape:version="1.2.2 (b0a8486541, 2022-12-01)"
   sodipodi:docname="documents.svg"
   xml:space="preserve"
   xmlns:inkscape="http://www.inkscape.org/namespaces/inkscape"
   xmlns:sodipodi="http://sodipodi.sourceforge.net/DTD/sodipodi-0.dtd"
   xmlns="http://www.w3.org/2000/svg"
   xmlns:svg="http://www.w3.org/2000/svg"><sodipodi:namedview
     id="namedview8530"
     pagecolor="#505050"
     bordercolor="#eeeeee"
     borderopacity="1"
     inkscape:showpageshadow="false"
     inkscape:pageopacity="0"
     inkscape:pagecheckerboard="0"
     inkscape:deskcolor="#505050"
     inkscape:document-units="mm"
     showgrid="false"
     inkscape:zoom="7.3192482"
     inkscape:cx="30.057732"
     inkscape:cy="23.841247"
     inkscape:window-width="1575"
     inkscape:window-height="1282"
     inkscape:window-x="26"
     inkscape:window-y="23"
     inkscape:window-maximized="0"
     inkscape:current-layer="g5976"
     showguides="true" /><defs
     id="defs8525" /><g
     inkscape:label="Ebene 1"
     inkscape:groupmode="layer"
     id="layer1"><g
       id="g5976"
       transform="matrix(0.63004102,0,0,0.63004102,-28.534777,-77.109542)"><path
         d="m 63.348035,127.05087 a 0.46857079,0.47161931 0 0 0 -0.338922,-0.45118 l -4.120302,-4.03863 a 0.46857079,0.47161931 0 0 0 -0.360807,-0.17293 h -7.18475 a 0.83717985,0.84262653 0 0 0 -0.837178,0.84263 v 2.36596 h -2.278819 a 0.83717985,0.84262653 0 0 0 -0.837178,0.84262 v 14.42369 a 0.83717985,0.84262653 0 0 0 0.837178,0.84263 h 11.173862 a 0.83717985,0.84262653 0 0 0 0.832492,-0.84263 v -2.3581 h 2.278804 a 0.83717985,0.84262653 0 0 0 0.832508,-0.84262 q 0,-5.30257 0,-10.60357 z m -11.911069,-1.45415 v -2.26535 h 6.62248 v 3.81069 a 0.46857079,0.47161931 0 0 0 0.468558,0.47161 h 3.884457 q 0,4.97088 0,9.94174 h -2.186664 v -7.29752 a 0.46857079,0.47161931 0 0 0 -0.338922,-0.45118 l -4.110933,-4.03706 a 0.45763747,0.46061485 0 0 0 -0.35925,-0.17293 z m 4.445185,1.64752 2.797369,2.63793 H 55.882151 Z M 48.327225,140.764 v -14.23033 h 6.622466 v 3.81697 a 0.46857079,0.47161931 0 0 0 0.468571,0.47162 h 3.882889 q 0,4.97401 0,9.94174 z m 1.769639,-7.42172 a 0.33112337,0.33327766 0 0 1 0.248341,-0.11633 h 5.490084 a 0.33424717,0.33642177 0 0 1 0.249912,0.11477 0.39672328,0.39930435 0 0 1 0.09839,0.26725 0.40140899,0.40402055 0 0 1 -0.0999,0.26725 0.33737098,0.3395659 0 0 1 -0.24834,0.11633 h -5.490088 a 0.33580908,0.33799385 0 0 1 -0.249912,-0.11477 0.40453279,0.40716466 0 0 1 0,-0.5345 z m 0,4.54955 a 0.32799956,0.33013352 0 0 1 0.246784,-0.11632 h 7.022308 a 0.33112337,0.33327766 0 0 1 0.248341,0.11632 0.40140899,0.40402055 0 0 1 0.0999,0.26725 0.39672328,0.39930435 0 0 1 -0.09839,0.26725 0.33424717,0.33642177 0 0 1 -0.249912,0.11477 H 50.34826 a 0.33268526,0.3348497 0 0 1 -0.248326,-0.11477 0.39984708,0.40244848 0 0 1 0,-0.5345 z m 7.269092,-2.3911 a 0.33112337,0.33327766 0 0 1 0.248341,0.11632 0.40453279,0.40716466 0 0 1 0,0.5345 0.33268526,0.3348497 0 0 1 -0.249898,0.11318 h -7.016081 a 0.33112337,0.33327766 0 0 1 -0.248326,-0.11318 0.39828518,0.4008764 0 0 1 -0.09989,-0.26882 0.39047567,0.39301609 0 0 1 0.101555,-0.26568 0.32799956,0.33013352 0 0 1 0.24677,-0.11632 z m -7.269092,-4.4348 a 0.33580908,0.33799385 0 0 1 0.248341,-0.11477 h 3.247187 a 0.33268526,0.3348497 0 0 1 0.249912,0.11318 0.40765661,0.41030882 0 0 1 0,0.53607 0.33580908,0.33799385 0 0 1 -0.248341,0.11477 h -3.248758 a 0.33424717,0.33642177 0 0 1 -0.249913,-0.11318 0.40765661,0.41030882 0 0 1 0,-0.53608 z m 0,-2.27478 a 0.33268526,0.3348497 0 0 1 0.251454,-0.11476 h 1.785264 a 0.33112337,0.33327766 0 0 1 0.248341,0.11318 0.40765661,0.41030882 0 0 1 0,0.53607 0.33268526,0.3348497 0 0 1 -0.246784,0.11477 h -1.786821 a 0.33737098,0.3395659 0 0 1 -0.248326,-0.11318 0.40140899,0.40402055 0 0 1 -0.09989,-0.26883 0.39672328,0.39930435 0 0 1 0.101555,-0.26725 z m 8.898156,-4.75549 2.797369,2.63792 H 58.99502 Z"
         id="path2672"
         style="fill:#919191;fill-opacity:1;stroke-width:0.156698" /></g></g><style
     type="text/css"
     id="style12387">.st0{fill-rule:evenodd;clip-rule:evenodd;}</style></svg>
