<?xml version="1.0" encoding="UTF-8" standalone="no"?>
<!-- Created with Inkscape (http://www.inkscape.org/) -->

<svg
   width="50"
   height="50"
   viewBox="0 0 13.229166 13.229167"
   version="1.1"
   id="svg8528"
   inkscape:version="1.2.2 (b0a8486541, 2022-12-01)"
   sodipodi:docname="document-download.svg"
   xmlns:inkscape="http://www.inkscape.org/namespaces/inkscape"
   xmlns:sodipodi="http://sodipodi.sourceforge.net/DTD/sodipodi-0.dtd"
   xmlns="http://www.w3.org/2000/svg"
   xmlns:svg="http://www.w3.org/2000/svg">
  <sodipodi:namedview
     id="namedview8530"
     pagecolor="#505050"
     bordercolor="#eeeeee"
     borderopacity="1"
     inkscape:showpageshadow="false"
     inkscape:pageopacity="0"
     inkscape:pagecheckerboard="0"
     inkscape:deskcolor="#505050"
     inkscape:document-units="mm"
     showgrid="false"
     inkscape:zoom="7.3192482"
     inkscape:cx="13.525979"
     inkscape:cy="26.437141"
     inkscape:window-width="1575"
     inkscape:window-height="1282"
     inkscape:window-x="26"
     inkscape:window-y="23"
     inkscape:window-maximized="0"
     inkscape:current-layer="layer1" />
  <defs
     id="defs8525" />
  <g
     inkscape:label="Ebene 1"
     inkscape:groupmode="layer"
     id="layer1">
    <g
       id="g16431"
       transform="translate(-170.65625,-29.104166)">
      <path
         id="path12445-3-3-9-6-9"
         style="fill:#919191;fill-opacity:1;stroke-width:0.0991592"
         d="m 172.61737,29.104167 a 0.63721993,0.63598172 0 0 0 -0.6382,0.63717 V 40.63783 a 0.63721993,0.63598172 0 0 0 0.6382,0.63717 h 5.19141 c -0.25348,-0.22371 -0.49888,-0.453008 -0.70796,-0.709517 h -0.18345 -4.22559 V 29.812651 h 5.04414 v 2.883544 a 0.35831215,0.3576159 0 0 0 0.35812,0.357601 h 2.96209 v 1.925981 h 0.71055 v -2.351794 h 0.002 a 0.83076805,0.82915375 0 0 0 -0.26097,-0.342098 l -3.13779,-3.050977 a 0.35037172,0.3496909 0 0 0 -0.27388,-0.130741 z m 5.83324,1.245402 2.13217,1.99316 h -2.13217 z m -4.25091,1.899625 a 0.25508649,0.25459082 0 0 0 -0.18862,0.08733 l -0.001,-0.0078 a 0.30769188,0.30709399 0 0 0 0,0.40411 0.25409394,0.2536002 0 0 0 0.18965,0.0863 h 1.93632 a 0.25607905,0.25558145 0 0 0 0.18862,-0.08733 0.30471421,0.30412211 0 0 0 0.0744,-0.197921 0.29776634,0.29718774 0 0 0 -0.0754,-0.198437 0.25409394,0.2536002 0 0 0 -0.18965,-0.0863 z m -0.003,2.017965 a 0.25607905,0.25558145 0 0 0 -0.18552,0.08733 l -0.001,-0.0078 a 0.30769188,0.30709399 0 0 0 0,0.404109 0.25409394,0.2536002 0 0 0 0.18965,0.0863 h 4.18476 a 0.25508649,0.25459082 0 0 0 0.1881,-0.08733 0.30570678,0.30511275 0 0 0 0.0765,-0.198438 0.29776634,0.29718774 0 0 0 -0.0754,-0.19792 0.25310138,0.25260957 0 0 0 -0.18966,-0.0863 z m 0.002,2.021065 a 0.25508649,0.25459082 0 0 0 -0.18862,0.08733 0.30769188,0.30709399 0 0 0 0,0.40411 0.25409394,0.2536002 0 0 0 0.18965,0.0863 h 4.01268 c -6.2e-4,-0.191813 -0.002,-0.384743 -0.004,-0.577743 z m 0.001,2.017965 a 0.25111627,0.25062832 0 0 0 -0.18862,0.08733 h -0.001 a 0.30769188,0.30709399 0 0 0 0,0.40411 0.2570716,0.25657207 0 0 0 0.18965,0.08527 h 2.46962 c 0.0952,-0.221122 0.25073,-0.419341 0.44442,-0.576709 z" />
      <path
         id="path5774-6"
         style="fill:#2c80ca;stroke-width:0.282935"
         d="m 179.18022,35.7632 v 0.34587 h 2.58214 V 35.7632 Z m 0,0.6976 v 0.70691 h 2.58214 V 36.4608 Z m -0.004,1.0394 v 1.38759 h -1.18402 c -0.19862,0.008 -0.33964,0.074 -0.42112,0.19774 -0.20375,0.30549 0.023,0.61985 0.23331,0.8259 l 2.28409,2.23803 c 0.22185,0.24507 0.53758,0.24507 0.75942,0 l 2.22752,-2.17503 c 0.22262,-0.21736 0.5107,-0.55788 0.28989,-0.8889 -0.0816,-0.12384 -0.22205,-0.1887 -0.42054,-0.19774 h -1.18462 V 37.5002 Z" />
    </g>
  </g>
</svg>
