<?xml version="1.0" encoding="UTF-8" standalone="no"?>
<!-- Created with Inkscape (http://www.inkscape.org/) -->

<svg
   width="50"
   height="50"
   viewBox="0 0 13.229166 13.229167"
   version="1.1"
   id="svg8528"
   inkscape:version="1.2.2 (b0a8486541, 2022-12-01)"
   sodipodi:docname="documents-related.svg"
   xmlns:inkscape="http://www.inkscape.org/namespaces/inkscape"
   xmlns:sodipodi="http://sodipodi.sourceforge.net/DTD/sodipodi-0.dtd"
   xmlns="http://www.w3.org/2000/svg"
   xmlns:svg="http://www.w3.org/2000/svg">
  <sodipodi:namedview
     id="namedview8530"
     pagecolor="#505050"
     bordercolor="#eeeeee"
     borderopacity="1"
     inkscape:showpageshadow="false"
     inkscape:pageopacity="0"
     inkscape:pagecheckerboard="0"
     inkscape:deskcolor="#505050"
     inkscape:document-units="mm"
     showgrid="false"
     inkscape:zoom="7.3192482"
     inkscape:cx="22.406673"
     inkscape:cy="22.201734"
     inkscape:window-width="1575"
     inkscape:window-height="1282"
     inkscape:window-x="26"
     inkscape:window-y="23"
     inkscape:window-maximized="0"
     inkscape:current-layer="layer1" />
  <defs
     id="defs8525" />
  <g
     inkscape:label="Ebene 1"
     inkscape:groupmode="layer"
     id="layer1">
    <g
       id="g3321"
       transform="translate(-22.430773,-49.026112)">
      <g
         style="clip-rule:evenodd;fill:#2c80ca;fill-opacity:1;fill-rule:evenodd;image-rendering:optimizeQuality;shape-rendering:geometricPrecision;text-rendering:geometricPrecision"
         id="g10242-1-9"
         transform="matrix(0.00871447,0.00877624,-0.00869744,0.00879343,20.38298,59.903862)">
        <path
           d="m 894.80442,-799.09064 v 10e-4 c 47.554,47.552 47.552,125.365 0.002,172.918 l -101.729,101.73 c -60.027,60.025 -162.073,42.413 -194.762,-32.45 35.888,-31.191 53.387,-21.102 87.58,-6.638 20.128,8.512 43.74,3.955 60.08,-12.387 l 99.375,-99.371 c 21.49,-21.493 21.492,-56.662 0,-78.155 -21.489,-21.488 -56.677,-21.472 -78.151,0 l -71.278,71.28 c -23.583,-11.337 -50.118,-14.697 -75.453,-10.07 a 121.476,121.476 0 0 1 18.767,-24.207 l 82.651,-82.65 c 47.554,-47.551 125.365,-47.555 172.918,-10e-4 z m -440.671,440.67 10e-4,10e-4 c 47.554,47.552 125.365,47.552 172.917,0 l 85.682,-85.682 a 121.496,121.496 0 0 0 19.325,-25.157 c -27.876,6.951 -57.764,4.015 -83.932,-8.805 l -70.192,70.19 c -21.472,21.471 -56.658,21.492 -78.149,0 -21.492,-21.491 -21.493,-56.658 0,-78.149 l 99.375,-99.376 c 20.363,-20.363 61.002,-26.435 91.717,1.688 29.729,-3.133 41.275,-8.812 59.742,-26.493 -39.398,-69.476 -137.607,-80.013 -194.757,-22.863 l -101.729,101.729 c -47.552,47.553 -47.552,125.364 0,172.917 z"
           id="path10233-2-4"
           style="fill:#2c80ca;fill-opacity:1" />
      </g>
      <path
         id="path23631"
         style="fill:#919191;fill-opacity:1;stroke-width:0.0987255"
         d="m 26.24459,49.026132 a 0.52745618,0.53088769 0 0 0 -0.52768,0.53078 v 1.49094 h -1.43555 a 0.52745618,0.53088769 0 0 0 -0.52767,0.53078 v 9.08748 a 0.52745618,0.53088769 0 0 0 0.52767,0.53077 h 2.43133 c -10e-4,-0.0279 -0.003,-0.0559 -0.003,-0.0841 v -0.41183 c 0,-0.0326 0.001,-0.0649 0.003,-0.0971 H 24.3439 v -8.96589 h 4.17235 v 2.40506 a 0.29521801,0.29713863 0 0 0 0.29528,0.29686 h 2.44646 v 4.13257 h 0.58266 v -4.48807 A 0.29521801,0.29713863 0 0 0 31.627,53.700102 l -2.58998,-2.54355 a 0.28832959,0.2902054 0 0 0 -0.22648,-0.10868 h -2.50736 v -1.42733 h 4.17236 v 2.40075 a 0.29521801,0.29713863 0 0 0 0.29527,0.2972 h 2.44745 v 6.15396 h 0.58759 v -6.50351 l 0.002,-0.005 a 0.29521801,0.29713863 0 0 0 -0.21331,-0.28427 l -2.59591,-2.54456 a 0.29521801,0.29713863 0 0 0 -0.22746,-0.109 z m 4.82084,1.03802 1.76242,1.66192 h -1.76242 z m -1.96126,2.0214 1.76243,1.66223 h -1.76243 z m -3.48667,0.90252 a 0.20960479,0.21096843 0 0 0 -0.15833,0.0722 h 0.003 a 0.24995125,0.25157737 0 0 0 -0.0638,0.16832 0.25290343,0.25454876 0 0 0 0.0629,0.1693 0.21255696,0.21393981 0 0 0 0.15637,0.0716 h 1.12579 a 0.20960479,0.21096843 0 0 0 0.1557,-0.0725 0.25683967,0.2585106 0 0 0 0,-0.33762 0.20862073,0.20997796 0 0 0 -0.15669,-0.0712 z m -0.002,1.43329 a 0.21157291,0.21294936 0 0 0 -0.15637,0.0722 h -10e-4 a 0.25683967,0.2585106 0 0 0 0,0.33761 0.21058884,0.21195888 0 0 0 0.15736,0.0712 h 2.04683 a 0.21157291,0.21294936 0 0 0 0.1567,-0.0722 0.25683967,0.2585106 0 0 0 0,-0.33762 0.20960479,0.21096843 0 0 0 -0.15736,-0.0712 z m 0,1.43297 a 0.20862073,0.20997796 0 0 0 -0.15637,0.0732 h -10e-4 a 0.25487154,0.25652968 0 0 0 0,0.33695 0.21157291,0.21294936 0 0 0 0.15736,0.0722 h 3.45902 a 0.21255696,0.21393981 0 0 0 0.15668,-0.0732 0.25290343,0.25454876 0 0 0 0.0629,-0.16831 0.24995125,0.25157737 0 0 0 -0.0618,-0.16864 0.21058884,0.21195888 0 0 0 -0.15768,-0.0722 z m 0.002,1.4333 a 0.2066526,0.20799704 0 0 0 -0.15537,0.0732 0.246015,0.24761552 0 0 0 -0.0638,0.16732 0.25093531,0.25256783 0 0 0 0.0628,0.16963 0.20862073,0.20997796 0 0 0 0.15636,0.0712 h 4.42055 a 0.20960479,0.21096843 0 0 0 0.15736,-0.0712 0.25487154,0.25652968 0 0 0 0,-0.33695 0.20862073,0.20997796 0 0 0 -0.15637,-0.0732 z m -0.003,1.43329 a 0.2066526,0.20799704 0 0 0 -0.15537,0.0732 h 0.002 a 0.25191936,0.25355829 0 0 0 0,0.33662 0.20960479,0.21096843 0 0 0 0.15669,0.0722 h 1.66467 c 0.17641,-0.19589 0.38747,-0.35945 0.62314,-0.48208 z" />
    </g>
  </g>
</svg>
