<?xml version="1.0" encoding="UTF-8" standalone="no"?>
<!-- Created with Inkscape (http://www.inkscape.org/) -->

<svg
   width="50"
   height="50"
   viewBox="0 0 13.229166 13.229167"
   version="1.1"
   id="svg8528"
   inkscape:version="1.2.2 (b0a8486541, 2022-12-01)"
   sodipodi:docname="document-search.svg"
   xml:space="preserve"
   xmlns:inkscape="http://www.inkscape.org/namespaces/inkscape"
   xmlns:sodipodi="http://sodipodi.sourceforge.net/DTD/sodipodi-0.dtd"
   xmlns="http://www.w3.org/2000/svg"
   xmlns:svg="http://www.w3.org/2000/svg"><sodipodi:namedview
     id="namedview8530"
     pagecolor="#505050"
     bordercolor="#eeeeee"
     borderopacity="1"
     inkscape:showpageshadow="false"
     inkscape:pageopacity="0"
     inkscape:pagecheckerboard="0"
     inkscape:deskcolor="#505050"
     inkscape:document-units="mm"
     showgrid="false"
     inkscape:zoom="10.35098"
     inkscape:cx="24.345521"
     inkscape:cy="28.74124"
     inkscape:window-width="1575"
     inkscape:window-height="1282"
     inkscape:window-x="26"
     inkscape:window-y="23"
     inkscape:window-maximized="0"
     inkscape:current-layer="layer1"
     showguides="true" /><defs
     id="defs8525" /><g
     inkscape:label="Ebene 1"
     inkscape:groupmode="layer"
     id="layer1"><g
       id="g7903"
       transform="translate(-96.572915,-29.104166)"><path
         id="path12445-3-3-9-2"
         style="fill:#919191;fill-opacity:1;stroke-width:0.0991592"
         d="m 98.534037,29.104167 a 0.63721999,0.63598172 0 0 0 -0.638204,0.63717 V 40.63783 a 0.63721999,0.63598172 0 0 0 0.638204,0.63717 h 4.710303 a 3.9026041,3.9026041 0 0 1 -0.55655,-0.709517 H 98.608451 V 29.812651 h 5.044139 v 2.883544 a 0.35831219,0.3576159 0 0 0 0.35812,0.357601 h 2.96209 v 1.684135 a 3.9026041,3.9026041 0 0 1 0.71055,0.256832 v -2.36678 h 0.002 a 0.83076814,0.82915375 0 0 0 -0.26097,-0.342098 l -3.13779,-3.050977 a 0.35037176,0.3496909 0 0 0 -0.27389,-0.130741 z m 5.833233,1.245402 2.13217,1.99316 h -2.13217 z m -4.2509,1.899625 a 0.25508652,0.25459082 0 0 0 -0.188619,0.08733 l -0.001,-0.0078 a 0.30769191,0.30709399 0 0 0 0,0.40411 0.25409397,0.2536002 0 0 0 0.189649,0.0863 h 1.93632 a 0.25607907,0.25558145 0 0 0 0.18861,-0.08733 0.30471424,0.30412211 0 0 0 0.0744,-0.197921 0.29776637,0.29718774 0 0 0 -0.0755,-0.198437 0.25409397,0.2536002 0 0 0 -0.18965,-0.0863 z m -0.003,2.017965 a 0.25607907,0.25558145 0 0 0 -0.185519,0.08733 l -0.001,-0.0078 a 0.30769191,0.30709399 0 0 0 0,0.404109 0.25409397,0.2536002 0 0 0 0.189649,0.0863 h 4.18424 a 0.25508652,0.25459082 0 0 0 0.18862,-0.08733 0.30570681,0.30511275 0 0 0 0.0765,-0.198438 0.29776637,0.29718774 0 0 0 -0.0754,-0.19792 0.25310141,0.25260957 0 0 0 -0.18965,-0.0863 z m 0.002,2.021065 a 0.25508652,0.25459082 0 0 0 -0.188623,0.08733 0.30769191,0.30709399 0 0 0 0,0.40411 0.25409397,0.2536002 0 0 0 0.189653,0.0863 h 2.35283 a 3.9026041,3.9026041 0 0 1 0.33331,-0.577743 z m 0.001,2.017965 a 0.2511163,0.25062832 0 0 0 -0.188619,0.08733 h -0.001 a 0.30769191,0.30709399 0 0 0 0,0.40411 0.25707162,0.25657207 0 0 0 0.189649,0.08527 h 2.00505 a 3.9026041,3.9026041 0 0 1 -0.0186,-0.365869 3.9026041,3.9026041 0 0 1 0.009,-0.21084 z" /><path
         id="path6698-1"
         style="fill:#2c80ca;stroke-width:0.522488"
         d="m 106.04116,35.547349 c -0.81906,0 -1.55714,0.33033 -2.09342,0.86662 -0.53461,0.53681 -0.86713,1.2776 -0.86713,2.09444 0,0.21839 0.0236,0.431 0.0682,0.63562 a 2.9765625,2.9765625 0 0 0 0.005,0.0238 c 0.10683,0.47139 0.32598,0.8993 0.62839,1.25574 a 2.9765625,2.9765625 0 0 0 0.0734,0.0837 c 0.0297,0.0324 0.0604,0.0645 0.0915,0.0956 0.27893,0.2775 0.61281,0.50027 0.98392,0.6506 a 2.9765625,2.9765625 0 0 0 0.19533,0.0713 c 0.28831,0.0937 0.59551,0.14469 0.91468,0.14469 0.0987,0 0.19628,-0.006 0.29249,-0.015 a 2.9765625,2.9765625 0 0 0 0.28628,-0.0419 c 0.38621,-0.0765 0.74574,-0.22779 1.06195,-0.43874 l 1.2361,1.35961 0.88419,-0.8077 -1.2821,-1.39682 c 0.0504,-0.077 0.0973,-0.15683 0.14056,-0.23874 a 2.9765625,2.9765625 0 0 0 0.1323,-0.28784 c 0.13455,-0.33847 0.20929,-0.70802 0.20929,-1.09399 0,-0.0201 -6.4e-4,-0.04 -10e-4,-0.0599 a 2.9765625,2.9765625 0 0 0 -0.0155,-0.25787 c -0.046,-0.4332 -0.18537,-0.83826 -0.39739,-1.19476 a 2.9765625,2.9765625 0 0 0 -0.0853,-0.13436 c -0.10776,-0.16081 -0.23088,-0.31085 -0.36741,-0.44751 -0.18491,-0.18397 -0.39412,-0.34359 -0.62219,-0.47439 a 2.9765625,2.9765625 0 0 0 -0.0646,-0.0367 c -0.41403,-0.22392 -0.88728,-0.35252 -1.38958,-0.35554 -0.002,-10e-6 -0.004,1e-5 -0.006,0 -0.004,-2e-5 -0.008,0 -0.0124,0 z m 0.0145,0.66146 a 2.3151042,2.3151042 0 0 1 1.63711,0.67696 2.3058684,2.3058684 0 0 1 0.67902,1.64176 2.3151042,2.3151042 0 1 1 -2.31613,-2.31872 z" /></g></g><style
     type="text/css"
     id="style12387">.st0{fill-rule:evenodd;clip-rule:evenodd;}</style></svg>
