<?xml version="1.0" encoding="UTF-8" standalone="no"?>
<!-- Created with Inkscape (http://www.inkscape.org/) -->

<svg
   width="50"
   height="50"
   viewBox="0 0 13.229166 13.229167"
   version="1.1"
   id="svg8528"
   inkscape:version="1.2.2 (b0a8486541, 2022-12-01)"
   sodipodi:docname="document-remove.svg"
   xmlns:inkscape="http://www.inkscape.org/namespaces/inkscape"
   xmlns:sodipodi="http://sodipodi.sourceforge.net/DTD/sodipodi-0.dtd"
   xmlns="http://www.w3.org/2000/svg"
   xmlns:svg="http://www.w3.org/2000/svg">
  <sodipodi:namedview
     id="namedview8530"
     pagecolor="#505050"
     bordercolor="#eeeeee"
     borderopacity="1"
     inkscape:showpageshadow="false"
     inkscape:pageopacity="0"
     inkscape:pagecheckerboard="0"
     inkscape:deskcolor="#505050"
     inkscape:document-units="mm"
     showgrid="false"
     inkscape:zoom="7.3192482"
     inkscape:cx="22.679925"
     inkscape:cy="26.300516"
     inkscape:window-width="1575"
     inkscape:window-height="1282"
     inkscape:window-x="26"
     inkscape:window-y="23"
     inkscape:window-maximized="0"
     inkscape:current-layer="layer1" />
  <defs
     id="defs8525" />
  <g
     inkscape:label="Ebene 1"
     inkscape:groupmode="layer"
     id="layer1">
    <g
       id="g7987"
       transform="translate(-133.61458,-29.104166)">
      <path
         id="path12445-3-3-9"
         style="fill:#919191;fill-opacity:1;stroke-width:0.0991592"
         d="m 135.5757,29.104167 a 0.63721993,0.63598172 0 0 0 -0.6382,0.63717 V 40.63783 a 0.63721993,0.63598172 0 0 0 0.6382,0.63717 h 4.4943 c 0.0949,-0.251976 0.25666,-0.491347 0.44442,-0.709517 h -0.63872 -4.22558 V 29.812651 h 5.04413 v 2.883544 a 0.35831215,0.3576159 0 0 0 0.35812,0.357601 h 2.9621 v 2.328024 1.734777 c 0.22051,-0.141824 0.46344,-0.242284 0.71055,-0.281636 V 35.38182 32.627983 h 0.002 a 0.83076805,0.82915375 0 0 0 -0.26096,-0.342098 l -3.1378,-3.050977 a 0.35037172,0.3496909 0 0 0 -0.27388,-0.130741 z m 5.83324,1.245402 2.13217,1.99316 h -2.13217 z m -4.2509,1.899625 a 0.25508649,0.25459082 0 0 0 -0.18862,0.08733 l -0.001,-0.0078 a 0.30769188,0.30709399 0 0 0 0,0.40411 0.25409394,0.2536002 0 0 0 0.18966,0.0863 h 1.93631 a 0.25607905,0.25558145 0 0 0 0.18862,-0.08733 0.30471421,0.30412211 0 0 0 0.0744,-0.197921 0.29776634,0.29718774 0 0 0 -0.0755,-0.198437 0.25409394,0.2536002 0 0 0 -0.18965,-0.0863 z m -0.003,2.017965 a 0.25607905,0.25558145 0 0 0 -0.18552,0.08733 l -10e-4,-0.0078 a 0.30769188,0.30709399 0 0 0 0,0.404109 0.25409394,0.2536002 0 0 0 0.18966,0.0863 h 4.18475 a 0.25508649,0.25459082 0 0 0 0.18811,-0.08733 0.30570678,0.30511275 0 0 0 0.0765,-0.198438 0.29776634,0.29718774 0 0 0 -0.0755,-0.19792 0.25310138,0.25260957 0 0 0 -0.18965,-0.0863 z m 0.002,2.021065 a 0.25508649,0.25459082 0 0 0 -0.18862,0.08733 0.30769188,0.30709399 0 0 0 0,0.40411 0.25409394,0.2536002 0 0 0 0.18966,0.0863 h 3.89588 c 0.24858,-0.07525 0.51406,-0.08331 0.76688,0 h 0.6842 a 0.25508649,0.25459082 0 0 0 0.19017,-0.0863 0.30769188,0.30709399 0 0 0 0,-0.40411 0.2570716,0.25657207 0 0 0 -0.18966,-0.08733 z m 0.001,2.017965 a 0.25111627,0.25062832 0 0 0 -0.18862,0.08733 h -0.001 a 0.30769188,0.30709399 0 0 0 0,0.40411 0.2570716,0.25657207 0 0 0 0.18966,0.08527 h 2.98069 c -0.0635,-0.124929 -0.10861,-0.258375 -0.12764,-0.403593 -0.0125,-0.058 -0.0207,-0.115967 -0.0248,-0.173116 z" />
      <path
         class="cls-1"
         d="m 141.04839,37.861042 v 0 a 0.78527502,0.78527502 0 0 1 1.10925,0 l 1.01363,1.013242 1.01095,-1.013242 a 0.78565753,0.78565753 0 0 1 1.10926,0 v 0 a 0.78527502,0.78527502 0 0 1 0,1.109257 l -1.0144,1.011322 1.01325,1.013252 a 0.78565753,0.78565753 0 0 1 0,1.109247 v 0 a 0.78565753,0.78565753 0 0 1 -1.10926,0 l -1.01209,-1.014392 -1.01134,1.013252 a 0.78565753,0.78565753 0 0 1 -1.10925,0 v 0 a 0.78565753,0.78565753 0 0 1 0,-1.109256 l 1.01248,-1.012103 -1.01248,-1.013622 a 0.78527502,0.78527502 0 0 1 0,-1.106957 z"
         id="path19901-6"
         style="fill:#ee0000;fill-opacity:1;fill-rule:evenodd;stroke-width:0.0382501" />
    </g>
  </g>
</svg>
