<?xml version="1.0" encoding="UTF-8" standalone="no"?>
<!-- Created with Inkscape (http://www.inkscape.org/) -->

<svg
   width="50"
   height="50"
   viewBox="0 0 13.229166 13.229167"
   version="1.1"
   id="svg8528"
   inkscape:version="1.2.2 (b0a8486541, 2022-12-01)"
   sodipodi:docname="document.svg"
   xml:space="preserve"
   xmlns:inkscape="http://www.inkscape.org/namespaces/inkscape"
   xmlns:sodipodi="http://sodipodi.sourceforge.net/DTD/sodipodi-0.dtd"
   xmlns="http://www.w3.org/2000/svg"
   xmlns:svg="http://www.w3.org/2000/svg"><sodipodi:namedview
     id="namedview8530"
     pagecolor="#505050"
     bordercolor="#eeeeee"
     borderopacity="1"
     inkscape:showpageshadow="false"
     inkscape:pageopacity="0"
     inkscape:pagecheckerboard="0"
     inkscape:deskcolor="#505050"
     inkscape:document-units="mm"
     showgrid="false"
     inkscape:zoom="7.3192482"
     inkscape:cx="30.330984"
     inkscape:cy="29.306289"
     inkscape:window-width="1575"
     inkscape:window-height="1282"
     inkscape:window-x="26"
     inkscape:window-y="23"
     inkscape:window-maximized="0"
     inkscape:current-layer="g5976"
     showguides="true" /><defs
     id="defs8525" /><g
     inkscape:label="Ebene 1"
     inkscape:groupmode="layer"
     id="layer1"><g
       id="g5976"
       transform="matrix(0.63004102,0,0,0.63004102,-28.534777,-77.109542)"><path
         d="m 62.928085,127.98087 a 1.3185935,1.3160314 0 0 0 -0.414322,-0.54245 l -4.979803,-4.84274 a 0.55610935,0.5550288 0 0 0 -0.434813,-0.20755 h -8.696101 a 1.0113943,1.0094291 0 0 0 -1.012966,1.011 v 17.29552 a 1.0113943,1.0094291 0 0 0 1.012966,1.011 H 61.91669 a 1.0113943,1.0094291 0 0 0 1.008236,-1.011 v -8.34273 0 -4.37105 z m -5.266515,-3.61633 3.383923,3.1635 H 57.66157 Z m -2.433968,16.21533 h -6.706389 v -17.06753 h 8.006082 v 4.57702 a 0.56871237,0.56760735 0 0 0 0.568709,0.5676 h 4.700964 v 3.69496 0 8.22795 z m -4.612716,-9.85844 a 0.40644819,0.40565844 0 0 1 0.2946,-0.13836 h 6.64652 a 0.40172205,0.40094148 0 0 1 0.300901,0.13679 0.47261418,0.47169588 0 0 1 0.119675,0.31447 0.48521723,0.48427444 0 0 1 -0.121262,0.31446 0.4048728,0.40408612 0 0 1 -0.29933,0.13837 H 50.9142 a 0.40329742,0.40251381 0 0 1 -0.300901,-0.1368 0.48836798,0.48741906 0 0 1 0,-0.64151 z m 0,6.41034 a 0.39857129,0.39779684 0 0 1 0.29933,-0.13837 h 8.488146 a 0.40172205,0.40094148 0 0 1 0.300901,0.13837 0.48836798,0.48741906 0 0 1 0,0.64151 0.40802356,0.40723075 0 0 1 -0.302472,0.13523 h -8.486575 a 0.40802356,0.40723075 0 0 1 -0.300901,-0.13523 0.48836798,0.48741906 0 0 1 0,-0.64151 z m 8.787476,-3.34118 a 0.40802356,0.40723075 0 0 1 0.300901,0.13838 0.48836798,0.48741906 0 0 1 0,0.6415 0.4048728,0.40408612 0 0 1 -0.302472,0.1368 h -8.486575 a 0.40329742,0.40251381 0 0 1 -0.300901,-0.1368 0.48836798,0.48741906 0 0 1 0,-0.6415 0.4048728,0.40408612 0 0 1 0.299314,-0.13838 z m -8.787476,-6.27198 a 0.4048728,0.40408612 0 0 1 0.29933,-0.13838 h 3.070403 a 0.40329742,0.40251381 0 0 1 0.300901,0.1368 0.47261418,0.47169588 0 0 1 0.119675,0.31447 0.48364183,0.4827021 0 0 1 -0.118088,0.31446 v 0 a 0.40644819,0.40565844 0 0 1 -0.299313,0.13837 h -3.073578 a 0.40329742,0.40251381 0 0 1 -0.300901,-0.1368 0.48836798,0.48741906 0 0 1 0,-0.6415 z"
         id="path12445-3-3"
         style="fill:#919191;fill-opacity:1;stroke-width:0.157385" /></g></g><style
     type="text/css"
     id="style12387">.st0{fill-rule:evenodd;clip-rule:evenodd;}</style></svg>
