<?xml version="1.0" encoding="UTF-8" standalone="no"?>
<!-- Created with Inkscape (http://www.inkscape.org/) -->

<svg
   width="50"
   height="50"
   viewBox="0 0 13.229166 13.229167"
   version="1.1"
   id="svg8528"
   inkscape:version="1.2.2 (b0a8486541, 2022-12-01)"
   sodipodi:docname="document-scheduled.svg"
   xmlns:inkscape="http://www.inkscape.org/namespaces/inkscape"
   xmlns:sodipodi="http://sodipodi.sourceforge.net/DTD/sodipodi-0.dtd"
   xmlns="http://www.w3.org/2000/svg"
   xmlns:svg="http://www.w3.org/2000/svg">
  <sodipodi:namedview
     id="namedview8530"
     pagecolor="#505050"
     bordercolor="#eeeeee"
     borderopacity="1"
     inkscape:showpageshadow="false"
     inkscape:pageopacity="0"
     inkscape:pagecheckerboard="0"
     inkscape:deskcolor="#505050"
     inkscape:document-units="mm"
     showgrid="false"
     inkscape:zoom="7.3192482"
     inkscape:cx="22.406673"
     inkscape:cy="26.300516"
     inkscape:window-width="1575"
     inkscape:window-height="1282"
     inkscape:window-x="26"
     inkscape:window-y="23"
     inkscape:window-maximized="0"
     inkscape:current-layer="layer1" />
  <defs
     id="defs8525" />
  <g
     inkscape:label="Ebene 1"
     inkscape:groupmode="layer"
     id="layer1">
    <g
       id="g7214"
       transform="translate(-78.052083,-29.104166)">
      <path
         id="path17617-2-4-6-2"
         style="fill:#2c80ca;fill-opacity:1;stroke-width:0.107613"
         d="m 87.776628,36.38021 a 2.9722579,2.9722579 0 0 0 -2.10582,0.87178 2.9765625,2.9765625 0 1 0 2.10582,-0.87178 z m -0.003,0.66145 a 2.3151042,2.3151042 0 0 1 1.63711,0.67697 2.3058684,2.3058684 0 0 1 0.67903,1.64176 2.3151042,2.3151042 0 1 1 -2.31614,-2.31873 z m -0.005,0.45734 c -0.18322,0 -0.33073,0.14751 -0.33073,0.33073 v 1.55288 c 0,0.11998 0.063,0.22419 0.15813,0.28215 0.005,0.003 0.01,0.006 0.0145,0.009 h 5.2e-4 c 0.001,7.6e-4 0.003,0.002 0.004,0.003 l 0.81752,0.45785 c 0.15986,0.0895 0.36109,0.0327 0.45061,-0.12712 0.0895,-0.15986 0.0327,-0.36057 -0.12712,-0.4501 l -0.65681,-0.36794 v -1.35909 c 0,-0.18322 -0.1475,-0.33073 -0.33073,-0.33073 z" />
      <path
         id="path19560-28-8-15"
         style="fill:#919191;fill-opacity:1;stroke-width:0.109512"
         d="M 80.012687,29.104167 A 0.638936,0.64016459 0 0 0 79.375,29.742887 v 10.943518 a 0.63018344,0.6313952 0 0 0 0.187068,0.40101 0.64112414,0.64235694 0 0 0 0.450619,0.187585 h 4.273641 c -0.02079,-0.0427 -0.0418,-0.08584 -0.0615,-0.129708 l -0.02377,-0.05323 -0.0186,-0.04393 -0.0186,-0.04392 c -0.01419,-0.03399 -0.02772,-0.06782 -0.04082,-0.101802 v -0.0078 l -0.0067,-0.0186 v -0.01085 -0.0067 l -0.0078,-0.02015 v -0.0078 -0.0067 -0.0078 -0.0083 l -0.0083,-0.02842 v -0.0078 -0.0098 l -0.0067,-0.01912 v -0.0098 -0.0067 -0.0083 -0.01033 -0.0078 -0.0067 -0.0098 -0.0067 -0.0083 -0.0098 -0.0088 -0.0041 A 3.9026041,3.9026041 0 0 1 84.083198,40.6134 H 80.088134 V 29.814718 h 5.045687 v 2.895947 a 0.35776039,0.35844832 0 0 0 0.357601,0.358118 h 2.96416 v 2.337325 0.108003 a 3.9026041,3.9026041 0 0 1 0.707967,0.195337 v -0.30334 h 10e-4 v -2.759005 a 0.35447818,0.3551598 0 0 0 -0.257865,-0.343132 l -3.140377,-3.069063 a 0.35229005,0.35296746 0 0 0 -0.274402,-0.130741 z m 5.834786,1.249536 2.131136,2.001428 h -2.131136 z m -4.220931,2.812748 a 0.25272982,0.25321578 0 0 0 -0.188619,0.08682 l -0.001,-0.0021 a 0.30852731,0.30912056 0 0 0 0,0.406694 0.25272982,0.25321578 0 0 0 0.189653,0.0863 h 2.474784 a 0.25382388,0.25431195 0 0 0 0.188102,-0.08785 0.30852731,0.30912056 0 0 0 0,-0.406694 0.25491796,0.25540813 0 0 0 -0.187068,-0.0832 z m -0.0047,1.897559 a 0.25382388,0.25431195 0 0 0 -0.183968,0.08785 l -10e-4,-0.0026 a 0.30743324,0.30802439 0 0 0 0,0.40566 0.25272982,0.25321578 0 0 0 0.189653,0.08682 h 4.185806 a 0.25382388,0.25431195 0 0 0 0.188102,-0.08785 0.30743324,0.30802439 0 0 0 0,-0.403593 0.25163575,0.25211961 0 0 0 -0.189136,-0.0863 z m 0.0078,1.900659 a 0.25601202,0.2565043 0 0 0 -0.189135,0.08785 0.29868069,0.29925502 0 0 0 -0.07545,0.201538 0.30524511,0.30583205 0 0 0 0.07441,0.204122 0.25382388,0.25431195 0 0 0 0.190169,0.0863 h 2.693893 a 3.9026041,3.9026041 0 0 1 0.373104,-0.579809 z m 0,1.894458 a 0.25601202,0.2565043 0 0 0 -0.189135,0.08733 0.29977476,0.30035119 0 0 0 -0.07545,0.203088 0.30415104,0.30473588 0 0 0 0.07441,0.202572 0.25382388,0.25431195 0 0 0 0.190169,0.08682 h 2.246892 a 3.9026041,3.9026041 0 0 1 -0.0036,-0.08216 3.9026041,3.9026041 0 0 1 0.03566,-0.497644 z" />
    </g>
  </g>
</svg>
