<?xml version="1.0" encoding="UTF-8" standalone="no"?>
<!-- Created with Inkscape (http://www.inkscape.org/) -->

<svg
   width="50"
   height="50"
   viewBox="0 0 13.229166 13.229167"
   version="1.1"
   id="svg8528"
   inkscape:version="1.2.2 (b0a8486541, 2022-12-01)"
   sodipodi:docname="document-empty.svg"
   xml:space="preserve"
   xmlns:inkscape="http://www.inkscape.org/namespaces/inkscape"
   xmlns:sodipodi="http://sodipodi.sourceforge.net/DTD/sodipodi-0.dtd"
   xmlns="http://www.w3.org/2000/svg"
   xmlns:svg="http://www.w3.org/2000/svg"><sodipodi:namedview
     id="namedview8530"
     pagecolor="#505050"
     bordercolor="#eeeeee"
     borderopacity="1"
     inkscape:showpageshadow="false"
     inkscape:pageopacity="0"
     inkscape:pagecheckerboard="0"
     inkscape:deskcolor="#505050"
     inkscape:document-units="mm"
     showgrid="false"
     inkscape:zoom="7.3192482"
     inkscape:cx="30.057732"
     inkscape:cy="23.841247"
     inkscape:window-width="1575"
     inkscape:window-height="1282"
     inkscape:window-x="26"
     inkscape:window-y="23"
     inkscape:window-maximized="0"
     inkscape:current-layer="g5976"
     showguides="true" /><defs
     id="defs8525" /><g
     inkscape:label="Ebene 1"
     inkscape:groupmode="layer"
     id="layer1"><g
       id="g5976"
       transform="matrix(0.63004102,0,0,0.63004102,-28.534777,-77.109542)"><path
         style="fill:#919191;fill-opacity:1;stroke-width:0.157385"
         d="m 62.928088,127.98087 a 1.3185936,1.3160314 0 0 0 -0.414325,-0.54245 l -4.979806,-4.84274 a 0.55610937,0.5550288 0 0 0 -0.434813,-0.20755 h -8.696097 a 1.0113943,1.0094291 0 0 0 -1.012967,1.01101 v 17.29551 a 1.0113943,1.0094291 0 0 0 1.012967,1.011 h 13.513642 a 1.0113943,1.0094291 0 0 0 1.008241,-1.011 v -8.34272 0 -4.37106 z m -5.266522,-3.61633 3.383931,3.16351 h -3.383931 z m -2.433969,16.21534 h -6.706393 v -17.06754 h 8.006083 v 4.57702 a 0.5687124,0.56760735 0 0 0 0.568709,0.56761 h 4.700964 v 3.69496 0 8.22795 z"
         id="path12445-3" /></g></g><style
     type="text/css"
     id="style12387">.st0{fill-rule:evenodd;clip-rule:evenodd;}</style></svg>
