<?xml version="1.0" encoding="UTF-8" standalone="no"?>
<!-- Created with Inkscape (http://www.inkscape.org/) -->

<svg
   width="50"
   height="50"
   viewBox="0 0 13.229166 13.229167"
   version="1.1"
   id="svg8528"
   inkscape:version="1.2.2 (b0a8486541, 2022-12-01)"
   sodipodi:docname="documents-binary.svg"
   xml:space="preserve"
   xmlns:inkscape="http://www.inkscape.org/namespaces/inkscape"
   xmlns:sodipodi="http://sodipodi.sourceforge.net/DTD/sodipodi-0.dtd"
   xmlns="http://www.w3.org/2000/svg"
   xmlns:svg="http://www.w3.org/2000/svg"><sodipodi:namedview
     id="namedview8530"
     pagecolor="#505050"
     bordercolor="#eeeeee"
     borderopacity="1"
     inkscape:showpageshadow="false"
     inkscape:pageopacity="0"
     inkscape:pagecheckerboard="0"
     inkscape:deskcolor="#505050"
     inkscape:document-units="mm"
     showgrid="false"
     inkscape:zoom="7.3192482"
     inkscape:cx="30.057732"
     inkscape:cy="23.841247"
     inkscape:window-width="1575"
     inkscape:window-height="1282"
     inkscape:window-x="26"
     inkscape:window-y="23"
     inkscape:window-maximized="0"
     inkscape:current-layer="g5976"
     showguides="true" /><defs
     id="defs8525" /><g
     inkscape:label="Ebene 1"
     inkscape:groupmode="layer"
     id="layer1"><g
       id="g5976"
       transform="matrix(0.63004102,0,0,0.63004102,-28.534777,-77.109542)"><g
         style="clip-rule:evenodd;fill:#919191;fill-opacity:1;fill-rule:evenodd;image-rendering:optimizeQuality;shape-rendering:geometricPrecision;text-rendering:geometricPrecision"
         id="g2689"
         transform="matrix(0.03739247,0,0,0.03770229,47.390079,122.38813)"><path
           fill-rule="nonzero"
           d="M 107.62,54.52 V 25.03 c 0,-6.9 2.82,-13.16 7.34,-17.69 C 119.49,2.82 125.75,0 132.65,0 h 191.46 c 3.22,0 6.1,1.45 8.03,3.74 l 102.87,105.4 c 1.97,2.03 2.96,4.66 2.96,7.29 L 438,432.82 c 0,6.82 -2.82,13.07 -7.36,17.62 l -0.04,0.05 c -4.57,4.54 -10.82,7.36 -17.63,7.36 h -82.59 v 29.49 c 0,6.84 -2.81,13.09 -7.35,17.64 l -0.04,0.04 c -4.57,4.54 -10.8,7.35 -17.64,7.35 H 25.03 c -6.9,0 -13.16,-2.82 -17.69,-7.34 C 2.82,500.5 0,494.24 0,487.34 V 79.56 C 0,72.65 2.82,66.39 7.34,61.87 11.87,57.34 18.13,54.52 25.03,54.52 Z m 309.41,76.03 h -78.85 c -8.54,0 -16.31,-3.51 -21.95,-9.14 l -0.04,-0.04 c -5.64,-5.64 -9.14,-13.41 -9.14,-21.95 V 20.97 h -174.4 c -1.1,0 -2.12,0.46 -2.86,1.2 -0.73,0.74 -1.2,1.76 -1.2,2.86 v 29.49 h 57.68 c 3.21,0 6.09,1.45 8.01,3.73 l 133.07,135.56 c 2,2.03 3,4.69 3,7.33 l 0.03,235.73 h 82.59 c 1.11,0 2.12,-0.45 2.84,-1.17 l 0.04,-0.04 c 0.72,-0.72 1.18,-1.73 1.18,-2.84 z M 405.34,109.58 328.02,30.81 v 68.61 c 0,2.8 1.14,5.35 2.97,7.19 1.84,1.83 4.39,2.97 7.19,2.97 z m -95.93,107.27 h -106.4 c -10.24,0 -19.55,-4.19 -26.29,-10.92 -6.73,-6.73 -10.92,-16.05 -10.92,-26.29 V 75.5 H 25.03 c -1.1,0 -2.12,0.46 -2.86,1.2 -0.73,0.73 -1.2,1.75 -1.2,2.86 v 407.78 c 0,1.1 0.47,2.12 1.2,2.86 0.74,0.74 1.76,1.2 2.86,1.2 h 280.32 c 1.13,0 2.14,-0.45 2.85,-1.16 l 0.05,-0.05 c 0.71,-0.71 1.16,-1.72 1.16,-2.85 z M 297.27,195.88 186.77,83.31 v 96.33 c 0,4.45 1.84,8.52 4.78,11.46 2.95,2.95 7.01,4.78 11.46,4.78 z"
           id="path2680"
           style="fill:#919191;fill-opacity:1" /></g></g></g><style
     type="text/css"
     id="style12387">.st0{fill-rule:evenodd;clip-rule:evenodd;}</style></svg>
