<?xml version="1.0" encoding="UTF-8" standalone="no"?>
<!-- Created with Inkscape (http://www.inkscape.org/) -->

<svg
   width="50"
   height="50"
   viewBox="0 0 13.229166 13.229167"
   version="1.1"
   id="svg8528"
   inkscape:version="1.2.2 (b0a8486541, 2022-12-01)"
   sodipodi:docname="error.svg"
   xml:space="preserve"
   xmlns:inkscape="http://www.inkscape.org/namespaces/inkscape"
   xmlns:sodipodi="http://sodipodi.sourceforge.net/DTD/sodipodi-0.dtd"
   xmlns="http://www.w3.org/2000/svg"
   xmlns:svg="http://www.w3.org/2000/svg"><sodipodi:namedview
     id="namedview8530"
     pagecolor="#505050"
     bordercolor="#eeeeee"
     borderopacity="1"
     inkscape:showpageshadow="false"
     inkscape:pageopacity="0"
     inkscape:pagecheckerboard="0"
     inkscape:deskcolor="#505050"
     inkscape:document-units="mm"
     showgrid="false"
     inkscape:zoom="20.70196"
     inkscape:cx="25.69805"
     inkscape:cy="21.954443"
     inkscape:window-width="2262"
     inkscape:window-height="1282"
     inkscape:window-x="26"
     inkscape:window-y="23"
     inkscape:window-maximized="0"
     inkscape:current-layer="layer1" /><defs
     id="defs8525" /><g
     inkscape:label="Ebene 1"
     inkscape:groupmode="layer"
     id="layer1"><path
       id="path9247"
       style="fill:#ee0000;fill-opacity:1;stroke-width:0.107866"
       d="M 6.6145843,0.79375294 A 5.8208559,5.8208528 0 0 0 0.79374976,6.6145863 5.8208559,5.8208528 0 0 0 6.6145843,12.43542 5.8208559,5.8208528 0 0 0 12.435416,6.6145863 5.8208559,5.8208528 0 0 0 6.6145843,0.79375294 Z m 0,0.64672266 A 5.1740942,5.1740914 0 0 1 11.788693,6.6145863 5.1740942,5.1740914 0 0 1 6.6145843,11.788697 5.1740942,5.1740914 0 0 1 1.4404721,6.6145863 5.1740942,5.1740914 0 0 1 6.6145843,1.4404756 Z" /><path
       id="path9573"
       style="fill:#ee0000;fill-opacity:1;stroke-width:0.110176"
       d="M 6.6145833 2.0872111 C 4.1142942 2.0873636 2.0871789 4.1142956 2.0872111 6.6145833 C 2.0873613 9.114742 4.1144232 11.141804 6.6145833 11.141956 C 9.1148729 11.141987 11.141806 9.1148715 11.141956 6.6145833 C 11.141988 4.1141661 9.1150019 2.0871804 6.6145833 2.0872111 z M 6.6244019 3.2127238 C 7.2017812 3.2127238 7.5767985 3.6268336 7.5767985 4.2715739 C 7.5767985 4.5506405 7.5382647 4.7523743 7.3458049 5.5510824 C 7.1340992 6.4845121 7.0762353 6.8886362 7.0088745 7.812443 L 6.2202922 7.812443 C 6.1336851 6.917505 6.0469527 6.340307 5.8833618 5.60896 C 5.690902 4.7428909 5.6523682 4.4924975 5.6523682 4.174939 C 5.6523682 3.6360516 6.0758916 3.2127238 6.6244019 3.2127238 z M 6.5918457 8.2361898 C 6.5994705 8.2359983 6.606915 8.2361898 6.6145833 8.2361898 C 7.1053557 8.2361898 7.4998006 8.6306347 7.4998006 9.1214071 C 7.4998006 9.6121795 7.0955372 10.016443 6.6047648 10.016443 C 6.1139925 10.016443 5.7195475 9.6123052 5.7195475 9.1022868 C 5.7195475 8.6381279 6.1114822 8.2482503 6.5918457 8.2361898 z " /></g></svg>
