<?xml version="1.0" encoding="UTF-8" standalone="no"?>
<!-- Created with Inkscape (http://www.inkscape.org/) -->

<svg
   width="16"
   height="16"
   viewBox="0 0 4.2333331 4.2333334"
   version="1.1"
   id="svg8528"
   inkscape:version="1.2.2 (b0a8486541, 2022-12-01)"
   sodipodi:docname="error16.svg"
   xml:space="preserve"
   xmlns:inkscape="http://www.inkscape.org/namespaces/inkscape"
   xmlns:sodipodi="http://sodipodi.sourceforge.net/DTD/sodipodi-0.dtd"
   xmlns="http://www.w3.org/2000/svg"
   xmlns:svg="http://www.w3.org/2000/svg"><sodipodi:namedview
     id="namedview8530"
     pagecolor="#505050"
     bordercolor="#eeeeee"
     borderopacity="1"
     inkscape:showpageshadow="false"
     inkscape:pageopacity="0"
     inkscape:pagecheckerboard="0"
     inkscape:deskcolor="#505050"
     inkscape:document-units="mm"
     showgrid="false"
     inkscape:zoom="20.70196"
     inkscape:cx="25.746354"
     inkscape:cy="-2.5601441"
     inkscape:window-width="1990"
     inkscape:window-height="1211"
     inkscape:window-x="0"
     inkscape:window-y="0"
     inkscape:window-maximized="1"
     inkscape:current-layer="layer1" /><defs
     id="defs8525" /><g
     inkscape:label="Ebene 1"
     inkscape:groupmode="layer"
     id="layer1"><g
       id="g291"
       transform="matrix(0.31818183,0,0,0.31818183,0.01202658,0.01202557)"><path
         id="path9247"
         style="fill:#ee0000;fill-opacity:1;stroke-width:0.107866"
         d="M 6.6145844,0.79375294 A 5.8208562,5.8208526 0 0 0 0.79374976,6.6145861 5.8208562,5.8208526 0 0 0 6.6145844,12.43542 5.8208562,5.8208526 0 0 0 12.435416,6.6145861 5.8208562,5.8208526 0 0 0 6.6145844,0.79375294 Z m 0,0.64672266 A 5.1740946,5.1740912 0 0 1 11.788693,6.6145861 5.1740946,5.1740912 0 0 1 6.6145844,11.788697 5.1740946,5.1740912 0 0 1 1.4404721,6.6145861 5.1740946,5.1740912 0 0 1 6.6145844,1.4404756 Z" /><path
         id="path9573"
         style="fill:#ee0000;fill-opacity:1;stroke-width:0.110176"
         d="M 6.6145833,2.0872111 C 4.1142942,2.0873636 2.0871789,4.1142956 2.0872111,6.6145833 2.0873613,9.114742 4.1144232,11.141804 6.6145833,11.141956 9.1148729,11.141987 11.141806,9.1148715 11.141956,6.6145833 11.141988,4.1141661 9.1150019,2.0871804 6.6145833,2.0872111 Z m 0.00982,1.1255127 c 0.5773793,0 0.9523966,0.4141098 0.9523966,1.0588501 0,0.2790666 -0.038534,0.4808004 -0.2309936,1.2795085 C 7.1340992,6.4845121 7.0762353,6.8886362 7.0088745,7.812443 H 6.2202922 C 6.1336851,6.917505 6.0469527,6.340307 5.8833618,5.60896 5.690902,4.7428909 5.6523682,4.4924975 5.6523682,4.174939 c 0,-0.5388874 0.4235234,-0.9622152 0.9720337,-0.9622152 z m -0.032556,5.023466 c 0.00762,-1.915e-4 0.015069,0 0.022738,0 0.4907724,0 0.8852173,0.3944449 0.8852173,0.8852173 0,0.4907724 -0.4042634,0.8950359 -0.8950358,0.8950359 -0.4907723,0 -0.8852173,-0.4041378 -0.8852173,-0.9141562 0,-0.4641589 0.3919347,-0.8540365 0.8722978,-0.866097 z" /></g></g></svg>
