<?xml version="1.0" encoding="UTF-8" standalone="no"?>
<!-- Created with Inkscape (http://www.inkscape.org/) -->

<svg
   width="50"
   height="50"
   viewBox="0 0 13.229166 13.229167"
   version="1.1"
   id="svg8528"
   inkscape:version="1.2.2 (b0a8486541, 2022-12-01)"
   sodipodi:docname="extra.svg"
   xmlns:inkscape="http://www.inkscape.org/namespaces/inkscape"
   xmlns:sodipodi="http://sodipodi.sourceforge.net/DTD/sodipodi-0.dtd"
   xmlns="http://www.w3.org/2000/svg"
   xmlns:svg="http://www.w3.org/2000/svg">
  <sodipodi:namedview
     id="namedview8530"
     pagecolor="#505050"
     bordercolor="#eeeeee"
     borderopacity="1"
     inkscape:showpageshadow="false"
     inkscape:pageopacity="0"
     inkscape:pagecheckerboard="0"
     inkscape:deskcolor="#505050"
     inkscape:document-units="mm"
     showgrid="false"
     inkscape:zoom="10.35098"
     inkscape:cx="32.895436"
     inkscape:cy="36.856414"
     inkscape:window-width="1575"
     inkscape:window-height="1282"
     inkscape:window-x="26"
     inkscape:window-y="23"
     inkscape:window-maximized="0"
     inkscape:current-layer="layer1"
     showguides="true" />
  <defs
     id="defs8525" />
  <g
     inkscape:label="Ebene 1"
     inkscape:groupmode="layer"
     id="layer1">
    <g
       style="clip-rule:evenodd;fill:#919191;fill-opacity:1;fill-rule:evenodd;image-rendering:optimizeQuality;shape-rendering:geometricPrecision;text-rendering:geometricPrecision"
       id="g14678"
       transform="matrix(0,-0.02480471,0.02480471,0,0.26457964,12.964056)">
      <path
         d="m 169.857,282.46 113.208,-113.208 1.302,-1.279 c 7.184,-6.504 14.611,-15.039 19.88,-23.723 4.284,-7.06 7.109,-14.159 7.109,-20.192 0,-14.896 -2.87,-28.161 0.109,-43.298 l 0.039,-0.257 c 8.078,-40.302 38.979,-70.623 79.45,-78.449 17.583,-3.4 36.044,-2.422 54.44,1.778 5.593,1.276 8.496,2.609 8.954,5.726 0.39,2.633 -1.61,5.367 -5.786,9.619 l -0.167,0.183 -51.336,51.323 c -4.673,4.663 -7.065,7.05 -7.851,9.585 -2.342,7.534 3.084,21.713 6.133,28.536 0.87,1.947 1.7,3.802 2.375,5.48 1.677,0.676 3.532,1.505 5.481,2.376 6.826,3.049 20.998,8.473 28.536,6.133 2.536,-0.788 4.922,-3.179 9.585,-7.851 6.346,-6.352 49.269,-50.351 51.346,-51.348 4.344,-4.282 7.113,-6.336 9.779,-5.943 3.116,0.461 4.45,3.362 5.726,8.956 10.738,47.047 -1.592,95.949 -44.84,121.73 -20.642,12.306 -37.808,14.645 -61.123,12.972 -4.591,-0.328 -9.265,-0.665 -14.264,-0.665 -6.033,0 -13.133,2.826 -20.192,7.109 -8.332,5.056 -16.613,12.017 -22.918,19.003 l -0.896,0.992 -115.556,115.556 c -0.252,0.252 -0.502,0.488 -0.747,0.723 -7.185,6.506 -14.612,15.039 -19.881,23.724 -4.283,7.06 -7.109,14.159 -7.109,20.192 0,31.883 5.39,45.701 -12.307,75.387 -14.587,24.471 -39.385,41.219 -67.29,46.615 -17.583,3.401 -36.044,2.423 -54.44,-1.776 -5.593,-1.276 -8.495,-2.61 -8.956,-5.726 -0.388,-2.632 1.612,-5.367 5.788,-9.619 l 0.167,-0.182 c 17.109,-17.109 34.216,-34.233 51.336,-51.322 4.671,-4.663 7.064,-7.05 7.851,-9.587 2.336,-7.521 -3.091,-21.728 -6.133,-28.535 -0.871,-1.949 -1.7,-3.804 -2.375,-5.482 -1.677,-0.675 -3.53,-1.503 -5.475,-2.373 -6.834,-3.054 -21.003,-8.476 -28.542,-6.135 -2.534,0.787 -4.922,3.177 -9.584,7.849 -6.33,6.343 -49.283,50.358 -51.347,51.349 -4.344,4.283 -7.113,6.337 -9.779,5.943 -3.116,-0.459 -4.45,-3.361 -5.726,-8.955 -4.199,-18.396 -5.177,-36.857 -1.777,-54.441 5.396,-27.902 22.147,-52.704 46.617,-67.289 29.645,-17.674 44.81,-12.308 75.387,-12.308 6.033,0 13.132,-2.825 20.191,-7.108 8.604,-5.221 17.062,-12.56 23.543,-19.682 z M 332.995,197.42 202.098,328.317 c -12.181,12.181 -30.595,-6.234 -18.414,-18.414 L 314.581,179.006 c 12.18,-12.18 30.593,6.233 18.414,18.414 z"
         id="path14669"
         style="fill:#919191;fill-opacity:1" />
    </g>
  </g>
</svg>
