<?xml version="1.0" encoding="UTF-8" standalone="no"?>
<!-- Created with Inkscape (http://www.inkscape.org/) -->

<svg
   width="50"
   height="50"
   viewBox="0 0 13.229166 13.229167"
   version="1.1"
   id="svg8528"
   inkscape:version="1.2.2 (b0a8486541, 2022-12-01)"
   sodipodi:docname="log.svg"
   xml:space="preserve"
   xmlns:inkscape="http://www.inkscape.org/namespaces/inkscape"
   xmlns:sodipodi="http://sodipodi.sourceforge.net/DTD/sodipodi-0.dtd"
   xmlns="http://www.w3.org/2000/svg"
   xmlns:svg="http://www.w3.org/2000/svg"><sodipodi:namedview
     id="namedview8530"
     pagecolor="#505050"
     bordercolor="#eeeeee"
     borderopacity="1"
     inkscape:showpageshadow="false"
     inkscape:pageopacity="0"
     inkscape:pagecheckerboard="0"
     inkscape:deskcolor="#505050"
     inkscape:document-units="mm"
     showgrid="false"
     inkscape:zoom="10.35098"
     inkscape:cx="19.321842"
     inkscape:cy="21.350635"
     inkscape:window-width="1990"
     inkscape:window-height="1211"
     inkscape:window-x="0"
     inkscape:window-y="0"
     inkscape:window-maximized="1"
     inkscape:current-layer="g5976"
     showguides="true" /><defs
     id="defs8525" /><g
     inkscape:label="Ebene 1"
     inkscape:groupmode="layer"
     id="layer1"><g
       id="g5976"
       transform="matrix(0.63004102,0,0,0.63004102,-28.534777,-77.109542)"><g
         id="g480"><path
           id="use5584-3"
           style="fill:#919191;fill-opacity:1;stroke-width:0.164177"
           d="m 53.94271,122.38813 a 5.7525634,5.9065347 0 0 1 8.2e-4,8.2e-4 l -5.323966,8.2e-4 a 1.2281244,1.2378264 0 0 0 -0.830871,0.32972 l -0.0369,0.0344 a 1.2264891,1.2361782 0 0 0 -0.361711,0.87516 v 7.71652 9.11988 0.009 a 1.2264891,1.2361782 0 0 0 0.01555,0.15583 1.2248539,1.23453 0 0 0 0.0075,0.0656 1.2264891,1.2361782 0 0 0 0.04676,0.16486 1.2248539,1.23453 0 0 0 0.01886,0.0607 1.2264891,1.2361782 0 0 0 0.09514,0.18783 1.2248539,1.23453 0 0 0 0.0057,0.0106 1.2264891,1.2361782 0 0 0 0.134515,0.17717 1.2248539,1.23453 0 0 0 0.0033,0.004 l 0.0033,0.004 a 1.2264891,1.2361782 0 0 0 0.03281,0.0394 1.2313951,1.2411229 0 0 0 0.627459,0.33711 1.2264891,1.2361782 0 0 0 8.21e-4,0 1.2313951,1.2411229 0 0 0 0.237861,0.0238 1.2264891,1.2361782 0 0 0 0.0024,0 h 8.593314 a 5.7525634,5.9065347 0 0 1 -8.2e-4,-8.2e-4 l 5.323966,-8.2e-4 a 1.2281244,1.2378264 0 0 0 0.83087,-0.32972 l 0.03773,-0.0344 a 1.2264891,1.2361782 0 0 0 0.360893,-0.87516 v -7.71652 -9.11988 -0.009 a 1.2264891,1.2361782 0 0 0 -0.01555,-0.15585 1.2264891,1.2361782 0 0 0 -0.0065,-0.064 1.2248539,1.23453 0 0 0 -8.21e-4,-0.002 1.2264891,1.2361782 0 0 0 -0.05414,-0.19111 1.2248539,1.23453 0 0 0 -0.0098,-0.0303 1.2264891,1.2361782 0 0 0 -0.100073,-0.19767 1.2264891,1.2361782 0 0 0 -0.0016,-0.004 1.2248539,1.23453 0 0 0 -8.2e-4,-8.2e-4 1.2264891,1.2361782 0 0 0 -0.137801,-0.18126 1.2264891,1.2361782 0 0 0 -0.03527,-0.0435 1.2313951,1.2411229 0 0 0 -0.627459,-0.3371 1.2313951,1.2411229 0 0 0 -0.0016,0 1.2264891,1.2361782 0 0 0 -0.237861,-0.0238 h -0.0024 z m -5.323146,1.06709 h 13.916459 a 0.1733438,0.17471319 0 0 1 0.121389,0.0508 l 0.01476,0.0148 a 0.16353188,0.16482375 0 0 1 0.02789,0.05 0.16353188,0.16482375 0 0 1 0,8.2e-4 0.1733438,0.17471319 0 0 1 0.0098,0.0476 0.16353188,0.16482375 0 0 1 0,8.2e-4 0.16353188,0.16482375 0 0 1 0,8.2e-4 0.16353188,0.16482375 0 0 1 0,8.2e-4 0.16353188,0.16482375 0 0 1 0,8.2e-4 0.16353188,0.16482375 0 0 1 0,8.2e-4 0.16353188,0.16482375 0 0 1 0,8.2e-4 0.16353188,0.16482375 0 0 1 0,8.2e-4 0.16353188,0.16482375 0 0 1 0,8.2e-4 0.16353188,0.16482375 0 0 1 0,8.2e-4 0.16353188,0.16482375 0 0 1 0,8.2e-4 0.16353188,0.16482375 0 0 1 0,8.2e-4 v 8.86809 7.96831 a 0.1733438,0.17471319 0 0 1 -0.05003,0.12222 l -0.01397,0.014 a 0.16353188,0.16482375 0 0 1 -0.107453,0.0377 h -13.91728 a 0.1733438,0.17471319 0 0 1 -0.120564,-0.0508 l -0.01476,-0.0148 a 0.16353188,0.16482375 0 0 1 -0.02789,-0.05 0.16353188,0.16482375 0 0 1 -0.0098,-0.0574 v -8.86809 -7.96831 a 0.1733438,0.17471319 0 0 1 0.05085,-0.12221 l 0.01317,-0.014 a 0.16353188,0.16482375 0 0 1 0.107453,-0.0377 z" /><path
           style="fill:#919191;fill-opacity:1;stroke-width:0.164177"
           d="m 50.972761,132.06126 c -0.66253,0.11663 -0.66253,1.07513 0,1.19177 h 9.21257 c 0.66253,-0.11664 0.66253,-1.07513 0,-1.19177 z"
           id="path700"
           sodipodi:nodetypes="ccccc" /><path
           style="fill:#919191;fill-opacity:1;stroke-width:0.164177"
           d="m 50.972761,129.0103 c -0.66253,0.11663 -0.66253,1.07513 0,1.19176 h 9.21257 c 0.66253,-0.11665 0.66253,-1.07513 0,-1.19176 z"
           id="path696"
           sodipodi:nodetypes="ccccc" /><path
           style="fill:#919191;fill-opacity:1;stroke-width:0.164177"
           d="m 50.976042,125.95767 c -0.29705,0.0321 -0.5146,0.29699 -0.490484,0.59712 -0.02365,0.29983 0.193778,0.56416 0.490484,0.5963 h 9.206009 c 0.296708,-0.0321 0.514133,-0.29647 0.490484,-0.5963 0.02411,-0.30013 -0.193434,-0.56498 -0.490484,-0.59712 z"
           id="path692"
           sodipodi:nodetypes="ccccccc" /><g
           id="g456"
           transform="translate(0.1505305,4.356791)"><path
             d="m 50.043405,135.03844 v -4.62269 h 0.793961 v 3.87466 h 2.034114 v 0.74803 z"
             style="font-weight:bold;font-stretch:condensed;font-size:6.71914px;line-height:1.25;font-family:'Liberation Sans Narrow';-inkscape-font-specification:'Liberation Sans Narrow Bold Condensed';letter-spacing:-0.0755903px;word-spacing:0px;fill:#2c80ca;stroke-width:0.419946"
             id="path434" /><path
             d="m 56.70944,132.70577 q 0,0.54134 -0.131233,0.98425 -0.131233,0.44291 -0.380576,0.75787 -0.246063,0.31496 -0.603673,0.48557 -0.35433,0.1706 -0.803803,0.1706 -0.475721,0 -0.833331,-0.17717 -0.357611,-0.18044 -0.597111,-0.49868 -0.239501,-0.32152 -0.360892,-0.76116 -0.11811,-0.43963 -0.11811,-0.96128 0,-0.54134 0.124672,-0.97769 0.124672,-0.43635 0.367453,-0.74146 0.246062,-0.3084 0.600392,-0.47244 0.35761,-0.16733 0.820207,-0.16733 0.462597,0 0.820208,0.16733 0.35761,0.16732 0.600392,0.47572 0.242781,0.3084 0.367453,0.74475 0.127952,0.43307 0.127952,0.97112 z m -0.810365,0 q 0,-0.36417 -0.07218,-0.65616 -0.0689,-0.29528 -0.209973,-0.50525 -0.137795,-0.20998 -0.344487,-0.32152 -0.206693,-0.11483 -0.479002,-0.11483 -0.27887,0 -0.485562,0.11483 -0.206693,0.11154 -0.347768,0.32152 -0.141076,0.20997 -0.209974,0.50525 -0.0689,0.29199 -0.0689,0.65616 0,0.36089 0.0689,0.66273 0.07218,0.29855 0.209974,0.51509 0.141075,0.21653 0.347768,0.33793 0.209973,0.12139 0.482282,0.12139 0.291993,0 0.498686,-0.12139 0.209973,-0.12468 0.344487,-0.34121 0.137795,-0.21982 0.200131,-0.51837 0.06562,-0.30184 0.06562,-0.65617 z"
             style="font-weight:bold;font-stretch:condensed;font-size:6.71914px;line-height:1.25;font-family:'Liberation Sans Narrow';-inkscape-font-specification:'Liberation Sans Narrow Bold Condensed';letter-spacing:-0.0755903px;word-spacing:0px;fill:#2c80ca;stroke-width:0.419946"
             id="path436" /><path
             d="m 59.035417,134.34619 q 0.173884,0 0.331364,-0.0328 0.160761,-0.0328 0.295275,-0.0853 0.134514,-0.0558 0.242781,-0.12467 0.111549,-0.0722 0.180446,-0.14764 v -0.63976 h -0.925194 v -0.71522 h 1.653538 v 1.69947 q -0.127952,0.16076 -0.311679,0.30839 -0.183726,0.14436 -0.413384,0.25591 -0.229658,0.10827 -0.501967,0.17388 -0.269028,0.0656 -0.570865,0.0656 -0.501967,0 -0.866139,-0.17717 -0.364172,-0.18044 -0.600392,-0.49868 -0.232939,-0.32152 -0.344487,-0.76116 -0.111548,-0.43963 -0.111548,-0.96128 0,-0.54134 0.11811,-0.97769 0.11811,-0.43635 0.35761,-0.74146 0.242782,-0.3084 0.606954,-0.47244 0.364172,-0.16733 0.856297,-0.16733 0.35761,0 0.636481,0.0853 0.27887,0.0853 0.488843,0.24278 0.209973,0.15748 0.351049,0.38057 0.141076,0.21982 0.223097,0.49541 l -0.731626,0.26903 q -0.04921,-0.14436 -0.131233,-0.27231 -0.07874,-0.13123 -0.20013,-0.22638 -0.11811,-0.0984 -0.27559,-0.1542 -0.15748,-0.0591 -0.360891,-0.0591 -0.295275,0 -0.51181,0.11483 -0.213254,0.11154 -0.35433,0.32152 -0.137794,0.20997 -0.206692,0.50525 -0.06562,0.29199 -0.06562,0.65616 0,0.36089 0.06562,0.66273 0.0689,0.30184 0.209973,0.51837 0.144357,0.21654 0.357611,0.33793 0.216535,0.12139 0.508528,0.12139 z"
             style="font-weight:bold;font-stretch:condensed;font-size:6.71914px;line-height:1.25;font-family:'Liberation Sans Narrow';-inkscape-font-specification:'Liberation Sans Narrow Bold Condensed';letter-spacing:-0.0755903px;word-spacing:0px;fill:#2c80ca;stroke-width:0.419946"
             id="path438" /></g></g></g></g><style
     type="text/css"
     id="style12387">.st0{fill-rule:evenodd;clip-rule:evenodd;}</style></svg>
