<?xml version="1.0" encoding="UTF-8" standalone="no"?>
<!-- Created with Inkscape (http://www.inkscape.org/) -->

<svg
   width="50"
   height="50"
   viewBox="0 0 13.229166 13.229167"
   version="1.1"
   id="svg8528"
   inkscape:version="1.2.2 (b0a8486541, 2022-12-01)"
   sodipodi:docname="model.svg"
   xmlns:inkscape="http://www.inkscape.org/namespaces/inkscape"
   xmlns:sodipodi="http://sodipodi.sourceforge.net/DTD/sodipodi-0.dtd"
   xmlns="http://www.w3.org/2000/svg"
   xmlns:svg="http://www.w3.org/2000/svg">
  <sodipodi:namedview
     id="namedview8530"
     pagecolor="#505050"
     bordercolor="#eeeeee"
     borderopacity="1"
     inkscape:showpageshadow="false"
     inkscape:pageopacity="0"
     inkscape:pagecheckerboard="0"
     inkscape:deskcolor="#505050"
     inkscape:document-units="mm"
     showgrid="false"
     inkscape:zoom="20.70196"
     inkscape:cx="27.895909"
     inkscape:cy="23.548495"
     inkscape:window-width="1575"
     inkscape:window-height="1282"
     inkscape:window-x="26"
     inkscape:window-y="23"
     inkscape:window-maximized="0"
     inkscape:current-layer="layer1"
     showguides="true" />
  <defs
     id="defs8525" />
  <g
     inkscape:label="Ebene 1"
     inkscape:groupmode="layer"
     id="layer1">
    <path
       d="m 6.1011917,0.53676133 c 0,0.003651 -0.027567,0.16544417 -0.061803,0.35846743 -0.0342,0.19397254 -0.090332,0.51440614 -0.1245623,0.71313754 -0.035174,0.1987253 -0.064658,0.3622708 -0.065607,0.3641695 -0.00122,0.00122 -0.057994,0.013327 -0.1264671,0.02568 -0.2215456,0.04278 -0.4440405,0.1026914 -0.65703,0.1778098 -0.1045961,0.036147 -0.1083995,0.03706 -0.1245624,0.01996 C 4.9325791,2.1864929 4.7272207,1.9411594 4.4847534,1.6511529 4.2422862,1.3611464 4.0378528,1.115825 4.0283474,1.1063196 4.0131338,1.0901324 3.9922,1.1014513 3.5757447,1.3421294 3.3361315,1.4809499 3.1383555,1.5979055 3.1364508,1.6026582 c -0.00183,0.00487 0.1093488,0.3156809 0.2462706,0.6912666 l 0.2491247,0.681755 -0.038034,0.034261 C 3.3190193,3.2581161 3.2771821,3.2989979 3.0099898,3.5947125 L 2.9757289,3.6317727 2.3063333,3.3874068 C 1.9383604,3.2523836 1.6274323,3.1420855 1.6160221,3.1411362 1.5979484,3.1393106 1.5608883,3.1991302 1.3421785,3.5756713 1.1016099,3.9921449 1.0902058,4.0130605 1.1063687,4.0282782 c 0.00949,0.00949 0.2567253,0.2167929 0.5495859,0.4611588 0.2928606,0.2443659 0.5381819,0.4497487 0.5448332,0.4554507 0.00949,0.00949 0.00487,0.033287 -0.02568,0.120759 -0.080827,0.2367591 -0.1340678,0.4335858 -0.175905,0.654182 -0.013327,0.070366 -0.02568,0.1283658 -0.026654,0.1293151 -0.00183,0.00122 -0.1654442,0.030427 -0.3641695,0.065613 -0.1987313,0.034261 -0.5191649,0.090326 -0.71313144,0.1245563 -0.19302326,0.034261 -0.35467012,0.061803 -0.35847351,0.061803 -0.003651,0 -0.007607,0.2310571 -0.007607,0.5134568 0,0.2824059 0.003651,0.5134569 0.007607,0.5134569 0.003651,0 0.16545025,0.027567 0.35847351,0.061809 0.19396654,0.0342 0.51440014,0.090326 0.71313144,0.1245563 0.1987253,0.035174 0.3622708,0.064658 0.3641695,0.065613 0.00122,0.00122 0.013327,0.058968 0.026654,0.1293151 0.041868,0.2205963 0.095078,0.4174168 0.175905,0.654182 0.030427,0.087472 0.035174,0.1112475 0.02568,0.1207529 -0.00663,0.00548 -0.2519726,0.2110909 -0.5448332,0.4554568 -0.2928606,0.2443659 -0.5400805,0.4516534 -0.5495859,0.4611588 -0.016187,0.015213 -0.00487,0.036147 0.2358098,0.4526027 0.2186915,0.3765346 0.255776,0.4364396 0.2738436,0.4345406 0.01138,-0.0012 0.3223383,-0.111253 0.6903112,-0.2462701 l 0.6693956,-0.2443659 0.034261,0.03706 c 0.2671923,0.2957146 0.3090295,0.3365965 0.5838225,0.584772 l 0.038034,0.03426 -0.2491247,0.681755 c -0.1369218,0.375585 -0.2481693,0.686508 -0.2462706,0.691266 0.00183,0.0049 0.1996807,0.121709 0.4392939,0.260535 0.4164736,0.240557 0.4373891,0.251973 0.4526027,0.235804 0.00949,-0.0095 0.2139388,-0.254827 0.456406,-0.544833 0.2424673,-0.290007 0.44785,-0.535328 0.4564061,-0.544834 0.016187,-0.0171 0.01996,-0.01619 0.1245624,0.01996 0.2129895,0.07511 0.4354844,0.135017 0.65703,0.177803 0.068461,0.01235 0.1255117,0.02471 0.1264671,0.02568 0.00122,0.0018 0.030427,0.16545 0.065607,0.364175 0.034261,0.198726 0.090332,0.519165 0.1245623,0.713138 0.034261,0.193017 0.061803,0.354664 0.061803,0.358467 0,0.0037 0.2301017,0.0076 0.5115521,0.0076 H 7.124302 l 0.049474,-0.277647 c 0.026593,-0.153085 0.083674,-0.477328 0.126461,-0.720744 0.041807,-0.243417 0.077972,-0.443092 0.079871,-0.444996 0.00122,-0.0012 0.065607,-0.01521 0.1435792,-0.03043 0.241518,-0.04753 0.3993554,-0.08938 0.6399179,-0.172102 0.087478,-0.03043 0.1112475,-0.03517 0.120759,-0.02568 0.00548,0.0066 0.2110847,0.251972 0.4554567,0.544833 0.2443659,0.292866 0.4516473,0.540086 0.4611588,0.549592 0.015214,0.01619 0.036147,0.0049 0.4526027,-0.23581 0.2396132,-0.13882 0.4373887,-0.255776 0.4392877,-0.260529 0.0018,-0.0066 -0.1549832,-0.442148 -0.4421417,-1.226594 l -0.054221,-0.146427 0.061803,-0.05325 C 9.8646432,10.019557 10.023436,9.8617201 10.200296,9.658236 l 0.05227,-0.060854 0.175911,0.063708 c 0.673199,0.24722 1.188555,0.433586 1.195212,0.433586 0.0049,0 0.08938,-0.1397761 0.188265,-0.3109283 0.09794,-0.1721016 0.21204,-0.3689283 0.252928,-0.4392879 0.05988,-0.1026913 0.07226,-0.1302704 0.06275,-0.1388265 -0.0066,-0.00663 -0.253872,-0.2139388 -0.549586,-0.4611588 -0.295715,-0.24722 -0.542935,-0.4545014 -0.549592,-0.4602095 -0.0095,-0.00949 -0.0049,-0.033287 0.02568,-0.120759 0.07987,-0.233905 0.14263,-0.4668608 0.181613,-0.6770023 0.01138,-0.060854 0.02471,-0.1112475 0.02854,-0.1112475 0.0037,0 0.215843,-0.036147 0.471619,-0.08082 0.255776,-0.044667 0.574311,-0.1007927 0.70743,-0.123613 0.133118,-0.023794 0.245321,-0.042781 0.249124,-0.042781 0.0049,0 0.0076,-0.2310571 0.0076,-0.5134568 0,-0.2823997 -0.0037,-0.5134569 -0.0076,-0.5134569 -0.0037,0 -0.163545,-0.027567 -0.353714,-0.060854 C 12.147627,6.0069875 11.826238,5.9499425 11.62371,5.9147628 L 11.255731,5.8501048 11.235771,5.740756 c -0.03901,-0.2082307 -0.101742,-0.4421419 -0.181613,-0.6750976 -0.03043,-0.087478 -0.03517,-0.1112475 -0.02568,-0.120759 0.0066,-0.00548 0.253871,-0.2129895 0.549586,-0.4602095 C 11.873778,4.23747 12.120998,4.0301825 12.12765,4.023533 12.13715,4.014953 12.12465,3.987386 12.0649,3.8847125 12.02401,3.8143465 11.909911,3.6175202 11.811978,3.4454186 11.713088,3.2742663 11.62846,3.1344904 11.623707,3.1344904 c -0.0066,0 -0.522013,0.1863658 -1.195212,0.4335858 l -0.175904,0.063708 -0.05227,-0.060854 C 10.023466,3.3674467 9.8646737,3.2096093 9.6583355,3.0289455 L 9.5965321,2.9756981 9.6507531,2.8292709 C 9.9379116,2.0448244 10.0948,1.6093339 10.092895,1.6026825 10.091069,1.5978142 9.8932204,1.4809742 9.6536072,1.3421477 9.2371396,1.1015852 9.216218,1.090175 9.2010045,1.1063379 9.1915112,1.1158311 8.9842116,1.3630693 8.7398457,1.6559238 8.4954798,1.9487844 8.290097,2.1941057 8.2843889,2.2007571 c -0.00949,0.00949 -0.033287,0.00487 -0.120759,-0.02568 C 7.9230674,2.0923576 7.76523,2.0505204 7.5237121,2.002975 7.4457458,1.9877615 7.3810882,1.9735216 7.3801389,1.9725479 7.3783133,1.9707223 7.3421051,1.7709686 7.3002678,1.527552 7.2574874,1.2841354 7.2004244,0.95989846 7.1738008,0.80681377 L 7.1243263,0.52916674 H 6.6127742 c -0.2814504,0 -0.5115582,0.003651 -0.5115582,0.007607 z M 6.8095704,3.0241745 c 0.6446706,0.02282 1.3359372,0.2633828 1.8874279,0.6560807 0.7293004,0.5182138 1.2370552,1.2845927 1.4310277,2.1546183 0.06085,0.274793 0.08177,0.4782771 0.08177,0.7796937 0,0.3014167 -0.02093,0.5048947 -0.08177,0.7796938 C 9.8418169,8.6817034 8.8719539,9.7114712 7.6035284,10.074691 7.2317461,10.181186 6.8618685,10.223023 6.4520523,10.20686 4.9164406,10.146006 3.5833514,9.0924689 3.1554738,7.6034471 3.048979,7.2345128 3.0061864,6.8617872 3.0223553,6.4519711 3.0679959,5.3062031 3.6746326,4.2403063 4.6416415,3.6060923 5.1113625,3.2980182 5.6295721,3.1097476 6.203883,3.039388 6.295164,3.028008 6.5889742,3.012734 6.6384182,3.017541 c 0.016187,0.00122 0.093186,0.00487 0.1711522,0.00663 z"
       id="path644-8-64-3"
       style="fill:#919191;fill-opacity:1;stroke:none;stroke-width:0.000950846" />
  </g>
</svg>
