<?xml version="1.0" encoding="UTF-8" standalone="no"?>
<!-- Created with Inkscape (http://www.inkscape.org/) -->

<svg
   width="50"
   height="50"
   viewBox="0 0 13.229166 13.229167"
   version="1.1"
   id="svg8528"
   inkscape:version="1.2.2 (b0a8486541, 2022-12-01)"
   sodipodi:docname="plugin.svg"
   xml:space="preserve"
   xmlns:inkscape="http://www.inkscape.org/namespaces/inkscape"
   xmlns:sodipodi="http://sodipodi.sourceforge.net/DTD/sodipodi-0.dtd"
   xmlns="http://www.w3.org/2000/svg"
   xmlns:svg="http://www.w3.org/2000/svg"><sodipodi:namedview
     id="namedview8530"
     pagecolor="#505050"
     bordercolor="#eeeeee"
     borderopacity="1"
     inkscape:showpageshadow="false"
     inkscape:pageopacity="0"
     inkscape:pagecheckerboard="0"
     inkscape:deskcolor="#505050"
     inkscape:document-units="mm"
     showgrid="false"
     inkscape:zoom="7.3192482"
     inkscape:cx="24.59269"
     inkscape:cy="24.661003"
     inkscape:window-width="1575"
     inkscape:window-height="1282"
     inkscape:window-x="26"
     inkscape:window-y="23"
     inkscape:window-maximized="0"
     inkscape:current-layer="g5976"
     showguides="true" /><defs
     id="defs8525" /><g
     inkscape:label="Ebene 1"
     inkscape:groupmode="layer"
     id="layer1"><g
       id="g5976"
       transform="matrix(0.63004102,0,0,0.63004102,-28.534777,-77.109542)"><path
         style="fill:#919191;fill-opacity:1;stroke-width:0.157781"
         d="m 59.421692,142.12243 c 0.391435,0 0.712128,-0.31513 0.712128,-0.69836 v -3.82761 c 0.243667,-2.06345 1.142863,-1.45057 2.200841,-0.81239 2.557691,1.54245 4.257041,-2.51478 2.189826,-3.76584 -1.622307,-0.98184 -2.325023,0.70629 -3.513486,0.5321 -0.459017,-0.0681 -0.778139,-0.55429 -0.878736,-1.29384 v -2.76496 c 0,-0.38482 -0.320693,-0.69837 -0.712144,-0.69837 h -3.271375 c -2.700745,-0.33574 -0.303393,-1.8006 -0.303393,-3.16408 0.0015,-1.09429 -1.009251,-1.98111 -2.255853,-1.98111 -1.245062,0 -2.387908,0.88682 -2.387908,1.98111 0,1.28588 2.480664,2.82834 -0.257824,3.16408 h -4.1014 c -0.391435,0 -0.712128,0.31355 -0.712128,0.69837 v 2.75864 c 0.209081,1.17662 1.020251,1.44902 2.059358,0.67305 0.350564,-0.26288 0.941637,-0.56852 1.369228,-0.56852 1.114562,0 2.020059,0.98975 2.020059,2.21072 0,1.22098 -0.903925,2.47996 -2.020059,2.47996 -0.397704,0 -0.768728,-0.12681 -1.08312,-0.34683 0,0.0933 -1.949302,-1.71822 -2.345466,0.49884 v 4.22985 c 0,0.38482 0.320693,0.69837 0.712128,0.69837 2.196111,0 4.389095,0 6.583635,-0.001 0.08634,-0.4038 -0.19494,-0.86621 -0.459034,-1.26689 -2.07823,-3.15614 6.006705,-3.47128 3.928507,0.0982 -0.102216,0.17578 -0.204384,0.34682 -0.282982,0.51309 -0.09904,0.20743 -0.165053,0.46082 -0.150943,0.6556 z"
         id="path19843" /></g></g><style
     type="text/css"
     id="style12387">.st0{fill-rule:evenodd;clip-rule:evenodd;}</style></svg>
