<?xml version="1.0" encoding="UTF-8" standalone="no"?>
<!-- Created with Inkscape (http://www.inkscape.org/) -->

<svg
   width="50"
   height="50"
   viewBox="0 0 13.229166 13.229167"
   version="1.1"
   id="svg8528"
   inkscape:version="1.2.2 (b0a8486541, 2022-12-01)"
   sodipodi:docname="plugins.svg"
   xml:space="preserve"
   xmlns:inkscape="http://www.inkscape.org/namespaces/inkscape"
   xmlns:sodipodi="http://sodipodi.sourceforge.net/DTD/sodipodi-0.dtd"
   xmlns="http://www.w3.org/2000/svg"
   xmlns:svg="http://www.w3.org/2000/svg"><sodipodi:namedview
     id="namedview8530"
     pagecolor="#505050"
     bordercolor="#eeeeee"
     borderopacity="1"
     inkscape:showpageshadow="false"
     inkscape:pageopacity="0"
     inkscape:pagecheckerboard="0"
     inkscape:deskcolor="#505050"
     inkscape:document-units="mm"
     showgrid="false"
     inkscape:zoom="7.3192482"
     inkscape:cx="24.59269"
     inkscape:cy="24.661003"
     inkscape:window-width="1575"
     inkscape:window-height="1282"
     inkscape:window-x="26"
     inkscape:window-y="23"
     inkscape:window-maximized="0"
     inkscape:current-layer="g5976"
     showguides="true" /><defs
     id="defs8525" /><g
     inkscape:label="Ebene 1"
     inkscape:groupmode="layer"
     id="layer1"><g
       id="g5976"
       transform="matrix(0.63004102,0,0,0.63004102,-28.534777,-77.109542)"><g
         id="g2544"
         transform="matrix(1.0078704,0,0,1.0098348,-71.576673,-0.90860056)"><path
           style="fill:#919191;fill-opacity:1;stroke-width:0.162747"
           d="m 131.49356,141.64117 h -0.003 c -0.96672,0 -1.75279,-0.70306 -1.75279,-1.56888 0,-0.30922 0.10091,-0.59728 0.27504,-0.8414 h -0.0114 c 0.7698,-0.8414 0.68843,-1.52982 -0.12694,-1.77069 h -2.70648 c -0.30434,0 -0.55335,-0.24901 -0.55335,-0.55334 v -2.49492 c 0.1302,-0.37757 0.2962,-0.51102 0.4915,-0.5159 0.0895,-0.002 0.1839,0.0228 0.28481,0.0651 0.28318,0.11718 0.61518,0.36293 0.97648,0.5029 1.39312,0.53706 2.58931,-0.81863 2.50956,-2.21174 -0.0179,-0.31085 -0.14321,-0.61681 -0.32875,-0.89999 -0.7112,-1.08716 -1.76417,-1.18969 -2.77972,-0.56962 -0.51753,0.31735 -0.92928,0.5566 -1.16527,-0.19042 l 0.013,-2.3582 c 0.002,-0.30434 0.249,-0.55334 0.55334,-0.55334 h 2.3696 c 1.11808,-0.14159 1.32965,-0.89349 0.46384,-1.83905 h 0.0114 c -0.17415,-0.24412 -0.27505,-0.53218 -0.27505,-0.8414 0,-0.86582 0.78444,-1.56888 1.75279,-1.56888 h 0.003 c 0.96673,0 1.75279,0.70306 1.75279,1.56888 0,0.30922 -0.1009,0.59728 -0.27504,0.8414 h 0.0114 c -0.86582,0.94556 -0.65587,1.69908 0.46383,1.83905 h 2.3696 c 0.30433,0 0.55334,0.249 0.55334,0.55334 v 2.46724 c -0.1774,1.01555 -0.90976,1.18155 -1.82114,0.34665 v 0.0114 c -0.24413,-0.17413 -0.53219,-0.27504 -0.84141,-0.27504 -0.86581,0 -1.56888,0.78445 -1.56888,1.75116 0,0.96673 0.70307,1.75279 1.56888,1.75279 0.30922,0 0.59728,-0.1009 0.84141,-0.27504 v 0.0472 c 0.91301,-0.83489 1.64374,-0.66726 1.82114,0.34828 v 2.49491 c 0,0.30434 -0.24901,0.55334 -0.55334,0.55334 h -2.70649 c -0.81536,0.24087 -0.89673,0.92929 -0.12694,1.77069 h -0.013 c 0.17414,0.24412 0.27504,0.53219 0.27504,0.8414 -0.002,0.86908 -0.78607,1.57214 -1.75279,1.57214 z"
           id="path8338" /><path
           style="fill:#919191;fill-opacity:1;stroke-width:0.162747"
           d="m 121.24699,141.55167 c 0.96672,0 1.75279,-0.70306 1.75279,-1.56888 0,-0.30922 -0.10091,-0.59728 -0.27504,-0.8414 h 0.0472 c -0.7698,-0.84141 -0.68843,-1.52982 0.12693,-1.77069 h 2.69673 c 0.30434,0 0.55334,-0.24901 0.55334,-0.55334 v -2.39401 c 0.18879,-1.63399 0.88697,-1.149 1.70885,-0.64285 1.98551,1.22223 3.30539,-1.67305 1.7007,-2.66418 -1.25966,-0.77793 -1.80487,0.55985 -2.72764,0.42152 -0.35642,-0.0537 -0.60379,-0.43943 -0.68191,-1.02532 v -2.36634 c 0,-0.30434 -0.249,-0.55334 -0.55334,-0.55334 h -2.36147 c -1.11807,-0.14159 -1.32964,-0.89348 -0.46382,-1.83904 h -0.0472 c 0.17414,-0.24412 0.27504,-0.53219 0.27504,-0.8414 0.002,-0.86582 -0.78281,-1.56889 -1.75116,-1.56889 -0.96672,0 -1.75116,0.70307 -1.75116,1.56889 0,0.30921 0.10091,0.59728 0.27504,0.8414 h -0.0114 c 0.86582,0.94556 0.65587,1.69908 -0.46382,1.83904 h -2.37123 c -0.30434,0 -0.55334,0.249 -0.55334,0.55334 v 2.46725 c 0.17739,1.01554 0.90976,1.18155 1.82114,0.34665 v 0.0114 c 0.24412,-0.17414 0.53218,-0.27504 0.8414,-0.27504 0.86582,0 1.56888,0.78444 1.56888,1.75116 0,0.96672 -0.70306,1.75116 -1.56888,1.75116 -0.30922,0 -0.59728,-0.1009 -0.8414,-0.27504 v 0.0472 c -0.91138,-0.83489 -1.64375,-0.66726 -1.82114,0.34828 v 2.4998 c 0,0.30433 0.249,0.55333 0.55334,0.55333 h 2.70648 c 0.81537,0.24087 0.89837,0.92929 0.12694,1.7707 h 0.0114 c -0.17251,0.24411 -0.27504,0.53218 -0.27504,0.8414 0.002,0.86582 0.78607,1.56888 1.75278,1.56725 z"
           id="path19829" /></g></g></g><style
     type="text/css"
     id="style12387">.st0{fill-rule:evenodd;clip-rule:evenodd;}</style></svg>
