<?xml version="1.0" encoding="UTF-8" standalone="no"?>
<!-- Created with Inkscape (http://www.inkscape.org/) -->

<svg
   width="50"
   height="50"
   viewBox="0 0 13.229166 13.229167"
   version="1.1"
   id="svg8528"
   inkscape:version="1.2.2 (b0a8486541, 2022-12-01)"
   sodipodi:docname="resource-remove.svg"
   xml:space="preserve"
   xmlns:inkscape="http://www.inkscape.org/namespaces/inkscape"
   xmlns:sodipodi="http://sodipodi.sourceforge.net/DTD/sodipodi-0.dtd"
   xmlns="http://www.w3.org/2000/svg"
   xmlns:svg="http://www.w3.org/2000/svg"><sodipodi:namedview
     id="namedview8530"
     pagecolor="#505050"
     bordercolor="#eeeeee"
     borderopacity="1"
     inkscape:showpageshadow="false"
     inkscape:pageopacity="0"
     inkscape:pagecheckerboard="0"
     inkscape:deskcolor="#505050"
     inkscape:document-units="mm"
     showgrid="false"
     inkscape:zoom="14.638496"
     inkscape:cx="24.59269"
     inkscape:cy="28.657315"
     inkscape:window-width="1575"
     inkscape:window-height="1282"
     inkscape:window-x="26"
     inkscape:window-y="23"
     inkscape:window-maximized="0"
     inkscape:current-layer="layer1"
     showguides="true" /><defs
     id="defs8525" /><g
     inkscape:label="Ebene 1"
     inkscape:groupmode="layer"
     id="layer1"><g
       id="g8090"
       transform="translate(-133.61458,-7.9374999)"><path
         id="use931-6"
         style="clip-rule:evenodd;fill:#919191;fill-opacity:1;fill-rule:evenodd;stroke-width:0.0363668;image-rendering:optimizeQuality;shape-rendering:geometricPrecision;text-rendering:geometricPrecision"
         d="m 136.41699,7.9374999 c -0.814,0 -1.47949,0.6565372 -1.47949,1.4593424 v 9.5735757 c 0,0.762267 0.46352,1.278857 1.40405,1.103809 h 3.64163 c 0.0547,-0.198567 0.14837,-0.38889 0.26666,-0.566891 h -3.93827 c -0.42899,0 -0.77979,-0.346331 -0.77979,-0.769979 0,-0.423648 0.3508,-0.769462 0.77979,-0.769462 h 3.90209 c -0.10953,-0.198658 -0.18928,-0.415841 -0.22221,-0.667142 -0.23586,-1.091009 1.11456,-2.05017 2.12029,-1.55081 0.63104,0.233 0.9974,0.987508 1.26142,0.665075 0.1695,-0.240987 0.3589,-0.432367 0.56017,-0.573091 V 7.9374999 Z m -0.21342,1.2267985 h 0.20981 c 0.10798,0 0.19688,0.088327 0.19688,0.1937866 v 7.350456 c 0,0.105819 -0.09,0.194303 -0.19688,0.194303 h -0.20981 c -0.10725,0 -0.19637,-0.08741 -0.19637,-0.194303 V 9.358085 c 0,-0.1065429 0.088,-0.1937866 0.19637,-0.1937866 z m 0.093,9.1265746 c -0.0653,0 -0.11834,0.05126 -0.11834,0.114722 v 0.06976 c 0,0.06339 0.0533,0.115238 0.11834,0.115238 h 4.38009 c -0.0881,-0.09832 -0.17277,-0.197358 -0.25063,-0.299723 z m 0,0.593762 c -0.0653,0 -0.11834,0.05177 -0.11834,0.115239 v 0.06976 c 0,0.06339 0.0533,0.115238 0.11834,0.115238 h 4.20388 c 0.0953,-0.107192 0.19707,-0.207221 0.30127,-0.30024 z" /><path
         class="cls-1"
         d="m 141.04813,16.694127 v 0 a 0.78531975,0.78531975 0 0 1 1.10932,0 l 1.01368,1.0133 1.01101,-1.0133 a 0.78570228,0.78570228 0 0 1 1.10932,0 v 0 a 0.78531975,0.78531975 0 0 1 0,1.10932 l -1.01445,1.01138 1.0133,1.01331 a 0.78570228,0.78570228 0 0 1 0,1.10931 v 0 a 0.78570228,0.78570228 0 0 1 -1.10932,0 l -1.01215,-1.01445 -1.01139,1.01331 a 0.78570228,0.78570228 0 0 1 -1.10932,0 v 0 a 0.78570228,0.78570228 0 0 1 0,-1.10932 l 1.01254,-1.01216 -1.01254,-1.01368 a 0.78531975,0.78531975 0 0 1 0,-1.10702 z"
         id="path19901"
         style="fill:#ee0000;fill-opacity:1;fill-rule:evenodd;stroke-width:0.0382523" /></g></g><style
     type="text/css"
     id="style12387">.st0{fill-rule:evenodd;clip-rule:evenodd;}</style></svg>
