<?xml version="1.0" encoding="UTF-8" standalone="no"?>
<!-- Created with Inkscape (http://www.inkscape.org/) -->

<svg
   width="50"
   height="50"
   viewBox="0 0 13.229166 13.229167"
   version="1.1"
   id="svg8528"
   inkscape:version="1.2.2 (b0a8486541, 2022-12-01)"
   sodipodi:docname="resource-download.svg"
   xmlns:inkscape="http://www.inkscape.org/namespaces/inkscape"
   xmlns:sodipodi="http://sodipodi.sourceforge.net/DTD/sodipodi-0.dtd"
   xmlns="http://www.w3.org/2000/svg"
   xmlns:svg="http://www.w3.org/2000/svg">
  <sodipodi:namedview
     id="namedview8530"
     pagecolor="#505050"
     bordercolor="#eeeeee"
     borderopacity="1"
     inkscape:showpageshadow="false"
     inkscape:pageopacity="0"
     inkscape:pagecheckerboard="0"
     inkscape:deskcolor="#505050"
     inkscape:document-units="mm"
     showgrid="false"
     inkscape:zoom="7.3192482"
     inkscape:cx="15.438744"
     inkscape:cy="23.841246"
     inkscape:window-width="1575"
     inkscape:window-height="1282"
     inkscape:window-x="26"
     inkscape:window-y="23"
     inkscape:window-maximized="0"
     inkscape:current-layer="layer1"
     showguides="true" />
  <defs
     id="defs8525" />
  <g
     inkscape:label="Ebene 1"
     inkscape:groupmode="layer"
     id="layer1">
    <g
       id="g16425"
       transform="translate(-170.65624,-7.9374999)">
      <path
         id="use931-6-0-0"
         style="clip-rule:evenodd;fill:#919191;fill-opacity:1;fill-rule:evenodd;stroke-width:0.0363668;image-rendering:optimizeQuality;shape-rendering:geometricPrecision;text-rendering:geometricPrecision"
         d="m 173.45866,7.9374999 c -0.81401,0 -1.4795,0.6565372 -1.4795,1.4593424 v 9.5735757 c 0,0.762267 0.46352,1.278857 1.40405,1.103809 h 4.13773 c -0.2039,-0.18091 -0.4018,-0.366118 -0.57877,-0.566891 h -3.58893 c -0.42899,0 -0.7798,-0.346331 -0.7798,-0.769979 0,-0.423648 0.35081,-0.769462 0.7798,-0.769462 h 2.9807 c 0.135,-0.682711 0.84954,-1.230758 1.59215,-1.204577 0.0627,-0.76482 0.0111,-1.642821 0.0284,-2.45153 v -0.503845 c 1.00684,-7e-6 2.01364,-3e-6 3.02049,0 V 7.9374999 Z m -0.21342,1.2267985 h 0.2098 c 0.10798,0 0.19689,0.088327 0.19689,0.1937866 v 7.350456 c 0,0.105819 -0.09,0.194303 -0.19689,0.194303 h -0.2098 c -0.10725,0 -0.19637,-0.08741 -0.19637,-0.194303 V 9.358085 c 0,-0.1065429 0.0881,-0.1937866 0.19637,-0.1937866 z m 0.093,9.1265746 c -0.0653,0 -0.11833,0.05126 -0.11833,0.114722 v 0.06976 c 0,0.06339 0.0533,0.115238 0.11833,0.115238 h 3.04013 c -0.0349,-0.100416 -0.0552,-0.200726 -0.0631,-0.299723 z m 0,0.593762 c -0.0653,0 -0.11833,0.05177 -0.11833,0.115239 v 0.06976 c 0,0.06339 0.0533,0.115238 0.11833,0.115238 h 3.35019 c -0.0661,-0.09569 -0.12638,-0.195548 -0.18035,-0.30024 z" />
      <path
         id="path5774"
         style="fill:#2c80ca;stroke-width:0.282935"
         d="m 178.9253,14.596533 v 0.34587 h 2.58214 v -0.34587 z m 0,0.6976 v 0.70691 h 2.58214 v -0.70691 z m -0.004,1.0394 v 1.38759 h -1.18402 c -0.19862,0.008 -0.33964,0.074 -0.42112,0.19774 -0.20375,0.30549 0.023,0.61985 0.23331,0.8259 l 2.28409,2.23803 c 0.22185,0.24507 0.53758,0.24507 0.75942,0 l 2.22752,-2.17503 c 0.22262,-0.21736 0.51071,-0.55788 0.28989,-0.8889 -0.0816,-0.12384 -0.22205,-0.1887 -0.42054,-0.19774 h -1.18462 v -1.38759 z" />
    </g>
  </g>
</svg>
