<?xml version="1.0" encoding="UTF-8" standalone="no"?>
<!-- Created with Inkscape (http://www.inkscape.org/) -->

<svg
   width="50"
   height="50"
   viewBox="0 0 13.229166 13.229167"
   version="1.1"
   id="svg8528"
   inkscape:version="1.2.2 (b0a8486541, 2022-12-01)"
   sodipodi:docname="resource-edit.svg"
   xml:space="preserve"
   xmlns:inkscape="http://www.inkscape.org/namespaces/inkscape"
   xmlns:sodipodi="http://sodipodi.sourceforge.net/DTD/sodipodi-0.dtd"
   xmlns="http://www.w3.org/2000/svg"
   xmlns:svg="http://www.w3.org/2000/svg"><sodipodi:namedview
     id="namedview8530"
     pagecolor="#505050"
     bordercolor="#eeeeee"
     borderopacity="1"
     inkscape:showpageshadow="false"
     inkscape:pageopacity="0"
     inkscape:pagecheckerboard="0"
     inkscape:deskcolor="#505050"
     inkscape:document-units="mm"
     showgrid="false"
     inkscape:zoom="7.3192482"
     inkscape:cx="24.319438"
     inkscape:cy="28.076654"
     inkscape:window-width="1575"
     inkscape:window-height="1282"
     inkscape:window-x="26"
     inkscape:window-y="23"
     inkscape:window-maximized="0"
     inkscape:current-layer="g5976"
     showguides="true" /><defs
     id="defs8525" /><g
     inkscape:label="Ebene 1"
     inkscape:groupmode="layer"
     id="layer1"><g
       id="g5976"
       transform="matrix(0.63004102,0,0,0.63004102,-28.534777,-77.109542)"><g
         id="g3842"
         transform="matrix(1.5871983,0,0,1.5871983,-19.801315,109.78974)"><path
           id="path24582-1-0-6"
           style="clip-rule:evenodd;fill:#919191;fill-opacity:1;fill-rule:evenodd;stroke-width:0.0363668;image-rendering:optimizeQuality;shape-rendering:geometricPrecision;text-rendering:geometricPrecision"
           d="m 43.812938,7.9375002 c -0.814009,0 -1.479605,0.6567698 -1.479605,1.4595754 v 9.5735174 c 0,0.762262 0.463702,1.278585 1.40423,1.103536 h 4.492605 c 0.0039,-0.183362 0.0047,-0.375389 0,-0.566672 h -4.522822 c -0.428993,0 -0.77998,-0.346382 -0.77998,-0.77003 0,-0.423648 0.350987,-0.769363 0.77998,-0.769363 h 4.57429 l 0.01228,-0.330199 1.612092,-2.767795 1.423156,-2.443558 V 7.9375002 Z m -0.213507,1.2267424 h 0.209854 c 0.107981,0 0.196904,0.088291 0.196904,0.1937508 v 7.3505396 c 0,0.105819 -0.09002,0.194078 -0.196904,0.194078 h -0.209854 c -0.107248,0 -0.196573,-0.08718 -0.196573,-0.194078 V 9.3579934 c 0,-0.1065434 0.08824,-0.1937508 0.196573,-0.1937508 z m 0.09297,9.1264054 c -0.06534,0 -0.118209,0.05147 -0.118209,0.114927 v 0.06955 c 0,0.06339 0.05324,0.115254 0.118209,0.115254 h 4.56632 l 0.01096,-0.299731 z m 0,0.594161 c -0.06534,0 -0.118209,0.05178 -0.118209,0.115259 v 0.06955 c 0,0.06339 0.05324,0.115253 0.118209,0.115253 h 4.544073 l 0.01129,-0.300063 z m 7.535159,0.637882 c -0.02423,0.03679 -0.03972,0.05851 -0.04449,0.06159 -0.02773,0.01801 -0.374844,0.251175 -0.804884,0.489834 h 0.500396 c 0.191949,0 0.348982,-0.154649 0.348982,-0.344773 z" /><path
           style="fill:#2c80ca;fill-opacity:1;stroke-width:0.0248384"
           d="m 48.919665,20.102053 c -0.0022,-0.0079 0.06256,-0.530557 0.143684,-1.16148 l 0.147502,-1.147123 1.350345,-2.328265 1.350345,-2.328259 0.813354,0.472216 0.813348,0.472209 -1.326382,2.285101 c -0.729659,1.256717 -1.349627,2.30652 -1.377962,2.332732 -0.02837,0.02615 -0.423964,0.321765 -0.879093,0.656815 -0.455133,0.33505 -0.873418,0.643132 -0.929527,0.684636 -0.05613,0.04147 -0.10372,0.06901 -0.105828,0.06108 z m 1.098932,-1.030768 c 0.241792,-0.183317 0.482102,-0.358911 0.534023,-0.390212 0.05194,-0.03128 0.09986,-0.07046 0.106513,-0.08704 0.0068,-0.01647 -0.01009,-0.08785 -0.03724,-0.158405 -0.176287,-0.373626 -0.672732,-0.666557 -1.048067,-0.608773 -0.07472,0.01134 -0.118097,0.0074 -0.156052,0.04608 -0.0309,0.03147 -0.0264,0.08437 -0.03499,0.127661 -0.05444,0.421732 -0.102687,0.786898 -0.167048,1.212886 0.15731,0.01166 0.242179,0.0589 0.34076,0.19709 0.01236,-0.0032 0.220274,-0.155912 0.462064,-0.339229 z m 2.820908,-5.657913 -0.813916,-0.46939 0.203759,-0.354104 c 0.125657,-0.218432 0.265753,-0.43107 0.311222,-0.4726 0.103578,-0.09445 0.30772,-0.152881 0.444715,-0.127283 0.05386,0.01006 0.303633,0.139684 0.55508,0.288001 0.42779,0.252394 0.461027,0.277299 0.517252,0.387829 0.123489,0.242696 0.0957,0.363782 -0.198943,0.867043 l -0.205236,0.349573 z"
           id="path1212-5-9"
           sodipodi:nodetypes="sscccccsssssssssccacccsscccssssscc" /></g></g></g><style
     type="text/css"
     id="style12387">.st0{fill-rule:evenodd;clip-rule:evenodd;}</style></svg>
