<?xml version="1.0" encoding="UTF-8" standalone="no"?>
<!-- Created with Inkscape (http://www.inkscape.org/) -->

<svg
   width="50"
   height="50"
   viewBox="0 0 13.229166 13.229167"
   version="1.1"
   id="svg8528"
   inkscape:version="1.2.2 (b0a8486541, 2022-12-01)"
   sodipodi:docname="resource.svg"
   xml:space="preserve"
   xmlns:inkscape="http://www.inkscape.org/namespaces/inkscape"
   xmlns:sodipodi="http://sodipodi.sourceforge.net/DTD/sodipodi-0.dtd"
   xmlns="http://www.w3.org/2000/svg"
   xmlns:svg="http://www.w3.org/2000/svg"><sodipodi:namedview
     id="namedview8530"
     pagecolor="#505050"
     bordercolor="#eeeeee"
     borderopacity="1"
     inkscape:showpageshadow="false"
     inkscape:pageopacity="0"
     inkscape:pagecheckerboard="0"
     inkscape:deskcolor="#505050"
     inkscape:document-units="mm"
     showgrid="false"
     inkscape:zoom="7.3192482"
     inkscape:cx="24.59269"
     inkscape:cy="24.661003"
     inkscape:window-width="1575"
     inkscape:window-height="1282"
     inkscape:window-x="26"
     inkscape:window-y="23"
     inkscape:window-maximized="0"
     inkscape:current-layer="g5976"
     showguides="true" /><defs
     id="defs8525" /><g
     inkscape:label="Ebene 1"
     inkscape:groupmode="layer"
     id="layer1"><g
       id="g5976"
       transform="matrix(0.63004102,0,0,0.63004102,-28.534777,-77.109542)"><path
         id="use923"
         style="clip-rule:evenodd;fill:#919191;fill-opacity:1;fill-rule:evenodd;stroke-width:0.0577213;image-rendering:optimizeQuality;shape-rendering:geometricPrecision;text-rendering:geometricPrecision"
         d="m 49.738502,122.38813 c -1.291997,0 -2.348423,1.04242 -2.348423,2.31663 v 15.19506 c 0,1.20987 0.735979,2.02938 2.228783,1.75154 h 11.334223 c 0.304661,0 0.553895,-0.24546 0.553895,-0.54722 v -1.65271 h -0.96867 v 1.3005 H 49.570908 c -0.680897,0 -1.237983,-0.54976 -1.237983,-1.22218 0,-0.67241 0.557086,-1.22114 1.237983,-1.22114 h 11.128141 c 0.487582,0.0148 0.947835,0.0289 0.9692,-0.33537 v -15.58511 z m -0.338878,1.94708 h 0.333074 c 0.171388,0 0.312525,0.14013 0.312525,0.30752 v 11.66676 c 0,0.16795 -0.142879,0.30804 -0.312525,0.30804 h -0.333074 c -0.170224,0 -0.312005,-0.13837 -0.312005,-0.30804 v -11.66676 c 0,-0.16911 0.14007,-0.30752 0.312005,-0.30752 z m 0.147562,14.48541 c -0.103708,0 -0.187625,0.0817 -0.187625,0.18241 v 0.11039 c 0,0.10061 0.08452,0.18293 0.187625,0.18293 H 59.7736 c 0.103675,0 0.188143,-0.0822 0.188143,-0.18293 v -0.11039 A 0.18862744,0.18313946 0 0 0 59.7736,138.82062 Z m 0,0.94306 c -0.103708,0 -0.187625,0.0822 -0.187625,0.18293 v 0.11039 c 0,0.10061 0.08452,0.18293 0.187625,0.18293 H 59.7736 c 0.103675,0 0.188143,-0.0828 0.188143,-0.18293 v -0.11039 c 0,-0.10062 -0.08434,-0.18293 -0.188143,-0.18293 z"
         inkscape:tile-x0="23.812499"
         inkscape:tile-y0="13.229167" /></g></g><style
     type="text/css"
     id="style12387">.st0{fill-rule:evenodd;clip-rule:evenodd;}</style></svg>
