<?xml version="1.0" encoding="UTF-8" standalone="no"?>
<!-- Created with Inkscape (http://www.inkscape.org/) -->

<svg
   width="50"
   height="50"
   viewBox="0 0 13.229166 13.229167"
   version="1.1"
   id="svg8528"
   inkscape:version="1.2.2 (b0a8486541, 2022-12-01)"
   sodipodi:docname="resource-search.svg"
   xml:space="preserve"
   xmlns:inkscape="http://www.inkscape.org/namespaces/inkscape"
   xmlns:sodipodi="http://sodipodi.sourceforge.net/DTD/sodipodi-0.dtd"
   xmlns="http://www.w3.org/2000/svg"
   xmlns:svg="http://www.w3.org/2000/svg"><sodipodi:namedview
     id="namedview8530"
     pagecolor="#505050"
     bordercolor="#eeeeee"
     borderopacity="1"
     inkscape:showpageshadow="false"
     inkscape:pageopacity="0"
     inkscape:pagecheckerboard="0"
     inkscape:deskcolor="#505050"
     inkscape:document-units="mm"
     showgrid="false"
     inkscape:zoom="7.3192482"
     inkscape:cx="24.319438"
     inkscape:cy="28.759785"
     inkscape:window-width="1575"
     inkscape:window-height="1282"
     inkscape:window-x="26"
     inkscape:window-y="23"
     inkscape:window-maximized="0"
     inkscape:current-layer="layer1"
     showguides="true" /><defs
     id="defs8525" /><g
     inkscape:label="Ebene 1"
     inkscape:groupmode="layer"
     id="layer1"><g
       id="g8081"
       transform="translate(-96.572915,-7.9374999)"><path
         id="use931"
         style="clip-rule:evenodd;fill:#919191;fill-opacity:1;fill-rule:evenodd;stroke-width:0.0363668;image-rendering:optimizeQuality;shape-rendering:geometricPrecision;text-rendering:geometricPrecision"
         d="m 99.375328,7.9374999 c -0.814009,0 -1.479496,0.656538 -1.479496,1.4593424 v 9.5735757 c 0,0.762266 0.463523,1.278856 1.404049,1.103809 h 3.947559 a 3.9026041,3.9026041 0 0 1 -0.4594,-0.566891 h -3.518132 c -0.428991,0 -0.779797,-0.346331 -0.779797,-0.769979 0,-0.423647 0.350806,-0.769462 0.779797,-0.769462 h 2.909902 a 3.9026041,3.9026041 0 0 1 -0.0527,-0.628385 3.9026041,3.9026041 0 0 1 3.9026,-3.902604 3.9026041,3.9026041 0 0 1 0.34882,0.01602 3.9026041,3.9026041 0 0 1 0.42426,-0.02584 3.9026041,3.9026041 0 0 1 0.0889,0.0041 V 7.9374999 Z m -0.213423,1.2267985 h 0.209806 c 0.107982,0 0.196887,0.088327 0.196887,0.1937866 v 7.350456 c 0,0.105819 -0.09,0.194303 -0.196887,0.194303 h -0.209806 c -0.107248,0 -0.196371,-0.08741 -0.196371,-0.194303 V 9.358085 c 0,-0.1065428 0.08804,-0.1937866 0.196371,-0.1937866 z m 0.09302,9.1265746 c -0.06534,0 -0.118339,0.05126 -0.118339,0.114722 v 0.06976 c 0,0.06339 0.05338,0.115238 0.118339,0.115238 h 3.081465 a 3.9026041,3.9026041 0 0 1 -0.0889,-0.299723 z m 0,0.593762 c -0.06534,0 -0.118339,0.05177 -0.118339,0.115239 v 0.06976 c 0,0.06339 0.05338,0.115238 0.118339,0.115238 h 3.339845 a 3.9026041,3.9026041 0 0 1 -0.14521,-0.30024 z" /><path
         id="path6698-1-5-9-1"
         style="fill:#2c80ca;stroke-width:0.522488"
         d="m 106.04115,14.380682 c -0.81905,0 -1.55713,0.33033 -2.09341,0.86662 -0.53462,0.53681 -0.86713,1.2776 -0.86713,2.09444 0,0.21839 0.0236,0.431 0.0682,0.63562 a 2.9765625,2.9765625 0 0 0 0.005,0.0238 c 0.10683,0.47139 0.32597,0.8993 0.62838,1.25574 a 2.9765625,2.9765625 0 0 0 0.0734,0.0837 c 0.0297,0.0324 0.0604,0.0645 0.0915,0.0956 0.27894,0.2775 0.61281,0.50027 0.98392,0.6506 a 2.9765625,2.9765625 0 0 0 0.19534,0.0713 c 0.2883,0.0937 0.59551,0.14469 0.91467,0.14469 0.0987,0 0.19629,-0.006 0.29249,-0.015 a 2.9765625,2.9765625 0 0 0 0.28629,-0.0419 c 0.3862,-0.0765 0.74573,-0.22779 1.06195,-0.43874 l 1.2361,1.35961 0.88418,-0.8077 -1.28209,-1.39682 c 0.0504,-0.077 0.0973,-0.15683 0.14056,-0.23874 a 2.9765625,2.9765625 0 0 0 0.13229,-0.28784 c 0.13455,-0.33847 0.20929,-0.70802 0.20929,-1.09399 0,-0.0201 -6.4e-4,-0.04 -0.001,-0.0599 a 2.9765625,2.9765625 0 0 0 -0.0155,-0.25787 c -0.046,-0.4332 -0.18537,-0.83826 -0.39739,-1.19476 a 2.9765625,2.9765625 0 0 0 -0.0853,-0.13436 c -0.10777,-0.16081 -0.23089,-0.31085 -0.36742,-0.44751 -0.18491,-0.18397 -0.39411,-0.34359 -0.62218,-0.47439 a 2.9765625,2.9765625 0 0 0 -0.0646,-0.0367 c -0.41403,-0.22392 -0.88728,-0.35252 -1.38958,-0.35554 -0.002,-10e-6 -0.004,10e-6 -0.006,0 -0.004,-2e-5 -0.008,0 -0.0124,0 z m 0.0145,0.66146 a 2.3151042,2.3151042 0 0 1 1.63711,0.67696 2.3058684,2.3058684 0 0 1 0.67903,1.64176 2.3151042,2.3151042 0 1 1 -2.31614,-2.31872 z" /></g></g><style
     type="text/css"
     id="style12387">.st0{fill-rule:evenodd;clip-rule:evenodd;}</style></svg>
