<?xml version="1.0" encoding="UTF-8" standalone="no"?>
<!-- Created with Inkscape (http://www.inkscape.org/) -->

<svg
   width="50"
   height="50"
   viewBox="0 0 13.229166 13.229167"
   version="1.1"
   id="svg8528"
   inkscape:version="1.2.2 (b0a8486541, 2022-12-01)"
   sodipodi:docname="resource-add.svg"
   xml:space="preserve"
   xmlns:inkscape="http://www.inkscape.org/namespaces/inkscape"
   xmlns:sodipodi="http://sodipodi.sourceforge.net/DTD/sodipodi-0.dtd"
   xmlns="http://www.w3.org/2000/svg"
   xmlns:svg="http://www.w3.org/2000/svg"><sodipodi:namedview
     id="namedview8530"
     pagecolor="#505050"
     bordercolor="#eeeeee"
     borderopacity="1"
     inkscape:showpageshadow="false"
     inkscape:pageopacity="0"
     inkscape:pagecheckerboard="0"
     inkscape:deskcolor="#505050"
     inkscape:document-units="mm"
     showgrid="false"
     inkscape:zoom="7.3192482"
     inkscape:cx="24.59269"
     inkscape:cy="28.759785"
     inkscape:window-width="1575"
     inkscape:window-height="1282"
     inkscape:window-x="26"
     inkscape:window-y="23"
     inkscape:window-maximized="0"
     inkscape:current-layer="layer1"
     showguides="true" /><defs
     id="defs8525" /><g
     inkscape:label="Ebene 1"
     inkscape:groupmode="layer"
     id="layer1"><g
       id="g14241"
       transform="translate(-152.13541,-7.9374999)"><path
         id="use931-6-0"
         style="clip-rule:evenodd;fill:#919191;fill-opacity:1;fill-rule:evenodd;stroke-width:0.0363668;image-rendering:optimizeQuality;shape-rendering:geometricPrecision;text-rendering:geometricPrecision"
         d="m 154.93783,7.9374999 c -0.81401,0 -1.4795,0.6565372 -1.4795,1.4593424 v 9.5735757 c 0,0.762267 0.46352,1.278857 1.40405,1.103809 h 5.47253 c -0.002,-0.108451 -0.004,-0.217306 -0.004,-0.325045 -0.6726,-0.0026 -1.10136,-0.01394 -1.52084,-0.241846 h -3.97753 c -0.42899,0 -0.7798,-0.346331 -0.7798,-0.769979 0,-0.423648 0.35081,-0.769462 0.7798,-0.769462 h 3.15639 c 0.0736,-0.543884 0.41055,-1.052987 0.95964,-1.197859 0.85899,-0.20919 1.46208,-0.0118 1.44228,-0.391191 -0.0654,-1.251679 0.26683,-2.007227 1.29605,-2.084627 v 5.16e-4 c 0.32,-0.0012 0.56989,0.01088 0.76739,0.04134 V 7.9374999 Z m -0.21343,1.2267985 h 0.20981 c 0.10798,0 0.19689,0.088327 0.19689,0.1937866 v 7.350456 c 0,0.105819 -0.09,0.194303 -0.19689,0.194303 h -0.20981 c -0.10725,0 -0.19637,-0.08741 -0.19637,-0.194303 V 9.358085 c 0,-0.1065429 0.088,-0.1937866 0.19637,-0.1937866 z m 0.093,9.1265746 c -0.0653,0 -0.11834,0.05126 -0.11834,0.114722 v 0.06976 c 0,0.06339 0.0533,0.115238 0.11834,0.115238 h 3.20652 c -0.0255,-0.09746 -0.0415,-0.198027 -0.0475,-0.299723 z m 0,0.593762 c -0.0653,0 -0.11834,0.05177 -0.11834,0.115239 v 0.06976 c 0,0.06339 0.0533,0.115238 0.11834,0.115238 h 3.54139 c -0.0903,-0.0889 -0.1637,-0.190443 -0.22169,-0.30024 z" /><path
         class="cls-1"
         d="m 161.84836,15.16569 v 0 a 0.78531975,0.78531975 0 0 1 0.78441,0.7844 l 2.7e-4,1.4333 1.4314,-0.002 a 0.78570228,0.78570228 0 0 1 0.78441,0.7844 v 0 a 0.78531975,0.78531975 0 0 1 -0.78441,0.78441 l -1.43248,-0.002 v 1.43303 a 0.78570228,0.78570228 0 0 1 -0.7844,0.7844 v 0 a 0.78570228,0.78570228 0 0 1 -0.78441,-0.7844 l 0.002,-1.43303 -1.43168,0.001 a 0.78570228,0.78570228 0 0 1 -0.7844,-0.78441 v 0 a 0.78570228,0.78570228 0 0 1 0.7844,-0.78441 l 1.43168,2.7e-4 8.1e-4,-1.43275 a 0.78531975,0.78531975 0 0 1 0.78278,-0.78278 z"
         id="path19901-4"
         style="fill:#00ab42;fill-opacity:1;fill-rule:evenodd;stroke-width:0.0382523" /></g></g><style
     type="text/css"
     id="style12387">.st0{fill-rule:evenodd;clip-rule:evenodd;}</style></svg>
