<?xml version="1.0" encoding="UTF-8" standalone="no"?>
<!-- Created with Inkscape (http://www.inkscape.org/) -->

<svg
   width="50"
   height="50"
   viewBox="0 0 13.229166 13.229167"
   version="1.1"
   id="svg8528"
   inkscape:version="1.2.2 (b0a8486541, 2022-12-01)"
   sodipodi:docname="resource-scheduled.svg"
   xml:space="preserve"
   xmlns:inkscape="http://www.inkscape.org/namespaces/inkscape"
   xmlns:sodipodi="http://sodipodi.sourceforge.net/DTD/sodipodi-0.dtd"
   xmlns="http://www.w3.org/2000/svg"
   xmlns:svg="http://www.w3.org/2000/svg"><sodipodi:namedview
     id="namedview8530"
     pagecolor="#505050"
     bordercolor="#eeeeee"
     borderopacity="1"
     inkscape:showpageshadow="false"
     inkscape:pageopacity="0"
     inkscape:pagecheckerboard="0"
     inkscape:deskcolor="#505050"
     inkscape:document-units="mm"
     showgrid="false"
     inkscape:zoom="10.35098"
     inkscape:cx="26.567533"
     inkscape:cy="32.798827"
     inkscape:window-width="1575"
     inkscape:window-height="1282"
     inkscape:window-x="26"
     inkscape:window-y="23"
     inkscape:window-maximized="0"
     inkscape:current-layer="g5976"
     showguides="true" /><defs
     id="defs8525" /><g
     inkscape:label="Ebene 1"
     inkscape:groupmode="layer"
     id="layer1"><g
       id="g5976"
       transform="matrix(0.63004102,0,0,0.63004102,-28.534777,-77.109542)"><g
         id="g7220"
         transform="matrix(1.5871983,0,0,1.5871983,-78.593786,109.78974)"><path
           id="path17617-2-4-6-2-0"
           style="fill:#2c80ca;fill-opacity:1;stroke-width:0.107613"
           d="m 87.776623,15.213543 a 2.9722579,2.9722579 0 0 0 -2.105815,0.87178 2.9765625,2.9765625 0 1 0 2.105815,-0.87178 z m -0.0026,0.66145 a 2.3151042,2.3151042 0 0 1 1.63711,0.67697 2.3058684,2.3058684 0 0 1 0.679028,1.64176 2.3151042,2.3151042 0 1 1 -2.316138,-2.31873 z m -0.0052,0.45734 c -0.183224,0 -0.33073,0.14751 -0.33073,0.33073 v 1.55288 c 0,0.11998 0.06302,0.22419 0.15813,0.28215 0.0047,0.003 0.0096,0.006 0.01447,0.009 h 5.16e-4 c 0.0014,7.6e-4 0.0027,0.002 0.0041,0.003 l 0.817521,0.45785 c 0.15986,0.0895 0.361089,0.0327 0.450618,-0.12712 0.08953,-0.15986 0.03274,-0.36057 -0.127124,-0.4501 l -0.656807,-0.36794 v -1.35909 c 0,-0.18322 -0.147507,-0.33073 -0.33073,-0.33073 z" /><path
           id="path24582-0-6-1"
           style="clip-rule:evenodd;fill:#919191;fill-opacity:1;fill-rule:evenodd;stroke-width:0.0363669;image-rendering:optimizeQuality;shape-rendering:geometricPrecision;text-rendering:geometricPrecision"
           d="M 80.854496,7.9375 C 80.040487,7.9375 79.375,8.5940428 79.375,9.3968424 v 9.5735756 c 0,0.762276 0.463519,1.278859 1.404048,1.103809 h 3.581694 A 3.9026041,3.9026041 0 0 1 84.10236,19.507336 h -3.353284 c -0.429,0 -0.779797,-0.346329 -0.779797,-0.769978 0,-0.423641 0.350797,-0.769462 0.779797,-0.769462 h 3.133659 A 3.9026041,3.9026041 0 0 1 87.77552,14.2875 3.9026041,3.9026041 0 0 1 88.370833,14.33349 V 7.9375 Z m -0.213424,1.2267985 h 0.209807 c 0.107969,0 0.196887,0.08835 0.196887,0.1937866 v 7.3504559 c 0,0.10582 -0.08998,0.194303 -0.196887,0.194303 h -0.209807 c -0.10724,0 -0.19637,-0.08738 -0.19637,-0.194303 V 9.3580851 c 0,-0.1065375 0.08801,-0.1937866 0.19637,-0.1937866 z m 3.236495,9.1260575 -3.143477,5.17e-4 c -0.0653,0 -0.118339,0.05122 -0.118339,0.114722 v 0.06925 c 0,0.06341 0.05345,0.115756 0.118339,0.115756 h 3.161564 a 3.9026041,3.9026041 0 0 1 -0.01809,-0.300241 z m -3.143477,0.594279 c -0.0653,0 -0.118339,0.05181 -0.118339,0.115239 v 0.06976 c 0,0.06341 0.05345,0.115238 0.118339,0.115238 h 3.268017 a 3.9026041,3.9026041 0 0 1 -0.06615,-0.30024 z" /></g></g></g><style
     type="text/css"
     id="style12387">.st0{fill-rule:evenodd;clip-rule:evenodd;}</style></svg>
