<?xml version="1.0" encoding="UTF-8" standalone="no"?>
<!-- Created with Inkscape (http://www.inkscape.org/) -->

<svg
   width="50"
   height="50"
   viewBox="0 0 13.229166 13.229167"
   version="1.1"
   id="svg8528"
   inkscape:version="1.2.2 (b0a8486541, 2022-12-01)"
   sodipodi:docname="settings.svg"
   xmlns:inkscape="http://www.inkscape.org/namespaces/inkscape"
   xmlns:sodipodi="http://sodipodi.sourceforge.net/DTD/sodipodi-0.dtd"
   xmlns="http://www.w3.org/2000/svg"
   xmlns:svg="http://www.w3.org/2000/svg">
  <sodipodi:namedview
     id="namedview8530"
     pagecolor="#505050"
     bordercolor="#eeeeee"
     borderopacity="1"
     inkscape:showpageshadow="false"
     inkscape:pageopacity="0"
     inkscape:pagecheckerboard="0"
     inkscape:deskcolor="#505050"
     inkscape:document-units="mm"
     showgrid="false"
     inkscape:zoom="10.35098"
     inkscape:cx="32.798827"
     inkscape:cy="36.759804"
     inkscape:window-width="1575"
     inkscape:window-height="1282"
     inkscape:window-x="26"
     inkscape:window-y="23"
     inkscape:window-maximized="0"
     inkscape:current-layer="layer1"
     showguides="true" />
  <defs
     id="defs8525" />
  <g
     inkscape:label="Ebene 1"
     inkscape:groupmode="layer"
     id="layer1">
    <path
       id="path8389"
       style="clip-rule:evenodd;fill:#919191;fill-opacity:1;stroke-width:0.034245;image-rendering:optimizeQuality;shape-rendering:geometricPrecision;text-rendering:geometricPrecision"
       d="m 6.0393163,0.55596692 c -0.081059,-0.0242172 -0.1632324,-0.0318395 -0.2468488,-0.0236072 -0.0815,0.0085 -0.1612695,0.0323365 -0.2386694,0.0724361 l -0.00545,0.00294 c -0.076239,0.040812 -0.1409059,0.093446 -0.1936917,0.157735 l -5.672e-4,3.063e-4 c -0.053427,0.065202 -0.093169,0.1409549 -0.11846,0.2256089 L 5.0990718,1.4484738 5.0228358,1.4488465 c -0.077806,7.266e-4 -0.1540976,0.00373 -0.228463,0.00979 l -0.011671,0.00109 c -0.081694,0.0067 -0.1552186,0.014748 -0.2224006,0.024321 L 4.494833,1.4943157 4.2208893,0.99638622 C 4.1821133,0.92404822 4.1335443,0.86302102 4.0750944,0.81335262 4.0099634,0.75848492 3.935461,0.71820272 3.8501435,0.69271372 c -0.083998,-0.025095 -0.1684396,-0.0328467 -0.2531459,-0.02311 -0.082137,0.009406 -0.162014,0.0348585 -0.2398256,0.0763367 L 2.5814384,1.1647869 C 2.4207338,1.2515217 2.3159004,1.3794055 2.2650253,1.5496962 a 0.63319089,0.63319089 0 0 0 -0.02311,0.253146 c 0.00924,0.083918 0.035284,0.1648769 0.077863,0.242651 L 2.546115,2.4653631 2.503129,2.5078751 C 2.449667,2.561258 2.3949929,2.6193101 2.3404672,2.6819813 2.2878529,2.7420214 2.2369426,2.803403 2.1887219,2.8654874 L 2.1442175,2.924108 1.6159493,2.7662851 c -0.084327,-0.025193 -0.1680715,-0.033926 -0.2509155,-0.025829 -0.08318,0.008 -0.1638635,0.033117 -0.2418731,0.075258 l -0.00109,5.89e-4 C 1.0441549,2.8584444 0.97895973,2.9121452 0.92689719,2.9773824 0.87468313,3.0422079 0.83554253,3.1168688 0.8103496,3.2011952 L 0.5561685,4.0519857 c -0.0243171,0.081395 -0.0322764,0.1634678 -0.0236074,0.2468487 0.008499,0.0815 0.0329507,0.1616636 0.07348,0.2399236 l 5.8905e-4,0.00109 c 0.0412436,0.078474 0.0944396,0.1449908 0.15973679,0.1980777 l 0.0138681,0.010548 c 0.0627639,0.048396 0.13366772,0.0844 0.21178659,0.107739 l 0.45707927,0.1365549 3.728e-4,0.076236 c 5.423e-4,0.078116 0.00397,0.1545342 0.00979,0.2284632 0.00654,0.083475 0.014835,0.161659 0.024567,0.2342864 l 0.00997,0.071053 -0.49667097,0.2681704 c -0.0723378,0.038776 -0.13335415,0.086974 -0.18303942,0.1457837 -0.0551026,0.064695 -0.0951524,0.1396419 -0.1206415,0.2249596 -0.0250949,0.083998 -0.0329773,0.1688762 -0.0232405,0.2535827 0.00917,0.081701 0.0349588,0.1616779 0.076345,0.2398279 l 0.42102989,0.790568 c 0.043556,0.074406 0.097751,0.1372141 0.1622814,0.1879681 0.064766,0.05119 0.1383667,0.089099 0.2204336,0.113617 0.082404,0.024618 0.1654674,0.033147 0.2479351,0.026311 l 0.013935,-0.00224 c 0.077075,-0.00808 0.1525809,-0.03054 0.225781,-0.067302 L 2.467532,7.5473782 2.508407,7.5894172 c 0.053382,0.053462 0.112433,0.10761 0.1746754,0.162346 0.059804,0.052178 0.121547,0.1031046 0.1836341,0.1513173 L 2.9247105,7.9478525 2.767018,8.475684 C 2.741825,8.56001 2.73326,8.6438059 2.741694,8.7267502 c 0.00793,0.084626 0.032879,0.165577 0.074433,0.2430448 0.04198,0.07723 0.096062,0.14253 0.162384,0.195556 0.064825,0.05221 0.1396131,0.09093 0.2239395,0.116123 l 0.8503532,0.254048 c 0.081395,0.02432 0.1634441,0.03272 0.2471585,0.02417 0.081836,-0.0084 0.1609348,-0.03281 0.2382328,-0.07257 l 0.00545,-0.0029 C 4.620676,9.442912 4.6860185,9.390272 4.7384685,9.325884 l 0.010548,-0.01387 c 0.048394,-0.06277 0.084687,-0.133112 0.1080256,-0.211231 l 0.1365578,-0.4570901 0.075816,-4.983e-4 c 0.078218,-8.785e-4 0.1542231,-0.00416 0.2285885,-0.010206 0.083039,-0.0063 0.1611809,-0.01443 0.2341644,-0.024128 l 0.071182,-0.010388 0.2589498,0.4816292 c 0.040034,0.07884 0.092039,0.146012 0.1563633,0.199906 l 0.018153,0.01366 c 0.06142,0.04799 0.1308707,0.08357 0.2083174,0.106702 0.086628,0.02588 0.1720683,0.03393 0.2561867,0.02402 0.082909,-0.0095 0.1629689,-0.03704 0.2392562,-0.08077 L 7.5260718,8.9252853 C 7.6006793,8.8810562 7.6637527,8.8271976 7.7141705,8.7625673 7.765461,8.6974655 7.803242,8.6242928 7.8276596,8.542562 7.8521775,8.4604953 7.8605464,8.3779681 7.853709,8.2955005 7.8465315,8.2129326 7.8234106,8.1320032 7.7842261,8.054877 L 7.5479778,7.6254305 7.5896387,7.5839861 C 7.6427637,7.5305031 7.697438,7.4724513 7.7522918,7.4098781 7.8045698,7.3497381 7.8553964,7.288331 7.9036089,7.2262441 l 0.044924,-0.058494 0.5278311,0.1576923 c 0.084327,0.025193 0.1679709,0.034262 0.2509156,0.025829 0.084204,-0.00805 0.1651648,-0.033094 0.2427406,-0.075008 0.07723,-0.04198 0.1429366,-0.095465 0.1962996,-0.1616861 0.051978,-0.065263 0.090431,-0.1397623 0.1156241,-0.2240887 l 0.254177,-0.8507908 c 0.024217,-0.081059 0.032146,-0.163031 0.023477,-0.246412 -0.00839,-0.081836 -0.032209,-0.1616979 -0.072308,-0.2390979 l -0.00294,-0.00545 C 9.4431357,5.4713677 9.3903862,5.4063561 9.3259968,5.3539064 9.2608252,5.3003994 9.1858032,5.2609681 9.1008217,5.2355793 L 8.6424402,5.0986355 8.6420229,5.035104 c -8.322e-4,-0.082046 -0.00388,-0.1609663 -0.0094,-0.2359033 l -0.00122,-0.011248 c -0.00562,-0.074603 -0.014,-0.1500662 -0.024298,-0.2256989 l -0.00974,-0.067232 0.4836957,-0.265899 C 9.1582846,4.1896108 9.2243991,4.1384988 9.278328,4.0752834 9.333196,4.0101524 9.373608,3.9352132 9.3990975,3.8498956 9.4240925,3.7662326 9.4318135,3.6818929 9.4220765,3.5971865 9.4126665,3.5150495 9.3874325,3.4347607 9.3462985,3.3570522 L 8.9265951,2.5810599 C 8.8398351,2.4204394 8.7119578,2.315983 8.5419946,2.2652056 l -1.305e-4,4.368e-4 c -0.083327,-0.024894 -0.1683298,-0.032357 -0.2537081,-0.02282 -0.083817,0.0089 -0.1647516,0.034864 -0.2425205,0.077425 l -0.41987,0.2263365 -0.042513,-0.042986 C 7.5298705,2.4501363 7.4717179,2.3957985 7.4091447,2.3409451 7.3491047,2.2883308 7.2877231,2.2374202 7.225641,2.1891915 L 7.1675002,2.1449217 7.3253257,1.6166449 C 7.3505186,1.5323186 7.3592512,1.4485735 7.3511542,1.3657294 7.3427612,1.2814245 7.3175559,1.2004138 7.2757176,1.1228606 7.2337373,1.0456308 7.1803063,0.98004992 7.113901,0.92699792 7.0487391,0.87468342 6.9742641,0.83614692 6.8899377,0.81095392 Z M 5.9127468,0.97962312 6.7635369,1.2338011 c 0.029903,0.00894 0.054857,0.020963 0.074229,0.036358 0.018694,0.014913 0.035023,0.0359 0.048807,0.061428 0.013683,0.025864 0.022293,0.050944 0.024588,0.074504 0.0029,0.025204 -0.00109,0.05265 -0.010025,0.082554 l -0.2024342,0.677592 c -0.026664,0.089249 0.00517,0.1891032 0.085685,0.2449789 0.063918,0.044532 0.1216373,0.086572 0.1715096,0.1254422 0.055771,0.043013 0.1101938,0.088093 0.1631815,0.1342998 0.050685,0.044421 0.1017011,0.09251 0.1532996,0.1436726 0.048246,0.047993 0.09262,0.096293 0.1338138,0.1439999 a 0.22053809,0.22053809 0 0 0 0.2766875,0.056677 l 0.575779,-0.3097926 c 0.026937,-0.014827 0.053043,-0.023496 0.077885,-0.026414 0.023658,-0.00262 0.050088,7.825e-4 0.078985,0.00942 0.052835,0.015784 0.093674,0.049762 0.1226209,0.1023281 l 0.4187115,0.7714388 c 0.015013,0.028458 0.024062,0.056048 0.026939,0.082252 0.0032,0.024196 1.83e-4,0.04992 -0.00805,0.077471 -0.00833,0.027887 -0.019533,0.050068 -0.033729,0.066963 -0.014974,0.017668 -0.035826,0.032941 -0.06149,0.045952 L 8.2453542,4.1836959 c -0.082658,0.045757 -0.1297455,0.1415033 -0.1091288,0.2387928 0.013828,0.064885 0.025235,0.1311409 0.034641,0.1990049 0.00859,0.062221 0.015754,0.128574 0.020938,0.1972807 l 1.247e-4,0.01184 a 3.3238584,3.3238584 0 0 1 0.00575,0.4017299 c -0.013712,0.1056162 0.050402,0.2089105 0.1560552,0.2404751 l 0.6202878,0.1853142 c 0.029232,0.00873 0.053683,0.021525 0.072718,0.036821 0.018802,0.014855 0.034611,0.035135 0.048242,0.060252 0.01476,0.028382 0.023701,0.055116 0.026181,0.080196 0.00273,0.023322 -4.06e-4,0.048829 -0.00864,0.076381 l -0.254048,0.8503538 c -0.00903,0.03024 -0.021927,0.055027 -0.037323,0.074398 -0.014938,0.018778 -0.035395,0.035173 -0.060923,0.048957 -0.025889,0.013767 -0.050793,0.02179 -0.074353,0.024083 -0.025204,0.0029 -0.052859,-6.953e-4 -0.082679,-0.00961 L 7.9256078,6.697536 C 7.8366867,6.6709704 7.7368492,6.7028152 7.6806205,6.7832181 7.6360884,6.8471361 7.59418,6.9044186 7.5553088,6.954291 7.5122955,7.0100619 7.4670852,7.0649216 7.4208786,7.1179094 A 3.0813693,3.0813693 0 0 1 7.2773364,7.2707725 c -0.048077,0.04822 -0.096113,0.09324 -0.1441303,0.1342505 a 0.22132573,0.22132573 0 0 0 -0.055853,0.2788277 l 0.3145133,0.5710322 a 0.21711359,0.21711359 0 0 1 0.021876,0.075614 c 0.00262,0.026127 -9.968e-4,0.053868 -0.010004,0.084024 -0.00881,0.029484 -0.021651,0.054103 -0.036903,0.074523 -0.015651,0.019936 -0.0364,0.037618 -0.061657,0.052946 L 6.5230631,8.9584578 c -0.024092,0.01357 -0.048098,0.02196 -0.07217,0.02474 -0.02386,0.0033 -0.049836,2.08e-4 -0.078396,-0.0083 -0.024612,-0.0073 -0.044857,-0.01615 -0.060749,-0.027577 l -0.00892,-0.00815 c -0.018596,-0.01556 -0.03407,-0.035738 -0.046769,-0.060301 L 5.917187,8.2485464 A 0.22105177,0.22105177 0 0 0 5.6808671,8.1358565 c -0.06194,0.012237 -0.1308152,0.023593 -0.206769,0.033739 -0.074101,0.010068 -0.1447443,0.017693 -0.2105458,0.022647 -0.066239,0.00519 -0.1326295,0.00841 -0.1975124,0.00907 l -0.00991,-2.158e-4 C 4.9931292,8.2015797 4.925078,8.1996356 4.8544214,8.1957322 4.750294,8.184295 4.6494863,8.2486299 4.6184112,8.3526456 L 4.4330918,8.9729428 c -0.00786,0.02629 -0.018145,0.04847 -0.03047,0.06555 l -0.00671,0.0071 c -0.015193,0.0187 -0.035094,0.03509 -0.059831,0.04837 -0.028383,0.01476 -0.055537,0.02358 -0.080616,0.02606 -0.023319,0.0027 -0.048829,-4.07e-4 -0.07638,-0.0086 L 3.3287354,8.857357 C 3.2988314,8.848417 3.2737924,8.836379 3.2542114,8.820456 3.2357754,8.805599 3.2191884,8.784558 3.2054064,8.759025 3.1915404,8.733467 3.1835174,8.708563 3.1813244,8.684667 3.1784244,8.659458 3.1819935,8.631895 3.1909344,8.601985 L 3.3932265,7.9248518 C 3.419792,7.835931 3.3881039,7.7355806 3.3076804,7.6794386 3.243761,7.6349062 3.186454,7.5930815 3.1364813,7.554546 3.0808351,7.511113 3.0258925,7.4661519 2.9730052,7.4196089 2.9226566,7.3752882 2.8716406,7.3275658 2.8201425,7.2760669 2.7719976,7.2277385 2.7285576,7.1816389 2.6911127,7.1382271 2.6260705,7.0509054 2.504886,7.0224781 2.4069546,7.0764818 L 1.836042,7.3905643 c -0.022617,0.011084 -0.045189,0.018341 -0.06774,0.020935 l -0.00856,0.0011 C 1.733615,7.4152193 1.705789,7.4115793 1.676558,7.4028393 1.646738,7.3939293 1.621952,7.3810373 1.60153,7.3657843 1.581905,7.3503153 1.563995,7.3294093 1.549003,7.3042533 L 1.1357503,6.5287827 c -0.015122,-0.028398 -0.024097,-0.05624 -0.027233,-0.082797 -0.00246,-0.02361 -1.829e-4,-0.04992 0.00805,-0.077472 0.00823,-0.027552 0.020246,-0.049397 0.034444,-0.066292 0.013033,-0.016053 0.030002,-0.030289 0.050251,-0.041714 L 1.8421691,5.9162815 C 1.9250978,5.872069 1.9736653,5.777186 1.9547286,5.6803984 1.9428267,5.6185592 1.9316559,5.5493726 1.921426,5.47376 1.9113574,5.3996591 1.9037352,5.3290073 1.8987813,5.2632056 1.8933564,5.1965306 1.8899472,5.1304589 1.8892937,5.0655759 l 3.366e-4,-0.010334 c -3.788e-4,-0.063338 0.00142,-0.1305992 0.00532,-0.201256 0.011538,-0.10445 -0.052897,-0.2049213 -0.156913,-0.2359965 L 1.1177415,4.4326718 c -0.026292,-0.00786 -0.04805,-0.018018 -0.065012,-0.030768 l -0.00765,-0.00595 c -0.018492,-0.015587 -0.034939,-0.035874 -0.048386,-0.061302 -0.014525,-0.027946 -0.023557,-0.054067 -0.026037,-0.079146 -0.00239,-0.023222 8.26e-4,-0.048703 0.00906,-0.076255 L 1.2338906,3.3284627 c 0.00894,-0.029904 0.021826,-0.05469 0.036903,-0.074523 0.015705,-0.019188 0.035823,-0.035686 0.060503,-0.049083 l 9.704e-4,-1.858e-4 c 0.024345,-0.013497 0.049165,-0.021544 0.073808,-0.023789 0.025103,-0.00256 0.05265,0.00109 0.082554,0.010025 l 0.677287,0.2018669 c 0.089249,0.026664 0.1894061,-0.00463 0.2452937,-0.085115 0.044532,-0.063918 0.086572,-0.1216373 0.1254431,-0.1715094 0.043096,-0.055746 0.088096,-0.1102022 0.1343023,-0.1631899 0.044321,-0.050349 0.092532,-0.1017768 0.1436702,-0.153291 0.047892,-0.04791 0.096293,-0.09262 0.1439998,-0.1338138 A 0.22053809,0.22053809 0 0 0 3.015301,2.4091655 L 2.7055172,1.8333887 c -0.014827,-0.026937 -0.023396,-0.053379 -0.026414,-0.077885 -0.00262,-0.023658 7.825e-4,-0.050089 0.00942,-0.078985 0.015886,-0.053172 0.049792,-0.093776 0.1024583,-0.1230578 L 3.5625882,1.1357523 c 0.028382,-0.01476 0.056367,-0.023602 0.082672,-0.026814 0.023946,-0.00237 0.049836,-2.081e-4 0.077052,0.00792 0.027887,0.00833 0.050068,0.019533 0.066837,0.03415 0.016053,0.013033 0.029618,0.030717 0.041145,0.050629 l 0.3541326,0.645754 c 0.045757,0.082659 0.1410666,0.1296151 0.238356,0.1089982 0.061778,-0.012926 0.128371,-0.024232 0.1990024,-0.034633 a 3.3135506,3.3135506 0 0 1 0.1943905,-0.02235 l 0.012091,-9.626e-4 c 0.066675,-0.00543 0.1326461,-0.0085 0.1976295,-0.00949 l 0.010324,3.365e-4 c 0.063002,-4.832e-4 0.1300627,0.00162 0.2006944,0.00561 0.1045305,0.011558 0.205268,-0.052451 0.236441,-0.1567938 L 5.6587824,1.1174622 c 0.00873,-0.029232 0.021551,-0.053766 0.036527,-0.073264 0.015074,-0.018005 0.035346,-0.034091 0.060521,-0.047613 0.028382,-0.01476 0.055116,-0.023701 0.080195,-0.026182 0.023222,-0.00239 0.048703,8.261e-4 0.076255,0.00905 z M 5.6068508,3.1667525 C 5.3640438,3.0942126 5.1052514,3.0677684 4.8496057,3.0932376 l -0.019817,0.00141 C 4.5708265,3.1252085 4.3308965,3.1997206 4.1132406,3.3169731 l -6.794e-4,7.12e-4 C 3.8952334,3.4350357 3.7012142,3.5942649 3.5341586,3.7945338 l -9.376e-4,0.00155 C 3.3656169,3.9994094 3.2412946,4.235127 3.1669905,4.4838391 a 1.9729257,1.9729257 0 0 0 -0.07307,0.757378 l 0.00128,0.020236 c 0.030605,0.2600444 0.1052238,0.4996495 0.2223333,0.7165582 0.1171208,0.216903 0.2770885,0.4107768 0.478153,0.5787838 l 0.00155,9.375e-4 C 4.0005595,6.7253356 4.235971,6.8490904 4.4846912,6.923397 a 1.9729257,1.9729257 0 0 0 0.7576736,0.073642 l 0.019816,-0.00141 C 5.5210356,6.9653901 5.7605398,6.8907414 5.9782995,6.7731721 L 5.97927,6.7729863 C 6.1967038,6.6553149 6.3906355,6.4959498 6.557366,6.2955745 l 0.00134,-0.00143 C 6.7263109,6.0908194 6.8502073,5.8549655 6.9245113,5.6062534 a 1.9725146,1.9725146 0 0 0 0.073067,-0.7573696 l -0.00128,-0.020236 C 6.966024,4.5687108 6.8910891,4.3290021 6.7739682,4.1120991 6.65685,3.8951877 6.4971025,3.7009131 6.2963741,3.5330066 L 6.2948241,3.532069 C 6.0915026,3.3644661 5.8556545,3.2405806 5.6069425,3.1662766 Z M 5.4804595,3.5914043 c 0.1952301,0.058326 0.3780577,0.1534797 0.532447,0.2815298 0.1569218,0.1311496 0.2809702,0.281774 0.3716001,0.4495621 l -1.28e-4,4.283e-4 c 0.090573,0.1678259 0.1488916,0.3541871 0.1725996,0.5570169 l 0.00211,0.014355 C 6.5780302,5.0893793 6.5574882,5.2890158 6.5005312,5.479651 6.4422051,5.6748809 6.3469374,5.8577844 6.218865,6.0125239 6.0871719,6.1697501 5.9367724,6.2941767 5.7696191,6.3847036 5.602247,6.4747991 5.4155683,6.5323732 5.2114393,6.5564799 l -0.014355,0.00211 C 5.0018995,6.5778722 4.8023744,6.5569841 4.6117391,6.5000309 4.4165091,6.4417049 4.2337821,6.346215 4.0792922,6.2185013 3.9227225,6.0869998 3.7984619,5.936412 3.7078116,5.7685082 3.6171505,5.6006102 3.5590685,5.4140085 3.5353401,5.211063 L 3.5331001,5.197128 C 3.5141608,5.0020353 3.5352777,4.8021118 3.5922309,4.6114765 3.6505569,4.4162465 3.7456966,4.2337716 3.8737605,4.0790296 4.0055557,3.921477 4.1564002,3.7971835 4.3234447,3.7069902 4.4905002,3.616791 4.6771701,3.5588483 4.8811987,3.5350775 l 0.014355,-0.00211 c 0.1950925,-0.018942 0.39459,0.00204 0.5852253,0.058992 z m 5.4386135,4.3529799 c -0.01137,-0.00296 -0.02276,-0.00497 -0.03511,-0.00592 L 10.39855,7.8809152 c -0.06209,-0.00748 -0.11875,0.00881 -0.171044,0.048667 -0.05164,0.039928 -0.08127,0.091629 -0.08896,0.1568822 l -0.042,0.3543599 A 1.7194437,1.7194437 0 0 0 9.8525615,8.4851903 1.7747837,1.7747837 0 0 0 9.6235816,8.560046 L 9.3770989,8.2518943 c -0.038593,-0.051513 -0.089294,-0.081575 -0.1534652,-0.089309 -0.063868,-0.00765 -0.1214178,0.00984 -0.173986,0.050615 L 8.6700922,8.513524 c -0.052727,0.041433 -0.082292,0.093226 -0.089926,0.1570598 -0.00754,0.063532 0.00887,0.1222083 0.050622,0.1739972 l 0.2217074,0.2818378 c -0.051511,0.06247 -0.098609,0.129469 -0.1416218,0.200246 -0.042929,0.0708 -0.081467,0.143446 -0.1161214,0.217792 L 8.2078921,9.4988738 c -0.065229,-0.0077 -0.1226878,0.0081 -0.1732107,0.04802 -0.050991,0.04021 -0.079166,0.09225 -0.087193,0.157409 l -0.05713,0.4855392 c -0.00748,0.06209 0.00847,0.118648 0.048231,0.170912 0.04001,0.05167 0.091628,0.08127 0.1568829,0.08896 l 0.3544863,0.04158 a 1.7194437,1.7194437 0 0 0 0.044665,0.244555 c 0.020455,0.07976 0.045175,0.157649 0.073995,0.233453 L 8.2603244,11.21148 c -0.051161,0.03833 -0.080927,0.08866 -0.088758,0.153153 -0.00721,0.06363 0.00984,0.121411 0.050624,0.17399 l 0.2997586,0.384601 c 0.042073,0.04936 0.093783,0.07724 0.1576246,0.08488 0.063533,0.0076 0.1223371,-0.0074 0.1735566,-0.04602 l 0.2822712,-0.226318 c 0.06237,0.05184 0.1294607,0.09861 0.2002457,0.141625 0.070701,0.04326 0.1438989,0.08151 0.2182272,0.116254 l -0.045877,0.386306 c -0.00769,0.06523 0.00804,0.123151 0.048317,0.173775 0.039789,0.05087 0.091719,0.07937 0.1569716,0.08707 l 0.4854121,0.05755 c 0.06219,0.0071 0.118774,-0.0089 0.171043,-0.04866 0.05166,-0.04 0.08127,-0.09162 0.08895,-0.156874 l 0.042,-0.354361 a 1.7194437,1.7194437 0 0 0 0.244121,-0.0448 c 0.07976,-0.02046 0.157645,-0.04517 0.23345,-0.07398 l 0.242181,0.308285 c 0.03833,0.05117 0.08977,0.08117 0.155017,0.08885 0.0659,0.0079 0.122694,-0.0096 0.171996,-0.05026 l 0.384724,-0.300198 c 0.04925,-0.04174 0.07724,-0.09378 0.08488,-0.157624 0.0076,-0.06353 -0.0077,-0.122067 -0.04558,-0.173434 l -0.22675,-0.282401 c 0.05187,-0.06245 0.09861,-0.129461 0.141626,-0.200245 0.04326,-0.0707 0.08148,-0.14379 0.116123,-0.21779 l 0.38686,0.04558 c 0.06523,0.0077 0.122679,-0.0081 0.173211,-0.04801 0.05097,-0.04013 0.07963,-0.09258 0.08733,-0.157837 l 0.05699,-0.485103 c 0.0075,-0.06174 -0.0084,-0.118622 -0.04823,-0.170912 -0.03993,-0.05164 -0.09162,-0.08127 -0.156874,-0.08896 l -0.354364,-0.04201 c -0.0095,-0.08045 -0.02437,-0.1609698 -0.04457,-0.2417028 a 1.7466001,1.7466001 0 0 0 -0.07465,-0.2312864 l 0.308596,-0.246346 c 0.05116,-0.03834 0.08132,-0.08902 0.08888,-0.153592 0.0076,-0.06353 -0.0098,-0.121418 -0.05063,-0.173989 L 12.074862,8.6606809 c -0.0412,-0.052293 -0.09335,-0.081872 -0.157185,-0.089505 -0.06353,-0.00754 -0.122199,0.00887 -0.173986,0.050614 l -0.28171,0.221279 C 11.399516,8.7915586 11.332387,8.7448797 11.26161,8.701867 11.191146,8.6590393 11.117701,8.6203538 11.043381,8.5856149 l 0.04601,-0.3867342 c 0.0077,-0.065228 -0.0081,-0.1226806 -0.048,-0.1732073 -0.0324,-0.041336 -0.07328,-0.06819 -0.12237,-0.081026 z m -0.402438,1.5559136 c 0.06559,0.01777 0.127885,0.04369 0.187316,0.07728 0.09414,0.05456 0.173597,0.122863 0.238328,0.204064 0.06415,0.08202 0.111933,0.1752494 0.14295,0.2795902 0.03051,0.104891 0.03897,0.212513 0.02567,0.323981 -0.01327,0.111477 -0.04642,0.21447 -0.100678,0.30941 -0.05456,0.09414 -0.122429,0.173362 -0.204061,0.238328 -0.08202,0.06415 -0.17525,0.111933 -0.279591,0.142952 a 0.81133363,0.81133363 0 0 1 -0.323986,0.02567 c -0.11146,-0.01327 -0.2144611,-0.04641 -0.3094017,-0.100668 -0.094137,-0.05457 -0.1732609,-0.122766 -0.2383282,-0.204062 -0.064153,-0.08202 -0.111931,-0.17526 -0.1429514,-0.279592 -0.030176,-0.104795 -0.038502,-0.212847 -0.025546,-0.324417 0.013169,-0.11115 0.046285,-0.2140328 0.1005418,-0.3089738 0.054566,-0.09413 0.1224327,-0.1733794 0.2040654,-0.2383374 0.081767,-0.06423 0.175259,-0.11193 0.2795911,-0.14295 0.104806,-0.03017 0.212946,-0.03883 0.324417,-0.02554 0.04174,0.0051 0.0823,0.01242 0.121706,0.02309 z" />
  </g>
</svg>
