<?xml version="1.0" encoding="UTF-8" standalone="no"?>
<!-- Created with Inkscape (http://www.inkscape.org/) -->

<svg
   width="50"
   height="50"
   viewBox="0 0 13.229166 13.229167"
   version="1.1"
   id="svg8528"
   inkscape:version="1.2.2 (b0a8486541, 2022-12-01)"
   sodipodi:docname="tuning.svg"
   xml:space="preserve"
   xmlns:inkscape="http://www.inkscape.org/namespaces/inkscape"
   xmlns:sodipodi="http://sodipodi.sourceforge.net/DTD/sodipodi-0.dtd"
   xmlns="http://www.w3.org/2000/svg"
   xmlns:svg="http://www.w3.org/2000/svg"><sodipodi:namedview
     id="namedview8530"
     pagecolor="#505050"
     bordercolor="#eeeeee"
     borderopacity="1"
     inkscape:showpageshadow="false"
     inkscape:pageopacity="0"
     inkscape:pagecheckerboard="0"
     inkscape:deskcolor="#505050"
     inkscape:document-units="mm"
     showgrid="false"
     inkscape:zoom="7.3192482"
     inkscape:cx="24.59269"
     inkscape:cy="24.661003"
     inkscape:window-width="1575"
     inkscape:window-height="1282"
     inkscape:window-x="26"
     inkscape:window-y="23"
     inkscape:window-maximized="0"
     inkscape:current-layer="g5976"
     showguides="true" /><defs
     id="defs8525" /><g
     inkscape:label="Ebene 1"
     inkscape:groupmode="layer"
     id="layer1"><g
       id="g5976"
       transform="matrix(0.63004102,0,0,0.63004102,-28.534777,-77.109542)"><g
         id="g1373"
         transform="matrix(0.41288059,0,0,0.41291584,36.87371,45.940521)"
         style="fill:#919191;fill-opacity:1"><path
           style="fill:#919191;fill-opacity:1;stroke-width:0.173899"
           d="m 55.794612,222.71398 c -0.309079,-0.34131 -0.334648,-0.74328 -0.38159,-5.99952 l -0.05031,-5.6337 h -0.835704 c -1.358492,0 -1.411305,-0.13229 -1.411305,-3.53515 0,-2.66725 0.02782,-2.92693 0.347797,-3.24691 0.243071,-0.24307 0.579663,-0.3478 1.117815,-0.3478 h 0.770017 l 0.056,-2.59077 c 0.04876,-2.25567 0.09885,-2.63806 0.38728,-2.95629 0.420368,-0.4638 1.214042,-0.47222 1.668562,-0.0177 0.316882,0.31688 0.347798,0.57967 0.347798,2.95629 v 2.60848 h 0.763281 c 0.491941,0 0.909221,0.11804 1.173818,0.33205 0.395509,0.31989 0.412547,0.43308 0.465454,3.09218 0.05175,2.60078 0.03345,2.78742 -0.316945,3.23288 -0.314736,0.40012 -0.503495,0.47274 -1.228735,0.47274 h -0.856873 v 5.65172 c 0,5.41985 -0.01426,5.66599 -0.347798,5.99951 -0.454681,0.45468 -1.248254,0.44612 -1.668562,-0.018 z m 2.01636,-15.1112 v -1.21729 h -1.217293 -1.217292 v 1.21729 1.21729 h 1.217292 1.217293 z"
           id="path1367" /><path
           style="fill:#919191;fill-opacity:1;stroke-width:0.173899"
           d="m 45.185856,222.9467 c -0.444075,-0.29652 -0.591204,-0.97462 -0.591204,-2.72481 v -1.83738 h -0.597325 c -0.797663,0 -1.415192,-0.25121 -1.56275,-0.63575 -0.0664,-0.17303 -0.120116,-1.55754 -0.119377,-3.0767 0.0016,-3.26075 0.06745,-3.41741 1.43691,-3.41741 h 0.842542 v -6.07827 c 0,-4.27485 0.06044,-6.21094 0.203712,-6.52538 0.367946,-0.80756 1.659216,-0.80756 2.027161,0 0.14327,0.31444 0.203712,2.25053 0.203712,6.52538 v 6.07827 h 0.842542 c 1.369456,0 1.435324,0.15666 1.43691,3.41741 7.23e-4,1.51916 -0.05298,2.90367 -0.119377,3.0767 -0.147558,0.38454 -0.765087,0.63575 -1.562749,0.63575 h -0.597326 v 1.83738 c 0,2.28633 -0.241636,2.85257 -1.217292,2.85257 -0.239111,0 -0.52085,-0.0575 -0.626089,-0.12776 z m 1.843381,-8.21406 v -1.2173 h -1.217292 -1.217293 v 1.2173 1.21729 h 1.217293 1.217292 z"
           id="path1365" /><path
           style="fill:#919191;fill-opacity:1;stroke-width:0.173899"
           d="m 34.160715,222.73199 c -0.335907,-0.33591 -0.347798,-0.57967 -0.347798,-7.12986 v -6.78206 h -0.856873 c -0.72524,0 -0.913999,-0.0726 -1.228735,-0.47274 -0.350394,-0.44546 -0.368694,-0.6321 -0.316945,-3.23289 0.05291,-2.65909 0.06995,-2.77228 0.465455,-3.09217 0.264596,-0.21401 0.681876,-0.33206 1.173818,-0.33206 h 0.76328 v -1.47813 c 0,-1.66847 0.276691,-2.17374 1.19034,-2.17374 0.851754,0 1.149014,0.53467 1.218616,2.19187 l 0.06132,1.46 h 0.602234 c 0.621094,0 1.265748,0.25585 1.489676,0.59121 0.07027,0.10524 0.12896,1.48997 0.130424,3.0772 0.0031,3.3416 -0.04678,3.46145 -1.43985,3.46145 h -0.806481 l -0.04932,6.76399 c -0.04644,6.36896 -0.06867,6.78535 -0.380597,7.12986 -0.420298,0.46418 -1.21385,0.47278 -1.668562,0.0181 z m 2.086787,-17.3899 V 204.1248 H 35.03021 33.812917 v 1.21729 1.2173 h 1.217293 1.217292 z"
           id="path1363" /><path
           style="fill:#919191;fill-opacity:1;stroke-width:0.173899"
           d="m 43.176541,232.79393 c -7.781079,-0.89206 -14.773625,-6.1222 -17.921588,-13.4046 -4.875831,-11.27961 0.395262,-24.48902 11.726721,-29.38726 7.802394,-3.37274 17.005415,-1.95485 23.418126,3.60799 7.41758,6.43453 9.829167,16.84959 5.969136,25.77927 -3.928468,9.088 -13.349379,14.53304 -23.192395,13.4046 z m 6.137647,-2.50516 c 4.324307,-0.79914 7.839201,-2.70713 10.945415,-5.94149 3.688466,-3.84064 5.55072,-8.46656 5.55072,-13.78822 0,-5.32166 -1.862254,-9.94757 -5.55072,-13.78821 -3.982778,-4.14709 -8.778088,-6.21017 -14.434615,-6.21017 -4.095801,0 -7.728795,1.09489 -11.229525,3.38429 -1.344733,0.87942 -4.518192,4.05288 -5.397615,5.39761 -3.449951,5.27535 -4.329924,11.64045 -2.41735,17.48542 0.991793,3.03099 2.446301,5.33754 4.935638,7.82687 3.094182,3.09419 5.979745,4.66182 10.231063,5.55821 1.937956,0.40862 5.374345,0.44393 7.366989,0.0757 z"
           id="path1361" /></g></g></g><style
     type="text/css"
     id="style12387">.st0{fill-rule:evenodd;clip-rule:evenodd;}</style></svg>
